<?xml version="1.0" encoding="UTF-8"?>
<svg id="Layer_2" data-name="Layer 2" xmlns="http://www.w3.org/2000/svg" viewBox="0 0 714.97 711.56">
  <defs>
    <style>
      .cls-1 {
        fill: #09090b;
      }

      .cls-2 {
        fill: #fff;
      }

      .cls-3 {
        fill: #6bd425;
      }

      .cls-4 {
        fill: #f7f7f8;
      }
    </style>
  </defs>
  <g id="Layer_1-2" data-name="Layer 1">
    <rect class="cls-1" x="476.97" y="473.98" width="238" height="237"/>
    <rect class="cls-1" y="237.19" width="238.26" height="237.18"/>
    <polygon class="cls-4" points="238.26 237.19 238.26 474.38 0 474.38 58.7 415.95 238.26 237.19"/>
    <path class="cls-4" d="M174.57,300.59l-115.88,115.36c-12.26-14.29-19.64-32.83-19.64-53.06,0-45.21,36.81-81.85,82.22-81.85,20.33,0,38.94,7.35,53.3,19.55Z"/>
    <path class="cls-3" d="M203.49,362.89c0,45.19-36.82,81.85-82.22,81.85-25.07,0-47.51-11.18-62.57-28.79l115.88-115.36c17.68,14.99,28.92,37.34,28.92,62.29Z"/>
    <rect class="cls-2" x="238.26" y="237.19" width="238.26" height="237.19"/>
    <polygon class="cls-1" points="476.52 237.19 476.52 474.38 238.26 237.19 476.52 237.19"/>
    <path class="cls-3" d="M437.52,348.13c0,20.25-8.93,40.32-26.06,53.76l-92.32,72.49h-80.89v-110.56l88.18-69.23c29.65-23.28,73.03-18.18,96.41,11.32,9.88,12.47,14.66,27.39,14.66,42.22Z"/>
    <ellipse class="cls-4" cx="362.05" cy="351.67" rx="44.27" ry="44.07"/>
    <path class="cls-2" d="M381.74,349.88c0,10.83-8.82,19.6-19.69,19.6s-19.69-8.78-19.69-19.6,8.82-19.6,19.69-19.6,19.69,8.78,19.69,19.6Z"/>
    <rect class="cls-3" x="238.26" width="238.26" height="237.19"/>
    <path class="cls-1" d="M398.85,15.62c0,64.48-52.49,116.73-117.26,116.73-15.31,0-29.92-2.92-43.33-8.21V0h159.54c.68,5.1,1.04,10.32,1.04,15.62Z"/>
    <path class="cls-4" d="M348.04,15.62c0,36.55-29.74,66.16-66.46,66.16-16.55,0-31.7-6.03-43.33-15.99V0h107.91c1.22,5.01,1.87,10.23,1.87,15.62Z"/>
    <path class="cls-2" d="M476.52,90.99v146.2h-157.17c-4.38-12.22-6.76-25.37-6.76-39.09,0-64.48,52.49-116.73,117.26-116.73,16.59,0,32.38,3.44,46.67,9.63Z"/>
    <path class="cls-2" d="M476.52,151.24v85.94h-100.08c-8.1-10.95-12.88-24.47-12.88-39.09,0-36.44,29.69-66,66.29-66,18.19,0,34.68,7.32,46.67,19.14Z"/>
    <path class="cls-4" d="M448.92,34.49c0,7.41-6.04,13.42-13.48,13.42s-13.48-6.01-13.48-13.42,6.03-13.42,13.48-13.42,13.48,6.01,13.48,13.42Z"/>
    <path class="cls-2" d="M281.79,200.86c0,7.41-6.04,13.42-13.48,13.42s-13.48-6.01-13.48-13.42,6.03-13.42,13.48-13.42,13.48,6.01,13.48,13.42Z"/>
    <rect class="cls-3" x=".08" y=".01" width="238.18" height="237.18"/>
    <path class="cls-4" d="M152.37,221.2c0,5.42-.4,10.77-1.17,15.99H.08v-122.3c11.67-3.91,24.2-6.03,37.22-6.03,63.56,0,115.07,50.3,115.07,112.34Z"/>
    <path class="cls-1" d="M90.45,221.2c0,5.58-.89,10.95-2.58,15.99H.08v-53.04c9.59-9.18,22.71-14.84,37.22-14.84,29.36,0,53.16,23.24,53.16,51.9Z"/>
    <path class="cls-4" d="M203.15,89.07c0,11.28-9.37,20.43-20.93,20.43s-20.93-9.15-20.93-20.43,9.37-20.43,20.93-20.43,20.93,9.15,20.93,20.43Z"/>
    <rect class="cls-2" x="476.52" width="59.56" height="59.3"/>
    <polygon class="cls-4" points="595.64 118.6 595.64 0 476.52 118.6 595.64 118.6"/>
    <polygon class="cls-1" points="476.52 59.3 476.52 118.6 595.64 0 534.65 0 476.52 59.3"/>
    <polygon class="cls-3" points="534.65 0 476.52 0 476.52 59.3 534.65 0"/>
    <polygon class="cls-1" points="595.64 118.6 476.52 118.6 595.64 237.19 595.64 118.6"/>
    <polygon class="cls-3" points="595.64 237.19 476.52 118.6 476.52 237.19 595.64 237.19"/>
    <rect class="cls-2" x="655.21" y="177.89" width="59.56" height="59.3"/>
    <polygon class="cls-4" points="595.64 118.59 595.64 237.19 714.77 118.59 595.64 118.59"/>
    <polygon class="cls-1" points="714.77 177.89 714.77 118.59 595.64 237.19 656.64 237.19 714.77 177.89"/>
    <polygon class="cls-3" points="656.64 237.19 714.77 237.19 714.77 177.89 656.64 237.19"/>
    <polygon class="cls-1" points="595.64 118.59 714.77 118.59 595.64 0 595.64 118.59"/>
    <polygon class="cls-2" points="595.64 0 714.77 118.59 714.77 0 595.64 0"/>
    <rect class="cls-4" x="476.52" y="237.19" width="119.13" height="237.19"/>
    <path class="cls-3" d="M714.77,474.38v-59.3c-32.9,0-59.56-26.55-59.56-59.3h-59.57c0,65.5,53.34,118.6,119.13,118.6Z"/>
    <path class="cls-4" d="M655.21,355.78h59.56v-59.3c-32.89,0-59.56,26.55-59.56,59.3Z"/>
    <path class="cls-4" d="M714.77,415.08v-59.3h-59.56c0,32.75,26.67,59.3,59.56,59.3Z"/>
    <path class="cls-1" d="M714.77,237.19h-119.13s0,118.59,0,118.59c0-65.5,53.34-118.59,119.13-118.59Z"/>
    <path class="cls-1" d="M595.64,355.79v118.59h119.13c-65.79,0-119.13-53.1-119.13-118.59Z"/>
    <path class="cls-3" d="M595.64,355.79h59.57c0-32.75,26.67-59.3,59.56-59.3v-59.29c-65.79,0-119.13,53.09-119.13,118.59Z"/>
    <path class="cls-1" d="M476.52,355.78c0,65.5,53.34,118.6,119.13,118.6v-237.19c-65.79,0-119.13,53.1-119.13,118.6Z"/>
    <polygon class="cls-1" points="0 504.02 0 533.67 238.26 533.67 238.26 504.02 238.26 474.37 0 474.37 0 504.02"/>
    <rect class="cls-4" x="0" y="533.67" width="238.26" height="29.65"/>
    <rect class="cls-4" x="0" y="563.31" width="238.26" height="29.65"/>
    <polygon class="cls-3" points="0 622.61 0 652.26 238.26 652.26 238.26 622.61 238.26 592.96 0 592.96 0 622.61"/>
    <polygon class="cls-2" points="0 681.91 0 711.56 238.26 711.56 238.26 681.91 238.26 652.26 0 652.26 0 681.91"/>
    <path class="cls-3" d="M476.52,474.37h-119.13v118.59c0-65.5,53.34-118.59,119.13-118.59Z"/>
    <path class="cls-1" d="M357.39,592.96l119.13-118.59c-65.79,0-119.13,53.1-119.13,118.59Z"/>
    <path class="cls-3" d="M357.39,592.96h119.13v-118.59c0,65.5-53.34,118.59-119.13,118.59Z"/>
    <path class="cls-4" d="M476.52,474.37l-119.13,118.59c65.79,0,119.13-53.1,119.13-118.59Z"/>
    <path class="cls-3" d="M476.52,711.56v-118.59h-119.13c65.79,0,119.13,53.1,119.13,118.59Z"/>
    <path class="cls-1" d="M357.39,592.96l119.13,118.59c0-65.5-53.34-118.59-119.13-118.59Z"/>
    <path class="cls-3" d="M357.39,592.96v118.59h119.13c-65.79,0-119.13-53.1-119.13-118.59Z"/>
    <path class="cls-4" d="M476.52,711.56l-119.13-118.59c0,65.5,53.34,118.59,119.13,118.59Z"/>
    <path class="cls-3" d="M238.26,711.56h119.13v-118.59c0,65.5-53.33,118.59-119.13,118.59Z"/>
    <path class="cls-1" d="M357.39,592.96l-119.13,118.59c65.79,0,119.13-53.1,119.13-118.59Z"/>
    <path class="cls-3" d="M357.39,592.96h-119.13v118.59c0-65.5,53.34-118.59,119.13-118.59Z"/>
    <path class="cls-4" d="M238.26,711.56l119.13-118.59c-65.79,0-119.13,53.1-119.13,118.59Z"/>
    <path class="cls-3" d="M238.26,474.37v118.59h119.13c-65.79,0-119.13-53.1-119.13-118.59Z"/>
    <path class="cls-1" d="M357.39,592.96l-119.13-118.59c0,65.5,53.34,118.59,119.13,118.59Z"/>
    <path class="cls-3" d="M357.39,592.96v-118.59h-119.13c65.79,0,119.13,53.1,119.13,118.59Z"/>
    <path class="cls-4" d="M238.26,474.37l119.13,118.59c0-65.5-53.33-118.59-119.13-118.59Z"/>
    <polygon class="cls-4" points="595.64 476.89 595.64 709.04 595.65 709.04 712.25 592.96 595.64 476.89"/>
    <polygon class="cls-1" points="595.64 709.04 595.64 476.89 595.64 476.89 479.04 592.96 595.64 709.04"/>
  </g>
</svg>