<?xml version="1.0" encoding="UTF-8"?>
<svg id="Layer_2" data-name="Layer 2" xmlns="http://www.w3.org/2000/svg" viewBox="0 0 416.61 499.93">
  <defs>
    <style>
      .cls-1 {
        fill: #bedeaa;
      }

      .cls-2 {
        fill: #fff;
      }

      .cls-3 {
        fill: #17181b;
      }

      .cls-4 {
        fill: #daebce;
      }

      .cls-5 {
        fill: #67d33d;
      }
    </style>
  </defs>
  <g id="Layer_1-2" data-name="Layer 1">
    <g>
      <rect class="cls-5" x="83.32" y="0" width="83.32" height="83.32" rx="41.66" ry="41.66"/>
      <path class="cls-1" d="M124.98,60.26h0c-10.27,0-18.6-8.33-18.6-18.6h0c0-10.27,8.33-18.6,18.6-18.6h0c10.27,0,18.6,8.33,18.6,18.6h0c0,10.27-8.33,18.6-18.6,18.6Z"/>
      <rect class="cls-3" x="166.64" width="83.32" height="83.32"/>
      <path class="cls-4" d="M83.32,83.32H0C0,37.3,37.3,0,83.32,0h0v83.32Z"/>
      <path class="cls-5" d="M249.97,0h83.32c0,45.99-37.34,83.32-83.32,83.32h0V0h0Z"/>
      <path class="cls-4" d="M333.29,0h83.32v83.32h0C370.62,83.32,333.29,45.99,333.29,0h0Z"/>
      <path class="cls-5" d="M83.32,166.64h0C37.3,166.64,0,129.34,0,83.32h0s83.32,0,83.32,0v83.32Z"/>
      <path class="cls-1" d="M83.32,130.7h0c-26.17,0-47.38-21.21-47.38-47.38h0s47.38,0,47.38,0v47.38Z"/>
      <rect class="cls-3" x="83.32" y="83.32" width="83.32" height="83.32"/>
      <rect class="cls-4" x="107.15" y="107.15" width="35.66" height="35.66"/>
      <rect class="cls-4" x="166.64" y="83.32" width="83.32" height="83.32"/>
      <path class="cls-5" d="M249.97,83.32h0v83.32h-83.32c0-45.99,37.34-83.32,83.32-83.32Z"/>
      <path class="cls-5" d="M416.61,83.32h0v83.32h-83.32c0-45.99,37.34-83.32,83.32-83.32Z"/>
      <path class="cls-1" d="M249.97,83.32h0c45.99,0,83.32,37.34,83.32,83.32h-83.32v-83.32h0Z"/>
      <rect class="cls-1" x="83.32" y="166.64" width="83.32" height="83.32"/>
      <rect class="cls-2" x="166.64" y="166.64" width="83.32" height="83.32"/>
      <rect class="cls-3" x="0" y="166.64" width="83.32" height="83.32" rx="41.66" ry="41.66"/>
      <path class="cls-5" d="M41.66,226.89h0c-10.27,0-18.59-8.32-18.59-18.59h0c0-10.27,8.32-18.59,18.59-18.59h0c10.27,0,18.59,8.32,18.59,18.59h0c0,10.27-8.32,18.59-18.59,18.59Z"/>
      <rect class="cls-2" x="249.97" y="166.64" width="83.32" height="83.32"/>
      <path class="cls-3" d="M166.64,166.64h83.32v83.32h0c-45.99,0-83.32-37.34-83.32-83.32h0Z"/>
      <path class="cls-5" d="M249.97,166.64h83.32c0,45.99-37.34,83.32-83.32,83.32h0v-83.32h0Z"/>
      <path class="cls-2" d="M249.97,166.64h-41.26c0-22.78,18.47-41.26,41.26-41.26h0v41.26Z"/>
      <path class="cls-5" d="M249.97,125.39h0c22.77,0,41.26,18.49,41.26,41.26h-41.26v-41.26h0Z"/>
      <path class="cls-1" d="M249.97,207.9h0c-22.78,0-41.26-18.47-41.26-41.26h41.26v41.26Z"/>
      <path class="cls-3" d="M249.97,207.9h0v-41.26h41.26c0,22.78-18.47,41.26-41.26,41.26Z"/>
      <path class="cls-3" d="M416.61,249.97h-83.32v-83.32h0c46.02,0,83.32,37.3,83.32,83.32h0Z"/>
      <path class="cls-4" d="M83.32,333.29h0C37.3,333.29,0,295.98,0,249.97h0s83.32,0,83.32,0v83.32Z"/>
      <rect class="cls-3" x="83.32" y="249.97" width="83.32" height="83.32"/>
      <polygon class="cls-3" points="166.64 333.29 83.32 333.29 166.64 249.97 166.64 333.29"/>
      <path class="cls-5" d="M166.64,249.97h0c45.99,0,83.32,37.34,83.32,83.32h-83.32v-83.32h0Z"/>
      <path class="cls-1" d="M416.61,333.29h-83.32v-83.32h0c46.02,0,83.32,37.3,83.32,83.32h0Z"/>
      <path class="cls-3" d="M333.29,249.97h0v83.32h-83.32c0-45.99,37.34-83.32,83.32-83.32Z"/>
      <path class="cls-3" d="M333.29,249.97h0v83.32h-83.32c0-45.99,37.34-83.32,83.32-83.32Z"/>
      <path class="cls-4" d="M385.62,333.29h-52.33v-52.33h0c28.9,0,52.33,23.43,52.33,52.33h0Z"/>
      <path class="cls-5" d="M333.29,280.95h0v52.33h-52.33c0-28.88,23.45-52.33,52.33-52.33Z"/>
      <path class="cls-5" d="M83.32,416.61h0c-46.02,0-83.32,37.3-83.32,83.32h83.32v-83.32Z"/>
      <path class="cls-1" d="M83.32,416.61h0v83.32h83.32c0-46.02-37.3-83.32-83.32-83.32Z"/>
      <path class="cls-4" d="M83.32,451.78h0c-26.59,0-48.15,21.56-48.15,48.15h48.15v-48.15Z"/>
      <path class="cls-2" d="M83.32,451.78h0v48.15h48.15c0-26.59-21.56-48.15-48.15-48.15Z"/>
      <path class="cls-3" d="M166.64,416.61h0c0,46.02,37.3,83.32,83.32,83.32h0c0-46.02-37.3-83.32-83.32-83.32Z"/>
      <rect class="cls-3" x="333.29" y="416.61" width="83.32" height="83.32"/>
      <path class="cls-5" d="M333.29,416.61h0c-46.02,0-83.32,37.3-83.32,83.32h83.32v-83.32Z"/>
      <path class="cls-5" d="M83.32,333.29h0c0,46.02,37.3,83.32,83.32,83.32h0c0-46.02-37.3-83.32-83.32-83.32Z"/>
      <path class="cls-1" d="M249.97,333.29h0c-46.02,0-83.32,37.3-83.32,83.32h0s0,0,0,0c46.02,0,83.32-37.3,83.32-83.32h0Z"/>
      <rect class="cls-2" x="249.97" y="333.29" width="83.32" height="83.32"/>
      <path class="cls-1" d="M312.46,333.29h0c-11.5,0-20.83,9.33-20.83,20.83h0c0,11.5,9.33,20.83,20.83,20.83h0c11.5,0,20.83-9.33,20.83-20.83h0c0-11.5-9.33-20.83-20.83-20.83Z"/>
      <path class="cls-2" d="M312.46,349.19h0c-2.72,0-4.93,2.21-4.93,4.93h0c0,2.72,2.21,4.93,4.93,4.93h0c2.72,0,4.93-2.21,4.93-4.93h0c0-2.72-2.21-4.93-4.93-4.93Z"/>
      <path class="cls-4" d="M270.8,333.29h0c-11.5,0-20.83,9.33-20.83,20.83h0c0,11.5,9.33,20.83,20.83,20.83h0c11.5,0,20.83-9.33,20.83-20.83h0c0-11.5-9.33-20.83-20.83-20.83Z"/>
      <path class="cls-3" d="M270.8,349.19h0c-2.72,0-4.93,2.21-4.93,4.93h0c0,2.72,2.21,4.93,4.93,4.93h0c2.72,0,4.93-2.21,4.93-4.93h0c0-2.72-2.21-4.93-4.93-4.93Z"/>
      <path class="cls-3" d="M312.46,374.95h0c-11.5,0-20.83,9.33-20.83,20.83h0c0,11.5,9.33,20.83,20.83,20.83h0c11.5,0,20.83-9.33,20.83-20.83h0c0-11.5-9.33-20.83-20.83-20.83Z"/>
      <path class="cls-1" d="M312.46,390.85h0c-2.72,0-4.93,2.21-4.93,4.93h0c0,2.72,2.21,4.93,4.93,4.93h0c2.72,0,4.93-2.21,4.93-4.93h0c0-2.72-2.21-4.93-4.93-4.93Z"/>
      <rect class="cls-5" x="249.97" y="374.95" width="41.66" height="41.66" rx="20.83" ry="20.83"/>
      <path class="cls-4" d="M270.8,390.85h0c-2.72,0-4.93,2.21-4.93,4.93h0c0,2.72,2.21,4.93,4.93,4.93h0c2.72,0,4.93-2.21,4.93-4.93h0c0-2.72-2.21-4.93-4.93-4.93Z"/>
      <rect class="cls-5" x="333.29" y="333.29" width="83.32" height="83.32"/>
      <rect class="cls-3" x="357.2" y="357.2" width="35.49" height="35.49"/>
      <path class="cls-1" d="M344.74,446.54c1.06,0,2.1-.43,2.85-1.18.75-.75,1.18-1.79,1.18-2.85s-.43-2.1-1.18-2.85c-.75-.75-1.79-1.18-2.85-1.18s-2.1.43-2.85,1.18c-.75.75-1.18,1.79-1.18,2.85s.43,2.1,1.18,2.85c.75.75,1.79,1.18,2.85,1.18"/>
      <path class="cls-1" d="M386.35,446.54h.02c2.23,0,4.04-1.81,4.04-4.04s-1.81-4.04-4.04-4.04h-.02c-2.23,0-4.04,1.81-4.04,4.04s1.81,4.04,4.04,4.04Z"/>
      <path class="cls-1" d="M365.54,446.54h.02c2.23,0,4.04-1.81,4.04-4.04s-1.81-4.04-4.04-4.04h-.02c-2.23,0-4.04,1.81-4.04,4.04s1.81,4.04,4.04,4.04Z"/>
      <path class="cls-1" d="M407.17,446.54c1.06,0,2.1-.43,2.85-1.18.75-.75,1.18-1.79,1.18-2.85s-.43-2.1-1.18-2.85c-.75-.75-1.79-1.18-2.85-1.18s-2.1.43-2.85,1.18c-.75.75-1.18,1.79-1.18,2.85s.43,2.1,1.18,2.85c.75.75,1.79,1.18,2.85,1.18"/>
      <path class="cls-1" d="M344.74,429.96c1.06,0,2.1-.43,2.85-1.18s1.18-1.79,1.18-2.85-.43-2.1-1.18-2.85c-.75-.75-1.79-1.18-2.85-1.18s-2.1.43-2.85,1.18c-.75.75-1.18,1.79-1.18,2.85s.43,2.1,1.18,2.85c.75.75,1.79,1.18,2.85,1.18"/>
      <path class="cls-1" d="M386.35,429.96h.02c2.23,0,4.04-1.81,4.04-4.04s-1.81-4.04-4.04-4.04h-.02c-2.23,0-4.04,1.81-4.04,4.04s1.81,4.04,4.04,4.04Z"/>
      <path class="cls-1" d="M365.54,429.96h.02c2.23,0,4.04-1.81,4.04-4.04s-1.81-4.04-4.04-4.04h-.02c-2.23,0-4.04,1.81-4.04,4.04s1.81,4.04,4.04,4.04Z"/>
      <path class="cls-1" d="M407.17,429.96c1.06,0,2.1-.43,2.85-1.18.75-.75,1.18-1.79,1.18-2.85s-.43-2.1-1.18-2.85c-.75-.75-1.79-1.18-2.85-1.18s-2.1.43-2.85,1.18c-.75.75-1.18,1.79-1.18,2.85s.43,2.1,1.18,2.85c.75.75,1.79,1.18,2.85,1.18"/>
      <path class="cls-1" d="M344.74,463.12c1.06,0,2.1-.43,2.85-1.18.75-.75,1.18-1.79,1.18-2.85s-.43-2.1-1.18-2.85c-.75-.75-1.79-1.18-2.85-1.18s-2.1.43-2.85,1.18c-.75.75-1.18,1.79-1.18,2.85s.43,2.1,1.18,2.85c.75.75,1.79,1.18,2.85,1.18"/>
      <path class="cls-1" d="M386.35,463.12h.02c2.23,0,4.04-1.81,4.04-4.04s-1.81-4.04-4.04-4.04h-.02c-2.23,0-4.04,1.81-4.04,4.04s1.81,4.04,4.04,4.04Z"/>
      <path class="cls-1" d="M365.54,463.12h.02c2.23,0,4.04-1.81,4.04-4.04s-1.81-4.04-4.04-4.04h-.02c-2.23,0-4.04,1.81-4.04,4.04s1.81,4.04,4.04,4.04Z"/>
      <path class="cls-1" d="M407.17,463.12c1.06,0,2.1-.43,2.85-1.18.75-.75,1.18-1.79,1.18-2.85s-.43-2.1-1.18-2.85-1.79-1.18-2.85-1.18-2.1.43-2.85,1.18c-.75.75-1.18,1.79-1.18,2.85s.43,2.1,1.18,2.85c.75.75,1.79,1.18,2.85,1.18"/>
      <path class="cls-1" d="M344.74,479.7c1.06,0,2.1-.43,2.85-1.18.75-.75,1.18-1.79,1.18-2.85s-.43-2.1-1.18-2.85c-.75-.75-1.79-1.18-2.85-1.18s-2.1.43-2.85,1.18c-.75.75-1.18,1.79-1.18,2.85s.43,2.1,1.18,2.85c.75.75,1.79,1.18,2.85,1.18"/>
      <path class="cls-1" d="M386.35,479.7h.02c2.23,0,4.04-1.81,4.04-4.04s-1.81-4.04-4.04-4.04h-.02c-2.23,0-4.04,1.81-4.04,4.04s1.81,4.04,4.04,4.04Z"/>
      <path class="cls-1" d="M365.54,479.7h.02c2.23,0,4.04-1.81,4.04-4.04s-1.81-4.04-4.04-4.04h-.02c-2.23,0-4.04,1.81-4.04,4.04s1.81,4.04,4.04,4.04Z"/>
      <path class="cls-1" d="M407.17,479.7c1.06,0,2.1-.43,2.85-1.18.75-.75,1.18-1.79,1.18-2.85s-.43-2.1-1.18-2.85c-.75-.75-1.79-1.18-2.85-1.18s-2.1.43-2.85,1.18-1.18,1.79-1.18,2.85.43,2.1,1.18,2.85,1.79,1.18,2.85,1.18"/>
      <path class="cls-1" d="M344.74,496.28c1.06,0,2.1-.43,2.85-1.18.75-.75,1.18-1.79,1.18-2.85s-.43-2.1-1.18-2.85c-.75-.75-1.79-1.18-2.85-1.18s-2.1.43-2.85,1.18c-.75.75-1.18,1.79-1.18,2.85s.43,2.1,1.18,2.85c.75.75,1.79,1.18,2.85,1.18"/>
      <path class="cls-1" d="M386.35,496.28h.02c2.23,0,4.04-1.81,4.04-4.04s-1.81-4.04-4.04-4.04h-.02c-2.23,0-4.04,1.81-4.04,4.04s1.81,4.04,4.04,4.04Z"/>
      <path class="cls-1" d="M365.54,496.28h.02c2.23,0,4.04-1.81,4.04-4.04s-1.81-4.04-4.04-4.04h-.02c-2.23,0-4.04,1.81-4.04,4.04s1.81,4.04,4.04,4.04Z"/>
      <path class="cls-1" d="M407.17,496.28c1.06,0,2.1-.43,2.85-1.18.75-.75,1.18-1.79,1.18-2.85s-.43-2.1-1.18-2.85c-.75-.75-1.79-1.18-2.85-1.18s-2.1.43-2.85,1.18c-.75.75-1.18,1.79-1.18,2.85s.43,2.1,1.18,2.85c.75.75,1.79,1.18,2.85,1.18"/>
      <path class="cls-2" d="M93.71,196.64c1.06,0,2.1-.43,2.85-1.18.75-.75,1.18-1.79,1.18-2.85s-.43-2.1-1.18-2.85c-.75-.75-1.79-1.18-2.85-1.18s-2.1.43-2.85,1.18c-.75.75-1.18,1.79-1.18,2.85s.43,2.1,1.18,2.85c.75.75,1.79,1.18,2.85,1.18"/>
      <path class="cls-2" d="M135.32,196.64h.02c2.23,0,4.04-1.81,4.04-4.04s-1.81-4.04-4.04-4.04h-.02c-2.23,0-4.04,1.81-4.04,4.04s1.81,4.04,4.04,4.04Z"/>
      <path class="cls-2" d="M114.51,196.64h.02c2.23,0,4.04-1.81,4.04-4.04s-1.81-4.04-4.04-4.04h-.02c-2.23,0-4.04,1.81-4.04,4.04s1.81,4.04,4.04,4.04Z"/>
      <path class="cls-2" d="M156.15,196.64c1.06,0,2.1-.43,2.85-1.18.75-.75,1.18-1.79,1.18-2.85s-.43-2.1-1.18-2.85c-.75-.75-1.79-1.18-2.85-1.18s-2.1.43-2.85,1.18c-.75.75-1.18,1.79-1.18,2.85s.43,2.1,1.18,2.85c.75.75,1.79,1.18,2.85,1.18"/>
      <path class="cls-2" d="M93.71,180.06c1.06,0,2.1-.43,2.85-1.18s1.18-1.79,1.18-2.85-.43-2.1-1.18-2.85c-.75-.75-1.79-1.18-2.85-1.18s-2.1.43-2.85,1.18c-.75.75-1.18,1.79-1.18,2.85s.43,2.1,1.18,2.85c.75.75,1.79,1.18,2.85,1.18"/>
      <path class="cls-2" d="M135.32,180.06h.02c2.23,0,4.04-1.81,4.04-4.04s-1.81-4.04-4.04-4.04h-.02c-2.23,0-4.04,1.81-4.04,4.04s1.81,4.04,4.04,4.04Z"/>
      <path class="cls-2" d="M114.51,180.06h.02c2.23,0,4.04-1.81,4.04-4.04s-1.81-4.04-4.04-4.04h-.02c-2.23,0-4.04,1.81-4.04,4.04s1.81,4.04,4.04,4.04Z"/>
      <path class="cls-2" d="M156.15,180.06c1.06,0,2.1-.43,2.85-1.18.75-.75,1.18-1.79,1.18-2.85s-.43-2.1-1.18-2.85c-.75-.75-1.79-1.18-2.85-1.18s-2.1.43-2.85,1.18-1.18,1.79-1.18,2.85.43,2.1,1.18,2.85c.75.75,1.79,1.18,2.85,1.18"/>
      <path class="cls-2" d="M93.71,213.22c1.06,0,2.1-.43,2.85-1.18.75-.75,1.18-1.79,1.18-2.85s-.43-2.1-1.18-2.85c-.75-.75-1.79-1.18-2.85-1.18s-2.1.43-2.85,1.18c-.75.75-1.18,1.79-1.18,2.85s.43,2.1,1.18,2.85c.75.75,1.79,1.18,2.85,1.18"/>
      <path class="cls-2" d="M135.32,213.22h.02c2.23,0,4.04-1.81,4.04-4.04s-1.81-4.04-4.04-4.04h-.02c-2.23,0-4.04,1.81-4.04,4.04s1.81,4.04,4.04,4.04Z"/>
      <path class="cls-2" d="M114.51,213.22h.02c2.23,0,4.04-1.81,4.04-4.04s-1.81-4.04-4.04-4.04h-.02c-2.23,0-4.04,1.81-4.04,4.04s1.81,4.04,4.04,4.04Z"/>
      <path class="cls-2" d="M156.15,213.22c1.06,0,2.1-.43,2.85-1.18.75-.75,1.18-1.79,1.18-2.85s-.43-2.1-1.18-2.85c-.75-.75-1.79-1.18-2.85-1.18s-2.1.43-2.85,1.18c-.75.75-1.18,1.79-1.18,2.85s.43,2.1,1.18,2.85c.75.75,1.79,1.18,2.85,1.18"/>
      <path class="cls-2" d="M93.71,229.8c1.06,0,2.1-.43,2.85-1.18.75-.75,1.18-1.79,1.18-2.85s-.43-2.1-1.18-2.85c-.75-.75-1.79-1.18-2.85-1.18s-2.1.43-2.85,1.18c-.75.75-1.18,1.79-1.18,2.85s.43,2.1,1.18,2.85c.75.75,1.79,1.18,2.85,1.18"/>
      <path class="cls-2" d="M135.32,229.8h.02c2.23,0,4.04-1.81,4.04-4.04s-1.81-4.04-4.04-4.04h-.02c-2.23,0-4.04,1.81-4.04,4.04s1.81,4.04,4.04,4.04Z"/>
      <path class="cls-2" d="M114.51,229.8h.02c2.23,0,4.04-1.81,4.04-4.04s-1.81-4.04-4.04-4.04h-.02c-2.23,0-4.04,1.81-4.04,4.04s1.81,4.04,4.04,4.04Z"/>
      <path class="cls-2" d="M156.15,229.8c1.06,0,2.1-.43,2.85-1.18.75-.75,1.18-1.79,1.18-2.85s-.43-2.1-1.18-2.85c-.75-.75-1.79-1.18-2.85-1.18s-2.1.43-2.85,1.18-1.18,1.79-1.18,2.85.43,2.1,1.18,2.85,1.79,1.18,2.85,1.18"/>
      <path class="cls-2" d="M93.71,246.38c1.06,0,2.1-.43,2.85-1.18.75-.75,1.18-1.79,1.18-2.85s-.43-2.1-1.18-2.85c-.75-.75-1.79-1.18-2.85-1.18s-2.1.43-2.85,1.18c-.75.75-1.18,1.79-1.18,2.85s.43,2.1,1.18,2.85c.75.75,1.79,1.18,2.85,1.18"/>
      <path class="cls-2" d="M135.32,246.38h.02c2.23,0,4.04-1.81,4.04-4.04s-1.81-4.04-4.04-4.04h-.02c-2.23,0-4.04,1.81-4.04,4.04s1.81,4.04,4.04,4.04Z"/>
      <path class="cls-2" d="M114.51,246.38h.02c2.23,0,4.04-1.81,4.04-4.04s-1.81-4.04-4.04-4.04h-.02c-2.23,0-4.04,1.81-4.04,4.04s1.81,4.04,4.04,4.04Z"/>
      <path class="cls-2" d="M156.15,246.38c1.06,0,2.1-.43,2.85-1.18.75-.75,1.18-1.79,1.18-2.85s-.43-2.1-1.18-2.85c-.75-.75-1.79-1.18-2.85-1.18s-2.1.43-2.85,1.18c-.75.75-1.18,1.79-1.18,2.85s.43,2.1,1.18,2.85c.75.75,1.79,1.18,2.85,1.18"/>
    </g>
  </g>
</svg>