<?xml version="1.0" encoding="UTF-8"?>
<svg id="AHxyVof690" xmlns="http://www.w3.org/2000/svg" version="1.1" xmlns:xlink="http://www.w3.org/1999/xlink" viewBox="0 0 429.5 429.5">
  <!-- Generator: Adobe Illustrator 29.3.1, SVG Export Plug-In . SVG Version: 2.1.0 Build 151)  -->
  <defs>
    <style>
      .st0 {
        fill: #fff;
      }

      .st1 {
        fill: #6bd425;
      }

      .st2 {
        fill: #000005;
      }
    </style>
  </defs>
  <g id="book">
    <rect class="st0" x="147.6" y="15.8" width="240.6" height="336.7"/>
    <path class="st1" d="M389.5,14.3h-230.9c-3.1,0-6.3,0-9.4,0h-.4c-1,0-3.5,1-3.5,2.3v323.1c0,4.4-.1,8.7,0,13.1v.6c0,.6.6.7,1.1.7h230.8c3.1,0,6.3.1,9.4,0h.4c1,0,3.5-1,3.5-2.3V28.7c0-4.4.1-8.7,0-13.1v-.6c0-1.7-4.6,0-4.6,1.6v323c0,4.4-.2,8.8,0,13.1v.6l3.5-2.3h-237c-1.1-.1-2.2-.1-3.2,0h-.4l1.1.7V28.7c0-4.3.2-8.7,0-13.1v-.6l-3.5,2.3h230.8c3.1,0,6.3,0,9.4,0h.4c1.2,0,2.4-.7,3.2-1.6.6-.8.3-1.4-.7-1.4Z"/>
    <rect class="st0" x="164.5" y="267.1" width="207.3" height="73.7"/>
    <path class="st1" d="M371.3,265h-198.9c-2.7,0-5.4-.1-8.1,0h-.4c-.9,0-2,.7-2,1.7v73.7c.1,1.5,1.3,2.7,2.8,2.6h198.9c2.7,0,5.4.1,8.1,0h.4c.9,0,2-.7,2-1.7v-73.7c0-1.3-1-2.4-2.2-2.6-1-.2-2.6.3-2.6,1.6v73.7l2-1.6h-198.9c-2.7,0-5.4-.1-8.1,0h-.4l2.9,2.6v-73.7l-2,1.7h198.9c2.7,0,5.4.1,8.1,0h.4c1.1,0,1.9-.8,2-1.8v-.4c-.4-1.3-1.6-2.1-2.9-2.1Z"/>
    <path class="st1" d="M248.8,296.6h41.1c1.1,0-.1-1.1-.4-1.3-1-.7-2.1-1-3.3-1.1h-41.1c-1.1,0,.1,1.1.4,1.3,1,.7,2.2,1.1,3.3,1.1h0Z"/>
    <rect class="st0" x="170.8" y="44.4" width="193.6" height="203"/>
    <path class="st1" d="M363.1,42.5h-193.5c-.2,0-.8,0-.8.4v203c0,1.3,1.8,3.3,3.2,3.3h193.5c.3,0,.8-.1.8-.5V45.9c-.1-1.1-.8-2.1-1.7-2.7-.3-.2-2.2-1.2-2.2-.2v200c-.1.9-.1,1.8,0,2.7v.3l.8-.5h-185.8c-2.5,0-5-.1-7.5,0h-.3l3.2,3.3V48.8c.1-.9.1-1.8,0-2.7v-.3l-.8.4h193.5c1.1,0,.8-1.1.4-1.7-.5-.7-1.7-2-2.8-2Z"/>
    <path class="st0" d="M172.3,147.8c3.7,0,186.5-.9,190.2-.9"/>
    <path class="st1" d="M173.6,149.9h20c0-.1,20.3-.2,20.3-.2h24.7c0-.1,26.8-.2,26.8-.2h27.1c0-.1,25.3-.2,25.3-.2h21.6c0-.1,15.8-.2,15.8-.2h8.7c1,0,0-1.8-.2-2.1-.5-.7-1.4-2-2.4-2h-20c0,.1-20.3.2-20.3.2h-24.7c0,.1-26.8.2-26.8.2h-27c0,.1-25.3.2-25.3.2h-21.6c0,.1-15.8.2-15.8.2h-8.7c-1,0,0,1.8.2,2.1.4.7,1.3,2,2.3,2h0Z"/>
    <path class="st1" d="M181.4,67.7s21.6-2.8,28.6,0c0,0,.6,76.1,0,76.6s-28.4,1.4-28.6.6,0-77.2,0-77.2Z"/>
    <path class="st1" d="M182.4,70c7.3-1,14.6-1.4,21.9-1.1,2.1,0,4.2.4,6.3,1.1l-2.3-3.2v10.2c.2,7.7.2,15.4.2,23.1v25.2c0,5.5.1,10.9-.1,16.4v.9c0-.8.1,0,0,.1h0c-.2,0,.5-.7.6-.6-.3,0-.7,0-1,.1-3.3.3-6.7.4-10,.5-4.2.1-8.4.2-12.5.2h-3.2c-.3,0-.9-.1-.4,0h-.5q-.1-.1-.2-.1h-.1c.4-.1,1.2,1.2,1.2,1.3.2.3,1.1,1.3,1,1.6v-.2c0-4.3-.1-8.6-.1-12.9v-24.3c0-8.2,0-16.4.1-24.7v-14.9c-.1-1.3-.8-2.4-1.9-3-1-.5-1.7,0-1.7,1.1v34.4c-.1,8.5-.1,17.1-.1,25.6s0,10.7.1,16c0,2,.8,4.2,3.1,4.5,3.3.3,6.6.3,9.9.1,4.3-.1,8.6-.2,12.9-.4,1.4-.1,2.9-.1,4.3-.3.8-.1,1.7-.1,2-1,.2-1.3.3-2.6.2-3.9,0-2.6.1-5.3.1-7.9v-24.2c0-8.5,0-16.9-.1-25.4v-14.9c-.1-.2-.1-.5-.1-.7-.1-1.4-1-2.6-2.4-3.2-4-1.5-8.8-1.3-13-1.2-4.4,0-8.8.4-13.2.9-1,0-1.9.2-2.9.3-2.1.3,0,4.7,1.9,4.5Z"/>
    <path class="st0" d="M220.2,59.5s17.3,0,17.3,1.1-8.1,84.3-10.4,85.3-15.1,0-15.1,0l8.2-86.4Z"/>
    <path class="st1" d="M219.7,61.6c4,0,8,0,12,.3,1.1,0,2.2,0,3.2.2h.6c.6.2-.3,0,0,0,.1,0,.2,0,.4,0,0,0,.1,0,.1,0-.4,0-.7-.7-.8-.8-.3-.5-.5-.5-.4-1.1v.2c0,.3,0,.6-.1.9-.6,6.8-1.3,13.7-2,20.5-1.1,10.7-2.2,21.3-3.5,32-1,8.7-2,17.5-3.4,26.1-.2,1.2-.4,2.3-.7,3.5-.1.4-.2.8-.3,1.1s0-.1,0-.1c0,.1-.1.2-.1.3.5-.8.4-.6.3-.4.3-.3.6-.5,1-.7h-.2c.4,0,.4,0,0,.1h-.8c0,.1-.4.1-.4.1-.4,0,.4,0,0,0h-3c-2.7,0-5.3-.2-8-.4h-1.4c0-.1,1.9,2.2,1.9,2.2l.8-8.6,2-20.7,2.3-24.9,2-21.5c.3-3.5.7-7,1-10.5v-.2c.3-3-4.5-2.9-4.8-.2l-.8,8.6-1.9,20.7-2.3,24.9-2,21.5c-.3,3.5-.7,7-1,10.5h0c-.1,1.2.6,2.2,1.7,2.3h.2c4.7.5,9.5.6,14.2.3,1.6-.2,3.1-.7,3.8-2.2.4-.9.6-1.9.8-2.9,1.6-8,2.4-16.2,3.4-24.3,1.3-11.1,2.6-22.2,3.7-33.4.8-7.6,1.6-15.3,2.3-22.9,0-.6.1-1.2.2-1.8.2-2.2-1.7-2.6-3.5-2.8-4.8-.5-9.7-.7-14.5-.6h-1c-1.3,0-2.5.8-2.9,2-.2,1,.5,2.1,1.6,2.2,0,.3.2.3.3.3Z"/>
    <path class="st0" d="M221.7,60.7s11,1.2,14.3,0c0,0-9.6,85.9-11.2,86.5s-11.4.3-11.4-.9,8.3-85.6,8.3-85.6Z"/>
    <path class="st1" d="M222.2,62.5c2.1.2,4.1.4,6.2.5,3,0,6.3.4,9.1-.6l-3.9-2.3c-.3,3-.7,6.1-1,9.1-.8,7.2-1.7,14.5-2.5,21.7-1,8.6-2,17.2-3.1,25.8-.9,7.1-1.8,14.3-2.9,21.4-.3,2.1-.6,4.3-1.1,6.4-.1.3-.1.6-.2,1s.1-.4,0,0c0,.1-.1.2-.1.3s-.2.3-.1.3c.1-.1.2-.2.2-.3l.3-.2s.4,0,.2-.1c-.4,0-.7.1-1,.1-2.1.1-4.2.1-6.3-.2h-.7c-.1-.1-.7-.2-.4-.2s-.3-.1-.4-.1c-.5-.1,0,0,0,0,.2.1,1.4,1.3,1.2,1.7h0c.2-1.3.3-2.6.4-3.9.6-6.1,1.2-12.3,1.8-18.4.8-8.5,1.7-17,2.5-25.5.8-8,1.6-16,2.4-23.9.4-4.4.9-8.8,1.3-13.2v-.6c.3-2.1-4.4-3.7-4.6-1.3l-1,9.7c-.7,7.6-1.5,15.2-2.3,22.8-.9,8.8-1.7,17.6-2.6,26.3-.7,6.9-1.3,13.8-2,20.7-.2,1.7-.3,3.5-.5,5.2-.1.4-.1.8,0,1.3.5,2.3,3.8,2.7,5.7,2.9,2.3.3,4.7.4,7,.2,1.1,0,2.8,0,3.4-1.1.5-1.3.8-2.6.9-4,1.1-6.1,1.8-12.3,2.6-18.4,1.1-8.6,2.2-17.3,3.2-25.9,1-8.1,2-16.2,2.9-24.3l1.5-13.5c0-.2,0-.4.1-.6.2-1.8-2.6-2.8-3.9-2.3h-.3c.2,0,.1,0,0,0-.3,0-.6,0-.8,0-.7,0-1.3,0-2,.2-1.4,0-2.9,0-4.4,0-1.9,0-3.8-.2-5.6-.4-1,0-2.1.5-1.8,1.6.3,1.2,1.3,1.9,2.6,2Z"/>
    <path class="st1" d="M237.4,61.3s13.7-3.3,23.9,0c0,0,.3,82.9,0,84.1s-24.2,1.5-23.9.4,0-84.5,0-84.5Z"/>
    <path class="st1" d="M238.7,63.4c7.5-1.8,16.1-2.4,23.5,0l-2.6-3.4v34.7c.1,9,.1,18,.1,27.1s0,12.8-.1,19.2v2.8c0,.4-.1.2,0-.1s.1-.2.1-.2c0,0,.3-.1,0,0s-.4.1-.6.1c-.7.1-1.3.2-2,.2-1.9.2-3.9.3-5.8.3-4.1.2-8.2.2-12.3,0-.6,0-1.1-.1-1.7-.2-.4,0-.5-.2-.1,0-.2-.1.5.3.4.2s1.6,3.2,1.6,3.2c0-.1.1-.3.1-.4v-1.1c.1-5.3.1-10.6.1-16v-26.2c0-8.6,0-17.2-.1-25.8v-15.1c-.1-1.2-.7-2.3-1.8-3-.6-.4-1.9-.9-1.9.3v10.8c0,8.3,0,16.6.1,24.8v27.4c0,6.3,0,12.6-.1,18.9v2.5c0,.2.1-.3.1-.3-.1.7.1,1.4.4,2,.8,1.4,2.4,2.3,4.1,2.3,1.9.2,3.7.2,5.6.2,4.4,0,8.8,0,13.1-.4,1.1-.1,2.8,0,3.7-.6.5-.3.5-.8.5-1.3.3-4.9.1-9.8.1-14.6v-26.4c0-8.8,0-17.6-.1-26.5v-16.1c-.1-1.6-1.2-2.9-2.6-3.4-5.2-1.5-10.6-1.9-16-1.3-2.8.2-5.6.6-8.3,1.2-1.8.5.9,4.6,2.5,4.2Z"/>
    <path class="st0" d="M261.5,67.7s13.6-2.8,18,0c0,0,.4,76.1,0,76.6s-17.9,1.4-18,.6,0-77.2,0-77.2Z"/>
    <path class="st1" d="M263.4,69.3c2.2-.4,4.4-.8,6.6-1,1.9-.2,3.7-.3,5.6-.2.8,0,1.6,0,2.5.2l.9.2c.1,0,.2,0,.4,0-.4,0,.3.2-.2-.2l-1.6-1.9c0,10.2.1,20.4.1,30.5s.1,28.1,0,42.1v2.5c-.1.4-.1.9,0,1.3h0c-.2,0,.2,0,.2-.3,0,.1-.5.1-.7.1-1.6.2-3.2.3-4.8.4-3.7.3-7.3.4-11,.2h-.4q.3,0,.1,0h-.2c1.2.5,3.2,0,3,2.5v-1.8c-.1-13,0-26,0-38.9v-35.8c.1,0,.1-.6.1-.6,0-1.4-4.3-3.6-4.3-2.2v62.1c0,4.9-.2,9.8.1,14.6.2,1.3,1.1,2.3,2.3,2.8,1.4.6,2.9.8,4.5.7,4.2,0,8.4-.2,12.6-.6.7-.1,2.5.1,3-.6.2-.3.1-.9.1-1.2.1-2,.1-4,.1-6v-23c0-8.9,0-17.9-.1-26.8,0-6,0-12-.1-18v-1.6c-.1-1.7-2.2-2.7-3.6-3.2-4.5-1.8-10.1-1-14.9-.3-1.2.2-2.4.4-3.6.6-1,.2.6,1.8.8,2,.5.9,1.5,1.3,2.5,1.3Z"/>
    <path class="st0" d="M224,167.2s22.6.1,22.6,1-10.6,77.8-13.5,78.7-19.7,0-19.7,0l10.6-79.7Z"/>
    <path class="st1" d="M224.4,168.8c3.7,0,7.5.1,11.2.2,2.6.1,5.1.1,7.7.3h.8c0,.1-.2.1-.2.1h.3c.4,0,.7.1,1.1.1s.7.2.1,0c-.3-.1-1.6-1.3-1.3-1.6-.2.2-.2,1.4-.2,1.7-.2,1.2-.3,2.4-.5,3.7-.6,4-1.1,8-1.7,12-1.6,10.8-3.2,21.6-5,32.4-1.4,8.5-2.6,17.2-4.9,25.5-.1.5-.3,1.1-.5,1.6l-.2.6c.2-.5,0-.1-.1.1-.1.1-.1.2-.2.3h-.1c0-.1.4-.3.6-.4s.6-.1.2-.1-.3,0-.5.1c-.6.1.3,0-.2,0h-.9c-5.3.3-10.6.2-15.9-.2h-1.3c0-.1,2.9,2,2.9,2l3.6-27.1,5.7-42.8,1.3-9.8c.3-2.2-4.6-3-4.9-.8l-3.6,27.1-5.7,42.9-1.3,9.8c-.2,1.5,1.8,2,2.9,2.1,4.6.3,9.3.4,14,.4s2.6,0,3.9-.1c1,0,2-.2,3-.5.9-.5,1.4-1.4,1.6-2.4.9-2.9,1.6-5.8,2.1-8.8,1-4.8,1.8-9.6,2.6-14.5,1.9-11.3,3.6-22.6,5.3-34,.7-4.4,1.3-8.8,1.9-13.1.3-2.2.7-4.4.9-6.6.1-1.7-1.5-2.3-2.9-2.6-2.2-.3-4.4-.5-6.6-.5-5-.2-10-.3-14.9-.3h-1c-1,0-2.3.6-2,1.7s2,1.5,2.9,1.5Z"/>
    <path class="st0" d="M226,168.3s14.4,1.1,18.7,0c0,0-12.5,79.3-14.6,79.8s-15,.3-15-.8,10.9-79,10.9-79Z"/>
    <path class="st1" d="M226.4,170.6c2.6.2,5.2.3,7.9.4,3.7.1,7.7.4,11.3-.4l-2.9-3.1c-1.6,9.9-3.2,19.8-4.8,29.7-2.4,14.5-4.7,28.9-7.9,43.3-.3,1.8-.8,3.5-1.3,5.2-.1.2-.2.4-.2.7-.1.4.4-.4,0,0s.5-.4.3-.3c.2-.1.5,0,.3-.1s-.6.1-.7.1c-.9.1-1.5.1-2.3.1-2.2,0-4.4,0-6.5-.2-.9-.1-1.8-.1-2.7-.2l-1-.2h-.2q.3.1.1,0c-.1.1-.8-.6.1.1,3,2.4,1.1,3.4,1.3,2.3,0-.2,0-.4.1-.6.1-.6.2-1.3.2-2,1.8-13.5,3.7-26.9,5.6-40.4,1.6-11.8,3.3-23.5,4.9-35.3v-.6c.4-2.3-3.5-4.7-3.9-1.6s-.9,6.2-1.3,9.4c-1,7.3-2,14.5-3,21.8-1.2,8.3-2.3,16.5-3.5,24.8-.9,6.2-1.7,12.5-2.6,18.7-.2,1.4-.4,2.7-.5,4.1-.3,3.8,4.1,4.1,6.9,4.3,2.2.2,4.4.2,6.7.2s2,0,2.9-.1c.6,0,1.3-.1,1.9-.4,1-.6,1.3-2.3,1.5-3.3,1.5-5.5,2.4-11,3.4-16.6,1.5-8.1,2.9-16.3,4.3-24.4,1.3-7.7,2.6-15.4,3.8-23.1.7-4.3,1.4-8.7,2.1-13,0-.2.1-.4.1-.6.2-1.4-1.4-3.5-2.9-3.1-3.4.8-7.1.5-10.6.4-2.5-.1-5.1-.2-7.6-.4-2.9-.4-1.5,4.3.7,4.4Z"/>
    <path class="st1" d="M246.6,168.9s17.9-3.1,31.2,0c0,0,.4,76.6,0,77.6s-31.6,1.4-31.2.4,0-78,0-78Z"/>
    <path class="st1" d="M247.4,171.2c3.3-.5,6.6-.9,10-1.1,6.6-.4,13.5-.4,20,1l-1.9-2.4c0,4.6,0,9.1.1,13.7,0,9.8.1,19.6.1,29.4v26.8c0,2.3,0,4.6-.1,6.9v.4c0-.2.1-.6,0-.3h0c.2-.4.5-.9.9-1.2-.2.1.6-.1.3-.1-.5,0-1,.1-1.4.2h-1c0,.1-.5.1-.5.1h-.3c-4.7.3-9.5.4-14.2.4s-7.8.1-11.7-.3c-.5,0-.5-.1-.1,0-.6-.2.7.5.8.5l.7,1.1c.1.1-.3,2.9.1,1.1h0c0-.4.1-.8.1-1.1v-26c0-14,0-27.9-.1-41.8v-9.6c0-2.9-4.7-3.4-4.7-.3v10.9c.1,8.3.1,16.5.2,24.8v26.2c0,5.2,0,10.3-.1,15.5,0,.8.1-.4,0,0h0c.2-.5.1-.5,0,.1-.1.4,0,.8.1,1.2.5,1.7,2.2,2,3.7,2.2,3.4.3,6.9.3,10.3.3s8.8-.1,13.1-.3c1.7-.1,3.4-.2,5.1-.4,1.1,0,2.1-.3,3-.9,1-1,.7-3.1.7-4.4,0-2.6.1-5.2.1-7.9v-24.6c0-8.7,0-17.5-.1-26.2,0-5.2,0-10.3-.1-15.5v-.8c-.1-1.1-.9-2-1.9-2.4-7-1.4-14.1-1.8-21.2-1.3-3.8.2-7.5.6-11.2,1.2-3.4.8-1.6,5.4,1.2,4.9Z"/>
    <path class="st0" d="M278.1,174.8s17.8-2.6,23.6,0c0,0,.5,70.3,0,70.7s-23.3,1.3-23.6.6,0-71.3,0-71.3Z"/>
    <path class="st1" d="M278.7,176.5c3-.4,6.1-.7,9.2-.9,2.4-.2,4.8-.2,7.2-.2s2.3.1,3.4.3c.6.1-.1,0,.4.1h.6c0,.1.6.3.6.3.4.1-.3-.1.3.1l-1.1-1.5c.1,10,.1,20,.1,29.9s.2,25.8,0,38.7v2c-.1-.4.8-1.1,1.3-1.2-.3.1.8-.1.2,0-2.9.2-5.8.4-8.7.5-1.9.1-3.8.1-5.8.2h-2.1c.6,0-.2,0-.2,0h-4.8c-.6,0-.4-.1,0,0,.6.2,1.5,1.1,1.5,1.5v-.5c-.4-11.7-.1-23.4,0-35s0-23.4.1-35v-.6c0-2.3-5-2.6-5-.4,0,10.4,0,20.7-.1,31.1,0,12.9-.1,25.8,0,38.6v1.3c.1,1.2.9,1.8,2,2.1,1.2.2,2.4.3,3.6.3h5.6c3.9-.1,7.8-.2,11.6-.4,1.6-.1,5.4.2,5.7-2,.1-1.2.2-2.4.1-3.6v-30c0-12.1-.1-24.2-.2-36.3v-.6c0-.7-.5-1.3-1.1-1.5-4.7-2-10.5-1.6-15.4-1.3-3.4.2-6.7.5-10,1-1,.1-2.2.7-1.9,1.9s1.9,1.2,2.9,1.1Z"/>
    <path class="st1" d="M302,170.3s14.1-2.7,18.7,0c0,0,.4,75,0,75.4s-18.5,1.4-18.7.6,0-76,0-76Z"/>
    <path class="st1" d="M303.4,172.1h.6c0-.1.3-.1.3-.1.4-.1-.3,0,0,0h1c1.7-.4,3.3-.6,5-.7,2-.2,3.9-.3,5.9-.2.8,0,1.5.1,2.3.3.2,0,.5.1.7.1-.3-.1,0,0,.1.1l.5.2c.5.2-.4-.2.1.1l-1.5-2.2c0,10.1.1,20.2.1,30.3s.1,27.6,0,41.4v2.4c-.1.4-.1.8,0,1.2h0c-.2-.3.8-.8.7-.8-.4.2.4,0,0,0h-.8c-1.7.3-3.3.4-5,.5-3.6.2-7.3.4-10.9.2-.5,0,.5.1.1,0h-.2c-.2.1-1-.3.1.1.8.5,1.4,1.2,1.9,1.9-.1-.3,0,.6,0,.3v-1.4c-.1-12.8,0-25.6,0-38.5s0-23.6.1-35.4v-.6c-.1-1.2-.9-2.2-2.1-2.5-.7-.3-2.5-.4-2.5.8l-.3,31.2c0,13.9-.1,27.9,0,41.8-.1,1.1-.1,2.3.1,3.4.7,3.4,6.4,2.6,8.8,2.6,3.8-.1,7.6-.2,11.4-.6.9-.1,2.5,0,3-.9.2-.4.2-.8.2-1.2.2-4.6.1-9.2.1-13.8v-23.5c0-12.2,0-24.5-.1-36.7v-.6c-.1-1-.6-1.8-1.5-2.2-3.7-2.1-8.5-1.9-12.5-1.5-2.8.2-5.6.6-8.4,1.1-1.2.2-.9,1.7-.4,2.4.7.7,1.9,1.2,3.1,1Z"/>
    <path class="st0" d="M200.2,166.6s22.6.1,22.6,1-10.6,77.8-13.6,78.7-19.7,0-19.7,0l10.7-79.7Z"/>
    <path class="st1" d="M199.7,167.8c3.7,0,7.4.1,11.2.2h3.6c1.2.1,2.4.2,3.6.3.9,0,1.7.2,2.6.2s-.1-.1-.1,0,.2.1.3.1c-.2-.1-.5-.3-.6-.5.1.1.1-.2,0-.1v1.4c-.2,1.2-.4,2.4-.6,3.6-.5,4-1.1,7.9-1.7,11.9-1.6,10.8-3.2,21.6-4.9,32.4-1.4,8.6-2.6,17.3-4.9,25.7-.2.9-.5,1.9-.9,2.8-.1.1-.1.2-.2.4.2-.4.2-.2,0,0,.2-.2,1.5-.8,1.2-.7s.6,0,.1,0-.6.1-.1,0h-.9c-5.2.3-10.4.2-15.6-.1h-1.2c0-.1,1.4,1,1.4,1l3.6-27.1,5.7-42.8,1.3-9.8c.2-1.9-4.7-1.3-4.9.2l-3.6,27.1-5.7,42.8-1.3,9.8c-.1.8.7,1.1,1.4,1.1,4.8.3,9.6.5,14.3.4,2.4,0,5,.1,7.3-.6,1.1-.3,2-1.2,2.3-2.3.9-2.8,1.6-5.8,2.1-8.7,1-4.8,1.8-9.6,2.6-14.4,1.9-11.3,3.6-22.6,5.3-33.9,1-6.7,2-13.4,2.8-20.2.1-1.3-1-1.5-2.1-1.7-2-.3-4.1-.4-6.1-.4-5.1-.2-10.2-.3-15.3-.3h-1c-.8,0-2.6.4-2.9,1.3s1.3.9,1.9.9Z"/>
    <path class="st0" d="M202.1,167.8s14.4,1.1,18.7,0c0,0-12.5,79.3-14.6,79.8s-15,.3-15-.8,10.9-79,10.9-79Z"/>
    <path class="st1" d="M200.9,169.3c2.7.2,5.3.3,8,.4,3.9.1,8,.3,11.8-.6l-2.2-.7c-1.6,9.9-3.2,19.8-4.8,29.7-2.4,14.6-4.7,29.2-7.9,43.7-.2,1-.4,2-.7,3-.1.4-.2.8-.3,1.2s.1-.3-.1.2c-.1.2-.1.3-.2.5s-.2.4-.2.7c-.2.5-.1.2,0,0,.5-.6,1.2-1,2-1.2.7-.2.4-.1.2,0s-.6.1-.9.1c.4,0-.6,0-.8,0h-1.6c-2.2,0-4.4,0-6.5-.2-.8-.1-1.7-.1-2.2-.2l-.8-.2c-.4-.1,0,0,0,0h-.1c.1,0,.2.2.2.3.1-.1.1-.7.1-.8.1-.6.2-1.3.2-2,1.8-13.5,3.7-26.9,5.6-40.4,1.6-11.7,3.3-23.5,4.9-35.3v-.6c.3-1.7-4.3-.3-4.5,1.4l-1.3,9.4c-1,7.3-2,14.5-3.1,21.8-1.1,8.3-2.3,16.5-3.4,24.8-.9,6.2-1.7,12.5-2.6,18.7-.2,1.3-.5,2.7-.5,4.1s.3,1.1,1.1,1.4c1.7.5,3.5.7,5.2.7,2.2.1,4.4.2,6.6.1,1.8,0,3.9,0,5.5-1,1.4-.9,1.7-2.5,2.1-4,1.4-5.4,2.4-11,3.4-16.5,1.5-8,2.9-16.1,4.2-24.1,1.3-7.7,2.6-15.4,3.8-23.1.7-4.3,1.4-8.7,2.1-13,0-.2.1-.4.1-.6.2-1.1-1.7-.8-2.2-.6.7-.2-.3,0-.5.1-.4.1-.8.1-1.2.1-.6.1-1.4.1-2.2.1-2.1,0-4.1,0-6.2-.1-2.5-.1-5-.2-7.4-.4-1.2,0-2.4.5-3.2,1.5-.9.8-.5,1.5.5,1.6Z"/>
    <path class="st0" d="M320.9,170.5s14.1-2.7,18.7,0c0,0,.4,75,0,75.4s-18.5,1.4-18.7.6,0-76,0-76Z"/>
    <path class="st1" d="M320.8,172.5c2.4-.5,4.8-.8,7.2-1,1.9-.2,3.7-.2,5.6-.1.8,0,1.6.1,2.4.2.4.1.7.2,1.1.3.3.1.6.2.8.3l-.6-1.3c0,10.1.1,20.2.1,30.3s.1,27.6,0,41.4c-.1,1.2-.2,2.4-.1,3.5h0c.1-.9.8-1.8,1.8-2.1,1.1-.5.6-.1.4-.1-.5,0-1,.1-1.5.2h-.5c-.6.1.5,0-.1,0h-1.2c-.9.2-1.9.2-2.8.3-3.5.3-7.1.3-10.7.2-.2,0-.4,0-.6-.1.7.1.4.1.2,0,.2.1.4.3.6.5.1.2.2,1,.2.7v-1.4c-.1-12.8,0-25.6,0-38.4s0-23.6.1-35.4v-.6c0-2.9-4.6-1.4-4.6.9v31.2c-.1,13.9-.2,27.9-.1,41.8-.1,1.2-.1,2.3.1,3.5.3,1.3,1.9,1.3,2.9,1.4,1.6.1,3.3,0,5,0,3.8-.1,7.7-.2,11.5-.7,2.1-.2,3.9-1.2,4-3.5.2-4.6.1-9.2.1-13.8v-23.5c0-12.2,0-24.5-.1-36.7v-.6c0-.5-.2-1-.6-1.3-3.5-2-8.1-1.6-11.9-1.3-2.8.2-5.6.6-8.4,1.1-1.3.2-2.2,1.2-2.5,2.4,0,1.4,1.1,1.9,2.2,1.7Z"/>
    <path class="st0" d="M260.9,177s-7.3,2-4.1,9.1,11,3.9,12.5-.9-5.4-9.8-8.4-8.2Z"/>
    <path class="st1" d="M262,175.4c-2.5.7-4.7,2.1-6.4,4-1.2,1.3-1.8,3-1.8,4.8.1,2.1.9,4.1,2.3,5.6,2.9,3.1,7.2,2.3,10.5.2s6.1-5.8,4.5-9.7c-.9-1.9-2.3-3.4-4.1-4.4-1.9-1.1-4.2-1.2-6.1-.2-.7.4-2.2,1.3-2.1,2.3s1.8.3,2.1.1h-.3c.3,0-.2.2-.2.2,0,0,.7,0,.1,0h.9c-.3,0,.2,0,.2.1h.5c.3.2.7.4,1,.5,1.3.7,2.5,1.7,3.3,3,.4.6.7,1.2.9,1.9.1.4.1.7.1,1.1v.5c0,.1,0,.3-.1.4-.1.3-.2.6-.4.9s.2-.3,0,.1l-.3.5c0,.1-.1.1-.1.2-.2.2.1,0,.1-.1,0,.1-.3.3-.3.4h-.1c-.2.3.4-.2.2,0l-.4.4c-.3.3.5-.4,0,0h-.2c-.2.3,0,0,.2,0-.1,0-.3.2-.4.2-.4.2.5-.2-.1,0-.1.1-.3.1-.5.2,0,0,.5-.1.1,0h-.7c0,.1-.1.1-.1.1.3,0-.1,0-.1,0h-1.1c-.2,0,.2,0,0,0s-.4-.1-.5-.1c-.6-.2-1.2-.5-1.7-.9-1.3-1.2-2.2-2.7-2.5-4.4-.2-.7-.2-1.5-.2-2.2s.1-.5,0-.2c0-.1.1-.3.1-.4s.1-.3.1-.4.3-.5,0-.1l.2-.4c0-.1.1-.1.1-.1.2-.3-.3.4-.1.1l.3-.3c.4-.4-.4.4,0,0l.3-.2c-.6.6-.3.2-.1.1l.3-.2c-.8.5-.4.2-.1.1h.3c.4-.3-.2,0-.2,0l.5-.2h.3c.3-.2-.6,0-.4,0,1.2-.3,2.2-1,2.9-2,.6-1,.3-1.7-.7-1.4Z"/>
    <path class="st0" d="M303.7,78.4s-11,.9-14.3,0c0,0,9.6,66,11.2,66.4s11.5.2,11.5-.7-8.4-65.7-8.4-65.7Z"/>
    <path class="st1" d="M303,76.3c-1.9.2-3.8.3-5.6.3s-2.8,0-4.2,0c-.7,0-1.3,0-2,0h-.9c-.6-.2.4,0-.3-.2-1.1-.3-3.3,0-3.1,1.8,1.2,8.5,2.5,16.9,3.8,25.4,1.9,12.3,3.7,24.7,6.2,37,.2,1.4.6,2.7,1,4,.9,2.4,3.2,2.5,5.5,2.5s3.9-.1,5.8-.2c1.4-.1,3.3-.1,4.5-1s.8-2.1.7-3.3c-1.3-11.1-2.8-22.2-4.2-33.3l-3.9-30.2v-.5c-.3-1.3-1.3-2.2-2.6-2.3-1,0-2.6.6-2.4,1.9,1.1,8.2,2.1,16.4,3.2,24.6,1.5,12,3.1,24,4.6,36,.2,1.4.4,2.8.5,4.2,0,.3,0,.5.1.8-.3-.1.7-1.3.9-1.4-.4.2.5-.1-.2.1s-1.4.2-2.2.3c-1.6.1-3.3.2-4.9.1-.7,0-1.3-.1-2-.1h-.3c-.5,0,.6.2.2,0,.6.2,1,.5,1.4,1,0,0,.2.7.1.1-.1-.2-.1-.4-.2-.6-.2-.6-.3-1.3-.5-2-.5-2-.8-4-1.2-6,0-.2-.1-.8-.1-.6s-.1-.6-.1-.8l-.4-2.1c-.3-1.5-.5-3-.8-4.5-1.1-6.6-2.1-13.2-3.2-19.8-1-6.1-1.9-12.3-2.8-18.4-.5-3.4-.9-6.8-1.5-10.2,0-.2,0-.3-.1-.5l-3.1,1.8c3,.8,6.3.6,9.4.4,2.1,0,4.1-.2,6.2-.3,1,0,1.8-1,1.7-2,0,0,0-.3-.1-.4-.3-1-1.6-1.7-2.9-1.5Z"/>
    <polyline class="st0" points="297 146.1 286.1 76.9 305.7 76.5 315.8 145.3"/>
    <path class="st1" d="M299.5,146.3l-3.7-23.4-5.9-37.2-1.4-8.6-1.9.9,19.5-.4-3-1.4,3.4,23.2,5.5,37,1.2,8.5c.3,1.7,5.2,1.8,5,.5l-3.4-23.2-5.5-37-1.3-8.5c-.2-1.2-2.1-1.4-3-1.4l-19.3.4c-.4,0-2,.2-1.9.9l3.7,23.4,5.9,37.2,1.3,8.5c.3,1.7,5.2,1.8,5,.5h-.2Z"/>
    <path class="st0" d="M247.5,72.9v22c0,2.6,4.9,1.6,4.9-.8v-22c0-2.6-4.9-1.6-4.9.8Z"/>
    <path class="st0" d="M248.2,106.2c-.2,7.7-.1,15.5.2,23.2,0,.7,1.1,1.5,1.5,2,.4.4.8.8,1.3,1.2.2.2.4.3.6.4-.3-7.7-.4-15.4-.2-23.2,0-.6-1.1-1.6-1.5-2s-.8-.8-1.3-1.2c0,0-.6-.5-.6-.4h0Z"/>
    <path class="st0" d="M187.6,88.3c1.1.2,2.3-.2,3.1-1,.9-.7,1.7-1.6,2.4-2.4,1.6-1.6,2.7-3.5,3.2-5.7.2-1,.2-2-.1-3-.8-1.5-2.1-2.7-3.8-3.1-1-.4-2.1,0-2.6.9-.4,1-.5,2-.4,3,.1,2.1.8,4.1,2.1,5.9,1.5,2.3,3.8,4.1,6.5,4.9,2.5.7,4.4-1.6,5.2-3.7.4-1.1.7-2.2.7-3.3-.1-1.4-1-2.7-2.2-3.4-1.1-.7-3.1-1.5-4.2-.2-.8,1-.5,2.4-.1,3.5.9,2.7,2.8,4.9,5.2,6.3.5.3,2.1,1.3,2.6.6s-1.2-1.9-1.6-2.1l-.4-.3c.4.2,0,0,0,0-.2,0-.3-.3-.4-.4-.4-.5-.7-1-.9-1.5-.3-.6-.4-1.3-.4-2s0-.7.2-1,.4-.4.6-.6l-2.7-1.5h0v.6c0,.4,0,.8-.1,1.2-.1.7-.3,1.5-.7,2.1-.3.7-.7,1.3-1.2,1.8-.2.3-.5.5-.8.7-.1,0-.3.2-.4.2-.2.2-.3,0-.1.2l.4.2h-.2c.2.2,0,0-.1-.2-.3-.2.2.2-.1,0-.1,0-.2-.2-.3-.3-.3-.4-.6-.8-.9-1.3-.7-1.2-1-2.5-1.1-3.8-.1-.7,0-1.3.1-2,0-.3.1-.5.2-.7.5-.9,1.1-.2-.8-1.3-1.8-1-1.4-1.1-1.2-.3v1c0,.7-.2,1.5-.5,2.2-.7,1.5-1.6,2.9-2.8,4.1-.6.6-1.2,1.2-1.8,1.8-.4.3-1.2,1.3-1.9,1.2-.3,0-.8,0-1,.2s.1.7.3,1c.7,1,1.8,1.6,3,1.9v-.3Z"/>
    <path class="st0" d="M306.7,188.6c.5,2.2,2.5,3.8,4.7,3.9,1.3-.2,2.5-.7,3.5-1.6.8-.6,2.1-1.6,2-2.7-.2-2.9-5.4,1-6.1,1.6-1.9,1.5-3.3,3.5-4.2,5.7-.9,2.4-.9,4.7,1.7,5.8s5.2-.5,6.9-2.3c.7-.6,1-1.4,1-2.3-.1-.8-.8-1.4-1.6-1.3-.1,0-.2,0-.3.1-2.7.7-4.9,2.5-6,5-2.3,5.6-.6,11.9,1.6,17.3.2.4,4.5-1.8,4.1-2.8-1.3-3.1-2.2-6.3-2.5-9.6-.2-1.6-.1-3.3.3-4.9.2-.8.4-1.6.7-2.4.1-.3.3-.6.5-.9.6-.8,0-.4-1.8,1.3.2,0,.4.1.5.3.5.5.2,1,.2,1.5,2.5-1.1,3.2-1.6,2.1-1.4h-.6c-.4,0-.7-.1-1.1-.3-1.5-.4-2.5-2-2.1-3.5.2-1.5.8-2.9,1.7-4.1.4-.6,1.1-1.1,1.5-1.7l-1.4.9c.3,0,.5.1.6.4.2.2.2.7,0,.9l2-1.5c.7-.4-.4-.4-.8-.5-.6-.2-1.1-.5-1.5-.9-.7-.7-1.3-1.6-1.5-2.6-.1-.2-4.4,1.6-4.1,2.8v-.2Z"/>
    <path class="st1" d="M286.7,224.9l-.6.6c-.2.2-.3.5-.5.8-.2.5-.3,1.1-.3,1.6v.3c.1.3.1.5.2.8,0,.1.1.2.1.3.1.2.3.5.5.7.4.4.9.7,1.5.9.1,0,.2.1.4.1.3.1.6.1.9.1,1.1,0,2.2-.4,3.1-1.1.4-.3.7-.6.9-1,.3-.5.6-1,.8-1.6.1-.2.1-.4.1-.7.1-.4.1-.8,0-1.2-.1-.4-.2-.8-.4-1.1-.2-.3-.4-.7-.7-.9-.4-.4-.9-.6-1.5-.8-.6-.1-1.2-.1-1.8,0-.2,0-.4.1-.6.2s-.4.1-.6.3c-.6.3-1.1.7-1.5,1.2s-.6,1-.8,1.6c-.1.6-.1,1.2.2,1.7.3.5.7.9,1.3,1,.6.1,1.3.1,1.9-.2.6-.3,1.1-.7,1.3-1.3l.2-.5c.1-.4,0-.7-.1-1.1h0c0-.1.1.4.1.4v-.3.5-.3l-.2.5c0-.1.1-.2.1-.3l-.3.5c.1-.1.1-.2.2-.3l-.5.4c.1-.1.2-.2.3-.2l-.6.4c.1-.1.2-.1.4-.2l-.6.2c.1,0,.3-.1.4-.1h-.6c0,.1.4.1.4.1h-.6c.1-.1.2-.1.3,0l-.5-.2c.1.1.2.1.4.2l-.4-.3c.1.1.2.2.3.4l-.3-.5c.1.2.2.4.3.6v-.5.7-.6c0,.2-.1.5-.1.7l.2-.5c-.1.2-.1.3-.2.5l.3-.5-.3.3.5-.4c-.1.1-.3.2-.4.3l.6-.4c-.1.1-.3.1-.4.2l.6-.2c-.2.1-.3.1-.5.1h.6c-.1-.1-.3-.1-.4-.1h.6c-.2.1-.3.1-.5,0l.5.2c-.1,0-.2-.1-.3-.2l.4.3c-.1-.1-.2-.2-.3-.4l.3.5c-.1-.2-.2-.3-.2-.5v.5c.1-.2,0-.4,0-.5v.5c0-.1,0-.3.1-.4l-.2.5c0-.1.1-.2.1-.3l-.3.5c0-.1.1-.1.2-.2l-.5.4h0c.3-.2.5-.4.6-.7.5-.7.5-1.7-.1-2.3-.4-.4-1-.6-1.6-.6-.7.2-1.4.5-1.9.9h0Z"/>
    <path class="st1" d="M288.5,187.6c-.5.7-.9,1.4-1.2,2.1-.4.8-.4,1.7-.2,2.6.2.8.7,1.4,1.4,1.8,1.3.5,2.7.4,3.8-.4,1.5-1,2.6-2.6,2.8-4.4.2-1.5-.4-3-1.6-4-1.2-.7-2.8-.7-4,.1-.7.4-1.3,1-1.7,1.8-.3.5-.4,1.1-.2,1.7,0,.2.1.4.3.6.1.2.3.3.6.3.6.1,1.1,0,1.6-.2.6-.2,1.1-.7,1.5-1.2.2-.4.6-1,.5-1.4,0-.1-.1-.2-.1-.3v.4-.2.5c-.1-.1,0-.1,0-.2l-.3.5h.1c0-.1-.3.2-.3.2q.1-.1-.1.1c-.1.1-.3.2-.4.3-.2.1-.3.1-.2.1s-.7.2-.3.1h-.6c.1.1.2.1.2.1h-.5c.1-.1.3,0,.4,0l-.4-.2c.2.1.4.2.6.4l-.3-.3c.3.3.5.6.6,1v-.4c0,.4.1.9.1,1.3v-.4c0,.4-.1.7-.2,1.1l.2-.5c-.1.3-.2.5-.4.8l.3-.5-.2.3h-.1c-.1.3.5-.4.2,0h-.1c0,.1.6-.3.3,0h-.1c.2,0,.4,0,.6-.2.4-.1.1-.1,0,0h.6c0-.1-.2-.1-.2-.1h.5c-.1.1-.2,0-.4,0l.4.2c-.2-.1-.4-.2-.5-.4l.3.3c-.2-.2-.3-.4-.4-.7v.4-.7.4c0-.3.1-.5.1-.8l-.2.5c.1-.4.3-.8.6-1.2l-.3.5.4-.6c.3-.4.5-.9.5-1.4-.1-.4-.4-.8-.9-.9-.6-.1-1.1-.1-1.6.2-.6,0-1.1.5-1.5,1.1h0Z"/>
    <path class="st1" d="M225.5,215.8c-1.5,7.4-2.7,14.9-3.7,22.4-.1,1.1,1.7.7,2.2.5.9-.3,2.2-1.1,2.4-2.1,1-7.5,2.2-15,3.7-22.4.2-1.1-1.8-.6-2.2-.5-1,.3-2.2,1-2.4,2.1Z"/>
    <path class="st1" d="M269.2,109.9v24.8c0,.7,1.1,1.6,1.5,2s.9.8,1.3,1.2l.7.4v-24.9c0-.7-1.1-1.6-1.5-2s-.9-.8-1.3-1.2c0,.1-.7-.4-.7-.3h0Z"/>
    <path class="st0" d="M301.1,116.3l3.4,23.3"/>
    <path class="st1" d="M298.7,117.1l3.4,23.3c0,.3,4.8-.8,4.7-1.7l-3.4-23.3c0-.3-4.8.8-4.7,1.7h0Z"/>
    <path class="st0" d="M298.5,95.9c0,2.3.2,4.7.6,7"/>
    <path class="st1" d="M297.1,94.2c-.1,2.5.2,5,.7,7.4.1.6.3,1.2.6,1.7.2.5.6,1,1,1.5.2.2.6.5.9.4s.3-.7.2-.9c-.2-1.1-.4-2.3-.5-3.4,0-.3,0-.6-.1-.9v-.4c0-.1,0-.5,0-.1v-1.8c0-1.2-.5-2.3-1.3-3.2-.2-.3-.6-.7-1-.8s-.5.2-.5.5h0Z"/>
  </g>
  <g id="character">
    <path class="st0" d="M79.4,360.7s-5.6,11.9-4.8,30.1c.3,8.1-22.5,1.7-34.9-3.7s-25.3-7.4-29.4-12.3c-5-6,13-4.8,20.5-1.9s21.6-4.1,22.5-19.9,26.1,7.7,26.1,7.7Z"/>
    <path class="st2" d="M77.1,359.7c-1.9,4.5-3.3,9.3-4,14.2-.8,5.2-1.2,10.4-1.1,15.7v.9c0,1,0,.4,0,.2,0,.3,0,.5,0,.7,0-.6,0,0,0,.1.4-.5-.5.4,0-.1-.2.1-.3.2-.5.3-.4.3.4-.1,0,0,0,0-.2.1-.4.1l-.7.2c-.6.2.5-.1,0,0h-.6c-1.3.3-2.7.3-4,.1-1.9-.2-3.7-.5-5.5-.9-4-.9-7.9-2-11.7-3.3-4.2-1.5-8.2-3.3-12.4-4.9-5.1-1.9-10.4-3.5-15.6-5.3-2-.7-4-1.5-5.8-2.5-.6-.4-1.2-.7-1.7-1.2-.2-.1-.4-.3-.6-.6l-.4-.4c-.3-.3,0-.5,0-.2v-.3c0,0,0,.6,0,.3,0,.6-.2.4,0,.3.2-.4-.3.4,0,.2s.3-.2-.2.1c0-.1.2-.2.3-.2.4-.1,0,0-.2.1h.4c0-.1.8-.3.8-.3.4-.1,0,0,0,0h.5c.4-.2.8-.2,1.2-.2,3.3-.2,6.6,0,9.9.7.8.1,1.6.3,2.4.5l1,.2c-.4-.1,0,0,.2.1l.7.2c1.3.5,2.7.9,4.1,1.2,6.7.8,13.5-2.9,17.6-8.1,2.6-3.3,4.3-7.2,5-11.3,0-1.7.3-3.3.6-5-.2.6,0-.1,0-.3,0-.2.2-.4.3-.6-.3.6,0,0,0-.1.4-.6,0,.3.2-.2.2-.3.5-.2,0-.1.2,0,.4-.1.6-.2-.6.2-.2,0,0,0s1,.1.3,0c.5.1.9.1,1.4.2h.3c.6.2-.4,0,0,.1l.9.3c1.2.4,2.3,1,3.4,1.6l.4.2c-.4-.2,0,0,0,0l.9.5c.6.4,1.2.8,1.8,1.2,3.6,2.4,7.1,5.1,10.4,8l.6.5c1.1.8,2.6.7,3.5-.3.9-1.1.5-2.3-.4-3.1-2.7-2.4-5.5-4.7-8.4-6.8-2.4-1.8-5-3.3-7.6-4.7-2.3-1.3-4.9-2-7.6-2.1-2.5,0-4.8,1.5-5.8,3.8-.5,1.5-.8,3.1-.9,4.6-.2,2.1-.7,4.2-1.4,6.1-1.6,4.2-4.7,7.7-8.7,9.8-.6.3-1.3.6-1.9.8-1.3.5-2.7.8-4.1.8h-.4c-.7,0,.5,0-.2,0s-.6,0-.9-.1-.6-.1-.9-.2c.7.1-.5-.2-.7-.2-1.7-.6-3.4-1.1-5.2-1.5-3.6-.8-7.4-1.1-11.1-1.1-2.6.1-6.6.4-7.9,3-1.6,3.1,2.1,6.1,4.4,7.5,4.2,2.5,9,3.9,13.7,5.4,5.3,1.7,10.5,3.8,15.7,5.9,4,1.6,8.2,3,12.4,4.2,4,1.2,8.2,2,12.3,2.4,2.9.2,6.5.3,9-1.4,1.2-.8,2-2,2.2-3.4,0-1.1,0-2.2,0-3.2,0-1.4,0-2.9,0-4.3.2-4.9.9-9.7,2-14.4.5-2.5,1.3-5,2.3-7.4,0-.3.3-.7.4-1,1.4-2.6-3.3-4.4-4.5-1.8Z"/>
    <path class="st0" d="M134.7,392.5s-19.6-1-27.6,2.5-16.7,4.5-15.3-1.6c0,0-5.8,1.1-4.2-5.3,0,0-5.2-1.3-2.2-5.3,0,0-5.3-1.1-1.5-6.2s33-10.7,51.6-9.2l-.8,25.1Z"/>
    <path class="st2" d="M134.7,390.4c-4.6-.2-9.2-.2-13.8,0-3.4.1-6.9.5-10.3,1.2-3.7.8-7.1,2.5-10.7,3.5-1.7.5-3.5.7-5.3.5.6.1-1-.3-.2-.1-.1-.1-.2-.1-.3-.2.1,0,.2.1.2.2s-.1-.5,0,0c0-.1-.2-.6-.1-.3-.1-.3-.1-.7,0-1,.2-1.4-.8-2.7-2.2-2.9h-.8c-.2,0-.4,0-.7.1-.6.1.5.1-.2,0h-.3c-.5,0,.6.1,0,0s.2.2-.2-.1c.7.5-.2-.3.3.3,0-.1-.3-.5,0-.1-.3-.8-.3-1.7,0-2.5.2-1.2-.5-2.4-1.7-2.7l-.5-.2c-.3-.1-.5-.3,0,0-.2-.1-.5-.2-.7-.4s.3.2,0,0c0,0-.3-.3,0-.1,0,.1,0,0,0,0,0-.5.2-1,.6-1.5,1.1-1.6-.6-3-2.1-3.4,1.3.3.2,0,0-.1-.5-.1.6.3,0,0,0-.1-.2-.1-.3-.1-.5-.1.3.2,0,.1,0,0-.6-.6,0-.1-.4-.4,0,.1,0,0s-.2-.6,0-.2c0-.3,0-.6,0-.9.3-.7.7-1.4,1.2-2,.3-.3-.4.3,0,0l.2-.2c.2-.1.4-.3.6-.4.4-.3.9-.6,1.4-.8,1.4-.7,2.9-1.2,4.4-1.7,8.6-2.8,17.8-4.1,26.7-4.8,5.3-.5,10.6-.5,15.8-.2l-2.4-2.3-.6,22v3.1c-.2,2.6,4.7,3.4,4.8.6l.6-22v-3.1c0-1.3-1.1-2.3-2.3-2.3-10.9-.7-21.9.1-32.6,2.2-4.6.8-9.2,2-13.7,3.5-2.7,1-5.9,2.1-7.6,4.6-1.5,2.2-2.2,5-.2,7.2,1.1,1.1,2.5,1.8,4,2.1l-2.1-3.4c-1.5,2.1-1.8,4.6,0,6.5,1,1,2.2,1.7,3.5,2l-1.7-2.7c-.7,2.9-.4,5.9,2.4,7.4,1.4.8,3.1,1,4.7.7l-3-2.9c-.5,1.8,0,3.8,1.2,5.2,1.3,1.2,3.1,2,4.9,2,4.6.3,9-1.4,13.1-3,3.2-1.1,6.5-1.8,9.9-1.9,3.6-.3,7.2-.4,10.8-.4h5.5c1.1.1,2.4-.4,2.5-1.7-.4-1.3-1.4-2.2-2.6-2.3Z"/>
    <path class="st2" d="M270.5,338.2s16.2-131.1-64.1-118.6c-35.2,5.5-57.4,126.1-57.4,126.1l121.5-7.5Z"/>
    <path class="st2" d="M273,338.6c.5-3.6.7-7.3.9-11,.5-8.9.6-17.8.2-26.7-.4-11.1-1.9-22.2-4.5-33-2.6-10.6-6.5-21.1-12.9-30-6.2-8.8-15.3-15.1-25.7-17.9-6.5-1.7-13.2-2.3-19.9-1.8-5.2.4-10.1,1.1-14.6,4-4,2.7-7.6,6.2-10.4,10.2-3.5,4.8-6.7,9.9-9.3,15.3-6.3,12.3-11.1,25.5-15.3,38.7-3.9,12.3-7.2,24.7-10.2,37.2-1.6,7-3.2,14-4.5,21-.1.3-.1.7-.2,1-.2,1,3.2,1.2,3.6,1.1l12.1-.8,29-1.8,35.1-2.2,30.4-1.9c4.9-.3,9.8-.6,14.7-.9h.2c.5,0,1.8-.2,1-.9s-2.5-.8-3.4-.7l-12.1.8-29,1.8-35.1,2.2-30.4,1.8c-4.9.3-9.8.4-14.7.9h-.2l3.6,1.1c.9-4.9,1.9-9.7,3-14.5,2.5-11.4,5.4-22.7,8.6-33.9,3.7-13.3,8.3-26.4,13.7-39.2,4.6-10.7,10.1-21.9,18.3-30.3,3-3.1,6.4-5.8,10.5-7.2.9-.3,1.7-.5,2.6-.6,1.6-.3,3.3-.5,4.9-.6,3-.3,6-.3,9,0,.7.1-.5-.1.2,0h1.5c.4.1.7.2,1,.2h.5c.2.1.1.1-.1.1h.4c.6.2,1.3.4,1.9.5l.9.2c.7.2-.5-.1.2,0l.6.2c2.5.7,4.9,1.6,7.1,2.8,4.4,2.3,8.3,5.3,11.6,9,7.2,7.8,11.8,17.8,14.9,27.9,3.1,10.7,5,21.6,5.8,32.7.7,9.5.9,19,.5,28.6-.2,5.1-.5,10.2-1.1,15.3v.7c0,.9,5,1.6,5.1.6Z"/>
    <path class="st0" d="M134.7,393.9s27.8,25.4,81.8,18.5c54-6.9,58.9-52.7,54-74.2l-96.3-.7s-8.4-94.5-68.7-76.4-59.9,100.9-59.9,100.9l37.8,9.1s12.4-46.9,21.5-53.4c12.9-9.2,27.3,17.6,30.6,49.6l-.8,26.6Z"/>
    <path class="st2" d="M134.9,394.6c4.8,4.1,10.2,7.5,15.9,10.1,14,6.5,29.1,10.1,44.5,10.5,10.4.4,20.8-.4,30.9-2.5,7.9-1.6,15.4-4.7,22.3-9,10.7-7.1,18.6-17.7,22.3-30,3.1-10,3.8-20.6,2.1-30.9-.2-1-.4-2-.6-3-.1-.6-1.1-1.4-1.5-1.9s-1.3-1.5-1.9-1.5h-9.6c0-.1-23-.3-23-.3l-27.8-.2-24.1-.2c-3.9,0-7.8-.3-11.7-.1h-.2l3.5,3.3c-.3-2.9-.7-5.8-1.2-8.7-1.1-6.9-2.7-13.8-4.7-20.5-2.4-8.4-5.8-16.5-10.1-24.1-4.6-8.3-11-15.6-18.7-21.2-7.3-5.3-16.2-7.9-25.2-7.5-11.6.6-23.1,5.3-32.5,11.8-9.1,6.5-16.7,14.8-22.2,24.5-5.2,8.9-9.2,18.4-11.9,28.4-2.3,8.1-3.9,16.4-4.8,24.7-.5,4.4-.8,8.8-.9,13.2v.7c0,.5,1.2,1.5,1.6,1.9.5.5,1.2,1.3,1.9,1.5l33.1,8,4.7,1.1h0c1.7-6.6,3.7-13.1,5.8-19.5,1.8-5.5,3.6-10.9,5.7-16.2,1.7-4.7,3.8-9.1,6.4-13.4,1.9-3.1,4.5-5.9,8.4-6.1,2.1-.1,4.1.6,5.8,1.8.2.2.3.2.5.4h.1c-.2-.1.3.4.1.2l.2.2c.3.3.2.2.6.6.9,1,1.7,2.1,2.4,3.3,4.2,6.5,6.8,13.9,8.8,21.3,1.2,4.5,2.1,9,2.8,13.6.5,2.5.8,5,.8,7.5l-.7,25v.7c0,.7,1.1,1.6,1.6,2,.4.4.9.8,1.3,1.2.1,0,.7.4.7.3l.4-15.5.2-9c0-3.1-.3-6.3-.9-9.3-1.8-11.3-4.9-22.9-10.6-32.9-2.3-4-5.1-7.5-8.6-10.5-2.4-2.1-5.4-4.2-8.8-4.2-5.9.1-8.9,5.7-11.2,10.2-3.3,6.9-6.2,14.1-8.5,21.4-2.2,6.4-4.1,12.8-5.9,19.3-.3,1.4-.7,2.8-1.1,4.1,0,.2.2.2-.2.1l-1.9-.5-34.5-8.3-.9-.2,3.5,3.4c0-.5,0-1.6,0-2.4,0-2.2.2-4.4.4-6.6.6-7.4,1.8-14.8,3.4-22.1,2.1-9.6,5.3-18.9,9.5-27.8,4.5-9.7,10.8-18.5,18.5-25.9,8.6-8.1,19-13.8,30.4-16.8,9.2-2.4,19-2.3,27.8,1.7,1.8.8,3.5,1.8,5.2,2.9.8.5,1.8,1.2,2.3,1.6l.6.5.4.3.5.4c.2.2.4.4.6.5s-.3-.3,0,0l.3.3.5.5c.3.3-.2-.2.2.2l.6.6.3.3c-.3-.3,0-.1,0,0l.5.6.5.5.4.5c1.3,1.6,2.6,3.3,3.7,5,4.7,7.2,8.4,15,11,23.2,2.4,7,4.2,14.2,5.6,21.5.8,4,1.4,7.9,1.8,11.9v.6c.2.6,1.3,1.5,1.7,1.9s1.3,1.5,1.9,1.5h9.6c0,.1,23,.3,23,.3l27.8.2,24.1.2c3.9,0,7.8.3,11.7.1h.2l-3.5-3.4c2.1,9.8,2,19.9-.4,29.6-2.7,12-9.3,22.8-18.8,30.7-13.8,11.1-31.8,14.3-49,14.9-16.4.5-32.9-1.9-48.1-8.2-4.6-1.9-9-4.2-13.1-6.8-1.2-.8-2.2-1.5-3.5-2.4-.1-.1-.8-.6-.5-.4s-.2-.2-.4-.3c-.3-.2-1.1-.9-.3-.2l-.2-.2c-.2-.2-1.4-1.3-1.6-.9s1.5,2.1,1.7,2.3Z"/>
    <path class="st0" d="M188.6,345.2s-18.8,9-25.1,26.4"/>
    <path class="st2" d="M189,344.5c-8.5,4.1-15.9,10.1-21.7,17.5-2.5,3.2-4.6,6.9-6,10.7-.2.6,1.7-.3,1.8-.4.7-.3,2.2-1,2.5-1.8,2.4-6.1,6-11.5,10.8-16,1.9-1.8,3.8-3.5,5.9-5,.9-.7,1.8-1.2,2.4-1.6l1.1-.7.4-.3c.6-.4-.2.1.1-.1s.7-.4,1-.6,1.1-.5.2-.1c.2-.1.4-.2.6-.3.4-.2,2.6-1.2,2.5-1.8s-1.4.4-1.6.5h0Z"/>
    <path class="st0" d="M135.4,367.3s23.4-2.1,32.3,5.6"/>
    <path class="st2" d="M136.7,369.4c7.8-.7,16.1-.4,23.7,1.6,1.4.4,2.7.8,4,1.4.5.2,1.1.5,1.5.8s.6.4.8.5c.1.1.2.1.3.2,0,0,.6.5.3.2.5.5,1.8,1.4,2.3.4s-.7-2.4-1.3-2.9c-4.4-3.7-10.1-5.2-15.7-6-5.1-.6-10.2-.9-15.2-.6-1,0-2.1.1-3.2.2s-.3,1.8-.1,2.3c.5.9,1.5,2,2.6,1.9h0Z"/>
    <path class="st0" d="M270.5,278.6s15.3,57.2-8.4,64.7c-21.7,6.9-51.8-21.5-51.8-21.5,0,0-7.6,11.8-13.8,9.2s-4.9-7.5-4.9-7.5c0,0-10.9,1.2-3.7-6.8l-.5-12.6s-16,.1-13-6.6c1.2-2.7,6.2-4,12.2-4.4,14.2-1.1,28.4,1.7,41.1,8.1l4.9,2.4-1.5-20.4,39.4-4.6Z"/>
    <path class="st2" d="M268,278.7c1.2,4.7,2.1,9.4,2.9,14.2,1.5,9.3,2.5,18.8,1.6,28.2-.3,4.3-1.3,8.6-3,12.6-.7,1.7-1.8,3.3-3,4.7l-.9.9c-.3.3-.6.5-.9.8s-.7.5-1.1.7c-.2.1-.4.2-.6.3l-.3.2c-.3.2.5-.2-.1,0-4.4,2-9.2,1.8-14.1.7-5.7-1.4-11.1-3.6-16.1-6.6-7-4.1-13.6-8.9-19.7-14.3l-.3-.3c-1.4-1-3.4-.7-4.5.6-.2.3.2-.4,0,0s-.3.5-.5.7c-.6.8-1.2,1.6-1.9,2.4-1.5,1.9-3.4,3.6-5.5,4.8-.4.2-.8.4-1.2.4.7-.1-.8,0-.1,0q-.3,0-.1,0c-.2,0-.3-.1-.4-.1-1.3-.5-2.4-1.4-3.3-2.5-.5-.8-.8-1.7-.9-2.7v-.9c0-.5,0,.1,0-.1.3-1.3-1.6-1.7-2.5-1.6-.3,0-.6,0-.9.1h-.4c-.5,0,.5,0,.1,0s-.8-.1-1.1-.1h-.6c0-.1.2.1-.1-.1s0,.1-.2-.1-.1-.1-.1-.1c-.1-.1-.2-.3-.2-.4.1.3,0-.2,0-.3,0-.2,0-.3.1-.5.4-1.4,1.5-2.2,2.2-3.4.2-.5.2-1,.1-1.5l-.2-6.4-.2-5.2c0-1.1-1.8-1.2-2.6-1.2s.5,0,0,0-1.1,0-1.7-.1c-.8,0-1.6-.1-2.3-.2-.4,0-.8-.1-1.2-.2s0,0,.1,0h-.3c0-.1-.7-.2-.7-.2-.4-.1-.8-.2-1.2-.3l-.6-.2c-.3-.1.1.1-.3-.1-.3-.1-.7-.3-1-.5h-.2c-.2-.2-.3-.3-.5-.5-.3-.3-.6-.7-.7-1.2-.1-.7.1-1.4.5-2,1.3-1.8,4.5-2.2,6.5-2.5,3.6-.5,7.3-.7,10.9-.6,7.5.2,14.9,1.6,21.9,4,5,1.8,9.8,4,14.5,6.5,1,.5,4.3.5,4.2-1.2l-1.5-20.4-2.5,1.7,34.6-4.1,4.8-.6c.8-.1,2.5-.4,2.4-1.5s-1.8-1.3-2.6-1.2l-34.6,4.1-4.8.6c-.8.1-2.5.4-2.4,1.5l1.5,20.4,4.2-1.2c-4.7-2.5-9.5-4.6-14.5-6.5-8-2.8-16.4-4.4-24.9-4.5-4.3-.1-8.6.1-12.9.8-3.1.5-6.8,1.3-9,3.6-1.5,1.3-1.9,3.5-1,5.2,1,1.7,3.1,2.5,4.8,3.1,3.4,1,7,1.5,10.6,1.3l-2.6-1.2.5,12.6.3-.7c-2.1,2.4-4.5,6.2-.5,8,2.1.8,4.3,1.1,6.5.7l-2.5-1.6c-1.1,4.4,2.9,8.2,6.9,9.2,5.5,1.4,10.5-2.7,13.8-6.6,1-1.2,2-2.5,2.9-3.8l-4.5.6c5.4,5,11.3,9.4,17.5,13.2,10.2,6.3,22.9,11.9,35.1,9.3,4.4-.8,8.4-3.3,11.1-6.9,2.5-3.6,4.1-7.7,4.8-12,1.8-9.7,1.1-19.8-.2-29.6-.8-6.1-2-12.1-3.5-18,0-.1,0-.2-.1-.3-.5-2-5.4-1.5-5,.2Z"/>
    <path class="st0" d="M109.1,300.1s-3.6,5.2-8.4,7.3-6.7,4-2.8,7.1,16.7-5.2,16.7-5.2l24.9-19.3s10.8-11.3,7.4-15.6-9.9-4.9-9.9-4.9c0,0-27.9,2.3-27.9,30.6Z"/>
    <path class="st2" d="M106.8,299.5c-1.8,2.6-4,4.7-6.7,6.4-2.5,1.5-9.1,3.4-6,7.4,4.6,6,13.5,2,18.8-.9,2.5-1.4,4.9-3,7.2-4.8l13.6-10.5,5.9-4.6c.8-.6,1.6-1.1,2.3-1.8,1.4-1.4,2.6-2.9,3.7-4.5,1.8-2.4,3.7-5.1,4.3-8,.7-3.5-2.2-5.8-5.1-7.3-1.6-.9-3.4-1.5-5.2-2-1.2-.4-2.5-.6-3.8-.5-2.3.2-4.6.7-6.8,1.4-4.8,1.4-9.2,3.8-12.9,7.1-4.8,4.4-7.9,10.3-8.9,16.7-.3,2-.5,4.1-.5,6.1s4.9,2.1,4.9.8c0-6.7,1.6-13.4,5.8-18.8,3.1-3.8,7.1-6.8,11.6-8.7,1.6-.7,3.3-1.3,5-1.7.7-.2,1.4-.3,2.1-.5h.8c.5-.2-.5,0,.2-.1.2,0,.5,0,.8-.1.6-.1-1.6-.2-1.2-.1s.6.1.9.1c.7.1-.2-.1.4.1.4.1.7.2,1,.3.7.2,1.4.5,2.1.9,1.4.6,2.7,1.7,3.5,3,1,2.1-.7,5.1-1.8,6.9-1.4,2.3-3,4.4-4.8,6.4-1.7,1.7-3.6,3.3-5.6,4.7l-13,10.1-5.4,4.2-1.5,1.2c-.2.1-.9.6-.2.2-3.8,2.3-8.4,5.2-12.6,5.6h-.4c.4,0,.1,0,0,0-.5,0,0,0,.1,0-.4-.2.1,0,.2.1s.1-.1.1,0,.1,0-.1-.1c-.4-.3-.8-.7-1.1-1.1-1-1.4,0-2.5,1.2-3.3,1.8-1.2,3.9-1.8,5.7-3.1,1.6-1.2,3-2.5,4.3-4,.5-.6,1.1-1.3,1.5-1.9,1.1-1.3-3.6-2.5-4.4-1.3Z"/>
    <path class="st0" d="M140.3,294.2s1.2,2.8,8.1,2.5,8.4-3.8.7-10-25,4.3-29.1,13.7"/>
    <path class="st2" d="M138,295c1.6,3.6,7,4.1,10.3,4,2.4,0,5.2-.4,7.1-2.1,1.5-1.4,1.9-3.7.9-5.6-1.4-2.6-3.4-4.9-5.9-6.5-2-1.3-4.3-2.1-6.7-2.1-5-.2-10,1.9-14.1,4.5-4.7,2.9-9.4,7.1-11.7,12.3-1.2,2.7,3.4,4.5,4.6,2,1.7-3.4,4.1-6.3,7.2-8.5,3.3-2.6,7.1-4.5,11.2-5.6,1.5-.4,3-.4,4.6-.1.2,0,.4.1.6.1-.4-.1,0,0,.1,0,.4.1.7.3,1.1.5-.3-.2.5.4.7.5.6.5,1.2,1,1.8,1.6.8.7,1.4,1.5,2,2.4.1.3.3.6.4.8-.1-.3,0,0,0,0v.4c0-.2,0-.3,0-.1-.1-.1.1.7,0,0,0,.1-.1.2-.1.3.5-.4-.1,0-.1.1s.4-.3,0,0-.1.1-.6.3c-.4.1-.8.2-1.2.3-1.3.2-2.5.2-3.8.1-.6-.1-1.1-.2-1.7-.3-.5-.1.5.2-.2-.1l-.6-.2s-.6-.3-.2-.1-.2-.2-.3-.2-.1-.1-.2-.2-.1-.1.2.2h-.1c0-.1-.4-.9-.1-.2-1.7-2.5-6.5-1.4-5.2,1.5h0Z"/>
    <path class="st2" d="M251.6,313.4c-5.2-5.2-11.3-9.4-18-12.6-2.4-1.1-5.3,2.6-2.4,3.9,6,2.8,11.4,6.6,16.2,11.2.9.9,2.3,1.1,3.4.4.7-.4,1.6-1.9.8-2.9h0Z"/>
    <path class="st2" d="M231.4,209.1s16.6,3.6,19.4-3.1-7.9-5.3-7.9-5.3c0,0,12.6-13.6-4.3-16.4,0,0,14.3-10.2,3.4-20.2s-33.1-4-33.1-4c0,0,.9-15-16.4-13.4s-13.3,10.7-13.3,10.7c0,0-11.1.9-11.5,6.1s7.9,7.4,7.9,7.4c0,0,2.8,14.9,17.9,13l14.2,18.7s-5.3,6.7.2,13.8c5.5,7.1,24.1,2.4,23.5-7.3Z"/>
    <path class="st2" d="M229.3,210.2c4.7,1.1,9.6,1.3,14.3.5,2.1-.5,4.1-1.2,5.9-2.2,1.3-.6,2.5-1.6,3.3-2.8.8-1.1,1-2.5.6-3.8-.5-.9-1.4-1.6-2.4-1.8-2-.5-4.1-.6-6.1-.3h.4c3-3.1,6.8-9.4,3-13.3-1.9-2-4.8-2.7-7.4-3.2v.4c5.6-4.1,10.4-11.9,5.5-18.4-6.2-8.2-18.4-8.6-27.7-7.6-2.8.3-5.5.8-8.2,1.5h.8c.3-5-2.3-10.1-6.8-12.2-5-2.4-11.2-1.7-16.4-.2-2.8.7-5.5,1.9-7.9,3.5-1.3.8-2.4,2-3.1,3.4-.7,1.5-.7,3.2-.1,4.8l4.4-2.1c-3.8.3-7.5,1.3-10.9,3-1.9.9-4.2,2.1-4.9,4.2s.5,4.2,2.1,5.5c1.5,1.1,3.1,2,4.9,2.6.2,0,.4.1.6.2.2.1,0,0,.1,0,.1.2.1.4.2.6.7,2.7,2,5.3,3.9,7.4,3.6,4.2,8.9,5.6,14.3,4.9h-.4l6.3,8.3,4.7,6.2c.9,1.4,1.9,2.7,3,4,.3.3.2.2.1.4-.5.9-1,1.8-1.4,2.8-1.4,3.7-.7,7.8,1.7,10.9,3.3,4.2,9.9,3.9,14.6,2.6,5.4-1.4,13.9-5.1,13.6-11.9,0-.3-2.3.6-2.4.7-.4.2-2.2.8-2.1,1.4.1,2.5-1.1,4.8-3,6.4-.4.4-.9.7-1.4,1-.1,0-.2.1-.2.1-.4.2.3-.1-.1,0s.2-.1-.2.1c-.1.1-1,.3-1.4.4-.7.2-1.3.3-2,.4-2.6.4-5.3.1-7.8-1-3.1-1.7-5-4.8-5.3-8.2-.2-2.7.6-5.4,2.2-7.6h0c0-.1-11.8-15.8-11.8-15.8-.7-.9-1.3-1.9-2.1-2.8q-.3-.4-1-.3c-1.4.2-2.8.2-4.2,0-4.2-.6-7.9-2.9-10.2-6.5-1.3-2-2.3-4.1-2.8-6.5h-.1c-3.3-.9-8.6-3.6-7.7-7.8.3-1,.9-1.8,1.8-2.4q.2-.2.1-.1c0,0,.2-.1-.2.1.5-.2.9-.3,1.4-.4.9-.2,1.8-.4,2.8-.5h1c0-.1.2-.1.2-.1.5-.1,4.7-1.4,4.4-2.1-.4-1.1-.5-2.3-.3-3.4.2-1.1.8-2.2,1.6-3s.8-.7,1.2-1c.5-.3-.6.2,0,0s1-.3,1.6-.5c4.7-1.1,10.5-1.6,14.9.9,2.6,1.5,4.5,3.9,5.3,6.7.5,1.6.8,3.3.7,5,0,.1.9-.1.8-.1h.4c.3-.2-.3,0,.2-.2l.9-.2c1.5-.3,3-.6,4.5-.8,4.4-.6,8.9-.7,13.3-.2,4.9.6,9.7,2.2,13.3,5.7s4.9,8.2,2.5,12.8c-1.4,2.7-3.5,5-6,6.8-.1.1-.4.3-.1.4,3.7.6,8.5,2.2,8.7,6.7.1,2.9-1.5,5.6-3.1,7.9-.4.6-.9,1.1-1.4,1.7-.2.2.3.2.4.2,1.4-.2,2.7-.2,4.1,0,2,.3,4.1,1.2,3.9,3.6-.1,1.2-.7,2.3-1.6,3.2-.9.8.2-.4.6-.1-.5.1-1.1.2-1.6.4-2.7.3-5.3.3-8,0-1.6-.2-3.2-.4-4.8-.7-.8-.2-2.2.7-2.9,1-.4-.2-2,.7-1.6.8Z"/>
    <path class="st0" d="M171.3,220.1c-8.9-13.3,5.4-46.7,5.4-46.7,11.8,3,31.5-8,31.5-8-6.4,10.8,3,31.8,3,31.8,5.4-9.8,16.2-8.7,14.6,1.1s-11.1,10.3-11.1,10.3c0,0,8.9,20.8,8.3,24.5-.6,4-24,18.5-28.8-1.3.1,0-15.2-.1-22.9-11.7Z"/>
    <path class="st2" d="M173.6,219.4c-3.8-5.9-2.9-14.1-1.8-20.8,1.3-6.9,3.1-13.7,5.6-20.2.5-1.4,1-2.8,1.6-4.1l-2.6,1c5.5,1.4,11.4.2,16.7-1.3,4.8-1.4,9.4-3.3,13.9-5.5.9-.4,1.8-.9,2.8-1.4l-3.8-2.6c-2.8,4.9-2.7,10.9-1.9,16.3.8,4.9,2.1,9.6,3.8,14.2.4,1,.7,1.9,1.1,2.9.7,1.7,3.7,1.9,4.6.3,1.4-2.4,3.5-4.8,6.1-5.5.1,0,.9-.2.5-.1.3,0,.5-.1.8-.1s-.4,0,0,0h.3c.1,0,.3.1.4.1-.3-.1-.2-.1,0,0,.5.2-.1-.1.3.1.1.1.2.2.3.2,0,0-.3-.2-.1-.1.4.3.6.7.8,1.1,1,2.2.2,5.6-1,7.8-.6,1-1.4,1.9-2.3,2.7-.4.3-.7.5-1.1.7-.2.1-.4.2-.7.3l-.4.2c-.3.1.5-.2-.1,0s-.9.3-1.4.4l-.7.2c-.1,0-.7.1-.3.1s-.4,0-.6.1h-.3c-1.1-.1-2,.7-2.1,1.8,0,.3,0,.6.1.9,1.3,2.9,2.5,5.9,3.6,8.9,1.7,4.3,3.6,8.7,4.4,13.3.1.3.1.6.1,1s0,0,0,0v.4s-.2.2.1-.2c-.1.1-.1.2-.1.3-.1.1-.1.2-.2.3-.2.3.3-.3-.1.1-.5.5-.9,1-1.4,1.4-.3.3-.6.5-1,.8.3-.3-.1,0-.2.1l-.6.4c-.8.6-1.7,1.1-2.6,1.5-.5.2-.9.5-1.4.7-.4.2-.8.3-1.1.5-1,.4-2.1.7-3.1,1l-.7.2c-.5.1-.1,0,0,0h-.3c-.6.1-1.1.1-1.7.1h-1.3c-.5-.1-1.1-.2-1.6-.3.6.1-.3-.1-.4-.2s-.5-.2-.8-.3c-.1,0-.5-.2-.2-.1s-.3-.2-.3-.2c-.2-.1-.5-.3-.7-.5-.9-.7-1.6-1.5-2.1-2.4-.8-1.4-1.4-2.8-1.7-4.3-.4-1.2-1.6-2-2.8-1.9-.3,0-1-.1-.1,0-.6-.1-1.2-.1-1.8-.2-.9-.1-1.8-.2-2.6-.4-1.1-.2-2-.5-2.7-.7-5.1-1.5-9.9-4.4-13.1-9-.6-1.2-2-1.7-3.2-1.3-1,.3-2,1.5-1.3,2.5,5.6,8.2,15.7,13,25.6,13l-2.8-1.9c1.4,5.8,5.1,10.7,11.3,11.8,5,.9,10.2-.7,14.6-3.1,1.9-1,3.6-2.2,5.2-3.6,1.2-.9,2.1-2.2,2.5-3.6.3-1.7-.4-3.8-.9-5.4-.8-2.7-1.8-5.4-2.8-8-1.5-4.1-3.1-8.1-4.9-12.1l-1.9,2.6c4.8-.2,9.3-2.8,11.7-7,1.7-3.2,2.5-7.7.8-11-1.6-3-5-4.6-8.3-4-4.6.6-8.1,3.9-10.3,7.8l4.6.3c-1-2.3-1.9-4.7-2.6-7.2-1.5-4.9-2.6-10.1-2.4-15.2,0-2.8.7-5.5,2-7.9,1.2-2.2-2.3-3.4-3.8-2.6-2.3,1.3-4.7,2.4-7.1,3.4-4.6,2.1-9.4,3.6-14.4,4.4-2.7.5-5.5.4-8.1-.2-1-.2-2,.2-2.6,1.1-1.7,4.1-3.2,8.3-4.5,12.6-2.4,7.8-4.2,15.9-4,24,.1,4,.8,8.2,3,11.6.7,1.1,2,1.6,3.3,1.2.9.1,2-1.1,1.3-2.2Z"/>
    <path class="st0" d="M193.1,210.2s-17.2,16.6-27.8,9.1-.3-22.2,16.5-21.6"/>
    <path class="st2" d="M191.6,208.6c-1.7,1.6-3.6,3.1-5.5,4.5-1.7,1.2-3.4,2.3-5.3,3.3-1.9,1.1-4,1.8-6.1,2.3-1.9.5-3.9.4-5.7-.1-1.8-.7-3.4-1.9-4.5-3.5-.5-.7-.8-1.4-.9-2.2-.2-.8-.2-1.7,0-2.5,0-.3.1-.7.2-1,.2-.5.4-1,.6-1.5.2-.3.4-.6.6-.9.3-.5.6-.9,1-1.3.4-.4.8-.8,1.2-1.1.5-.4,1-.8,1.6-1.2,1.1-.7,2.3-1.4,3.5-1.9,2.9-1.1,6-1.6,9.2-1.5,2.9.1,3.9-4.4.6-4.5-6.4-.2-13.1,1.7-18,5.9-3.7,3.2-6.6,8.3-5.2,13.4,1.5,5.3,6.8,8.7,12.2,8.8s10.5-2.3,15-5.1c3.1-1.9,5.9-4.1,8.5-6.6,1-.7,1.2-2.2.4-3.1h0c-.9-1.1-2.3-1.1-3.4-.2h0Z"/>
    <path class="st0" d="M206.2,205.5s.5,6.6-7.7,7.6"/>
    <path class="st2" d="M203.7,205.6c0,.3,0,.7-.1,1v-.5c0,.8-.2,1.6-.6,2.4l.2-.4c-.2.5-.5.9-.9,1.3-.1.2-.5.5.1,0l-.3.3c-.2.2-.5.4-.7.6h-.2c-.2.2.6-.3.2,0l-.5.3-.5.2c-.2.1-.9.3,0,0-.4.1-.8.2-1.1.3h-.6c0,.1-.2.1-.2.1h.4c0-.1-.4,0-.4,0-.6,0-1.2.3-1.7.6-.4.3-.6.8-.6,1.3.1,1.2,1.6,1.8,2.6,1.6,3.1-.4,6.1-1.4,8.2-3.9,1.1-1.3,1.7-3,1.9-4.7v-.9c-.1-1.2-1.6-1.7-2.6-1.6s-2.7.8-2.6,2h0Z"/>
    <path class="st2" d="M196.2,190.9c.2.9-.4,1.8-1.3,2h-.2c-1.9.1-2.1-2.2-.5-2.8.7-.4,1.6-.1,2,.6v.2Z"/>
    <path class="st2" d="M185.7,190.7c.2.9-.4,1.8-1.3,2h-.3c-1.9.1-2-2.2-.5-2.8.7-.4,1.6-.1,2,.5,0,.2.1.2.1.3Z"/>
    <polygon class="st1" points="123.7 330.7 124.2 267.1 159.9 284 195.1 263.7 192.8 335.5 155.6 344.1 123.7 330.7"/>
    <path class="st1" d="M125.9,331.3l.2-21.5.3-34.3v-7.9c.1,0-2.9,1.5-2.9,1.5l32,15.2c1.2.6,2.4,1.2,3.6,1.7,1.8.8,3.7-.9,5.2-1.8l17.9-10.4,14.2-8.3-3.6-2.7-.8,24.4-1.2,38.6-.3,8.9,1.3-1.7-32.6,7.5-4.6,1.1,1.7.2-27.9-11.7-4-1.7c-1.1-.5-2.4-.4-2.9.9-.4,1.3.2,2.6,1.3,3.2l29.4,12.3c1.2.5,2.9,1.5,4.3,1.3s2.7-.6,4-.9l18.9-4.4,14.2-3.3c.8-.2,1.3-.9,1.3-1.7l.8-24.4,1.2-38.6.3-8.9c.1-1.9-1.8-3.7-3.6-2.7l-30.9,17.8-4.4,2.5h2.2l-31.2-14.9-4.4-2.1c-1.2-.6-3-.2-3,1.5l-.2,21.5-.3,34.3v7.9c-.2,1.3.7,2.5,1.9,2.9,1,.3,2.1-.3,2.4-1.3.2.3.2.1.2,0Z"/>
    <path class="st0" d="M194.7,315.8s3.8,2.9-3,7.2-8.9,5.4-6.9,8.1,19.7,3.7,27.6-14.3"/>
    <path class="st2" d="M192.8,315.8c.2.2-.2-.3-.1-.1s.3.3.4.5c0-.1.1.3.2.5.1.3.1.6.1.9-.3,2.8-4,4.5-6,5.7-1.8,1.1-4.2,2.3-5.3,4.2-.5,1.2-.2,2.6.8,3.5,2.1,2.3,6.2,2.7,9.2,2.7,3.9-.1,7.7-1.1,11.1-3,5.2-3,9.3-7.6,11.6-13.2.5-1-4.2-2.8-4.7-1.6-3.6,8-10.7,14.6-19.6,15.4-.7.1-1.4.1-2.1.1s-.6,0-.2,0h-.5c-.1,0-.3,0-.5-.1-.6-.1.2.1-.1,0h-.7c.8.1.4,0,.2-.1-.4-.2.6.3.2.1-.2-.1-.5-.3.2.1-.2-.1-.2-.2.1.1-.4-.4.1.2-.1-.1-.7-.9-.6-2.2.2-2.9h.1c1.9-1.9,4.4-3.1,6.5-4.5,1.8-1.2,4.5-3,4.2-5.5-.1-1.1-.7-2-1.6-2.6-1-.7-2.1-1.1-3.4-1.1-.8-.2-1,.4-.2,1h0Z"/>
    <path class="st0" d="M194.5,306.1s.1,5.1-6.7,9.4-8.9,5.4-6.9,8.1,12.9,3.1,18-5.3"/>
    <path class="st2" d="M192.1,305.5v.5c0,.2,0,.1,0-.1v.3c-.1.3-.2.5-.3.7-.5,1.5-1.2,2.8-2.2,3.9-1.8,1.8-3.9,3.4-6.2,4.6-1.6.9-3.2,2-4.5,3.3-1,.8-1.3,2.2-.9,3.4.5,1.3,1.4,2.4,2.7,3.1,2.8,1.7,6.6,1.9,9.7,1.2,4.5-.8,8.4-3.5,10.8-7.4.6-.9-1.1-2-1.8-2.3-.9-.4-2.3-.6-2.9.4-1.8,2.9-4.7,5-8,5.9h-.3c0,.1-.6.2-.6.2-.4.1-.7.1-1.1.2s-.6.1-.9.1c.5,0-.1,0-.1,0h-.7c-.3,0-.6,0-1-.1.7.1-.1,0-.3-.1h-.4c-.5-.2.1-.2.1-.1-.1-.1-.2-.1-.4-.1-.6-.2.4.2.1,0,0,0-.3-.1-.3-.2s.5.4.2.1c-.5-.4.3.3,0,0-.1-.1-.3-.5,0,0l-.2-.3v-.3c-.2-.2-.2.3-.1-.1v-.2c0-.2-.1.3,0,0,.1-.2.2-.4.2-.6.2-.3-.2.2,0-.1l.3-.3c.2-.2.4-.4.7-.6,3.3-2.8,7.5-4.3,10.3-7.6,1.4-1.7,2.8-4.1,2.8-6.4,0-1.8-4.7-3.2-4.7-1h0Z"/>
    <path class="st0" d="M111.7,300s-2.1,3.5.8,8.1,13.7,9.7,16.6,4.7-9.9-9.8-9.9-9.8"/>
    <path class="st2" d="M109.5,298.8c-1.9,3.4-.7,8,1.6,10.9,2.8,3.3,6.6,5.7,10.8,6.8,3.6.9,8.6.8,9.8-3.5,1.1-3.5-2.6-6.5-5.1-8.3-2.2-1.5-4.6-2.6-7.1-3.5-1-.4-2.4,0-2.7,1.2s1,2.3,2,2.7c.4.1,1,.6,1.4.6-.4,0-.6-.2-.2-.1l.4.2.8.4c.6.3,1.1.6,1.7.9s1.2.7,1.7,1.1c.1.1.6.4,0,0l.4.3c.3.2.6.5.9.7s.8.9.4.3c.2.2.3.4.5.6s.1.2.2.4c-.4-.5-.1-.2,0,0,0,.1.1.2.1.4.1.3,0-.5,0,.1v.4c-.1-.5,0-.2,0,0s-.1.2-.1.4c0,.4.2-.3,0,0-.1.1-.6.9-.3.5-.1.1-.2.2-.3.3-.1.1-.6.4-.2.2-.2.1-.5.2-.7.3-.1,0-.6.1-.1,0h-.5c0,.1-.5.1-.5.1-.6.1.4,0-.1,0s-.9-.1-1.3-.1-.7-.2-.1,0h-.6c-.4-.2-.8-.3-1.2-.5l-.6-.2c-.1,0-.7-.3-.2-.1-.4-.2-.8-.4-1.2-.6-.8-.4-1.5-.8-2.2-1.3.5.4,0,0-.1-.1l-.5-.4c-.4-.3-.7-.6-1-.9-.1-.1-.5-.5-.1-.1-.1-.2-.3-.4-.4-.5-.2-.2-.4-.5-.5-.7-.6-1-.9-2.2-1-3.3,0,0,0-.7,0-.3,0-.3,0-.5.1-.8.1-.4.2-.7.2-1.1s-.2.4,0,0c.1-.1.1-.2.1-.3s.1-.2.1-.2c1.3-2.7-3-5.1-4.3-2.9h0Z"/>
    <path class="st0" d="M113.6,288.3s-4.9,5.3-1,9.7,16.7,9.5,18.1,4.1-8.4-8.9-8.4-8.9c0,0-.3-3.5,1.8-5.7"/>
    <path class="st2" d="M111.7,287.1c-2.4,2.6-3.8,6.7-2.5,10.2.9,2,2.4,3.6,4.3,4.8,1.7,1.2,3.6,2.2,5.6,3,3.3,1.4,7.8,2.7,11.2.9,1.9-1,3.1-3,3-5.2-.1-1.9-.9-3.6-2.3-4.9-2.2-2.1-4.8-3.7-7.7-4.8l1.4,1.7v-.5c0-.2-.1.5,0-.2,0-.2,0-.4.1-.7.1-1,.5-1.9,1.2-2.7.8-.9.7-2.3-.2-3h-.1c-1.1-.8-2.6-.5-3.4.5-1.7,2-2.6,4.7-2.3,7.4.1.8.7,1.5,1.4,1.7l.4.2.5.2c.2.1,1,.5.4.2,1.2.6,2.3,1.2,3.4,2,.1.1.9.8.5.4.3.2.5.5.8.8s.4.4.6.7.3.6.1,0l.3.6c.1.2.1.3.2.5-.2-.5,0-.1,0,0v.5c.1.5.1-.4,0,.1,0,.2-.1.3-.1.5.1-.5.1-.2,0,0v.2c.3-1-.1.1-.2,0s.5-.4.1-.1.6-.2.1-.1c-.1,0-.3.1-.4.2-.4.2.6-.1.1,0-.3,0-.6.1-.9.1.7-.1.1,0,0,0h-.7c-.3,0-.6-.1-.9-.1h-.6c.6,0-.1-.1-.2-.1-.9-.2-1.8-.5-2.6-.8s-1.5-.6-2.2-.9c.4.2-.2-.1-.2-.1l-.6-.3c-.4-.2-.9-.5-1.3-.7-.7-.4-1.4-.9-2-1.4-.1-.1-.8-.7-.4-.3-.3-.3-.6-.5-.8-.8-.4-.4-.6-.8-.8-1.3,0,0-.2-.8-.1-.3-.1-.3-.1-.6-.1-.9-.1-.6-.1.3,0-.3,0-.3.1-.6.1-.9,0,0,.2-.6.1-.3s.1-.4.2-.5l.6-1.2c.1-.1.4-.6,0,0l.3-.5c.2-.3.4-.5.6-.8.8-.9.7-2.2-.2-3q-.1-.1-.2-.1c-1.2-.7-2.6-.4-3.5.6v-.2Z"/>
    <path class="st0" d="M158.5,282s-4.5-19.7-22.2-22.3l-12.1,7.3,34.3,15Z"/>
    <path class="st1" d="M160.9,281.3c-1.3-5.2-3.8-10.1-7.3-14.2-3-3.7-6.9-6.4-11.4-8.1-2-.7-5.2-2-7.2-.9-1.1.6-2.2,1.3-3.3,2l-8.6,5.2c-1.4.8-1.8,2.8-.1,3.6l30.1,13.1,4.2,1.9c2.4,1,5.5-2.5,2.6-3.8l-30-13.1-4.2-1.9v3.6c-.1,0,12-7.3,12-7.3l-1.9.4c5.5.9,10.5,3.8,14,8.1,1.5,1.8,2.8,3.8,3.8,5.9.5.9.7,1.3,1.1,2.4.3.7.6,1.5.8,2.2.3.8.5,1.6.7,2.4.5,2.5,5.3,1.1,4.7-1.5Z"/>
    <path class="st0" d="M156.5,281.3c-.4,7.2-.8,14.4-1.2,21.5-.6,11.1-1.2,22.2-1.8,33.3-.1,2.7-.3,5.4-.4,8.1-.2,2.5,4.8,2,4.9-.2.4-7.2.8-14.4,1.2-21.5.6-11.1,1.2-22.2,1.8-33.3.1-2.7.3-5.4.4-8.1.2-2.5-4.8-2-4.9.2Z"/>
    <path class="st1" d="M155.4,252.7c1.6,4.3,2.7,8.8,3.4,13.4.7,4.3,1.1,8.8-.4,13-.3.8,4.1,2.9,4,2.9,1.5-4.3,1-9,.3-13.4-.7-4.5-1.9-8.9-3.4-13.1-.3-.8-1.7-1.5-2.4-2-.1,0-1.6-1-1.5-.8h0Z"/>
    <path class="st0" d="M173.3,300.3c2.9-2.6,5-6.1,5.9-9.9.3-.7.3-1.5.2-2.3-.3-1-1.2-.9-2-.6-1,.4-2,.9-2.8,1.6-1.4.8-2.1,2.5-1.5,4,.2,2.8,1,8.9,5.1,8.5,1.3-.2,2.5-.7,3.6-1.5,1.2-.7,2.3-1.6,3.1-2.7.5-.8.9-1.7,1.1-2.7.2-.6.5-1.6.1-2.2-.3-.3-.7-.4-1.1-.2-1.2.4-2.3,1-3.2,1.9-.8.6-1.2,1.5-1,2.5.4,2.2,2.8,2.8,4.6,3.2.3.1.9-.3,1.1-.4.6-.3,1.1-.6,1.7-.9.2-.1,1.7-1.2,1.3-1.3-1.3-.1-2.6-.7-3.6-1.6-.6-.7-1.1-2.2-.4-3l-4,2.2c1.4.2,0,3.4-.3,4s-.4.8-.7,1.1c-.1.1-.2.2-.2.3l2.1-1.2h-.6c-.7-.1-1.4-.4-1.9-1-1-1.2-1.7-2.6-1.9-4.1-.2-1-.4-2.1-.5-3.2-.1-.5-.3-2.3.1-2.7l-2.1,1.3h.2c0-.1-1.4.5-1.4.5,1.2-.4.9,2,.7,2.5-.8,3.7-2.8,7.1-5.6,9.7-.8.7.9.1,1.1,0,1.1-.5,2-1.1,2.8-1.8h0Z"/>
  </g>
  <g id="cat">
    <path class="st2" d="M315.4,347.6s7.3-.2,19.2-13.7,32.5-13.2,40.3-2-2.5,43.6-9.3,47.4-18.4,3.2-17.9.9,5.9-4.1,5.9-4.1l.2-5.2c-7.9,6.3-17.4,10.4-27.4,11.8-16.1,1.9-21.9-1.7-21.9-1.7,0,0-18.8,1.1-23.1,1.2s-11.4,0-7.9-4.2,19-6.8,19-6.8c0,0-7.8-15.1-7.2-18.1s12.3-8.2,16-10.1,14.1,4.6,14.1,4.6Z"/>
    <path class="st2" d="M302.2,345.3s5.5-10,7.6-10.8,6.5,14.2,5.7,16-13.3-5.2-13.3-5.2Z"/>
    <path class="st0" d="M298.8,349.6c.9.5,1.2,1.6.7,2.5,0,.1-.1.2-.2.2-1.2,1.6-3.2.1-2.6-1.6.2-.8,1-1.4,1.8-1.2.2,0,.3,0,.3.1Z"/>
    <path class="st2" d="M361.9,326.5c3-1.5,6.6-1.3,9.4.6,2.6,1.7,4.3,4.2,5.8,6.9,3.2,5.8,5.7,11.9,7.3,18.3,1.5,6,2.8,12.4,6.5,17.5,2.7,3.8,7.2,7.2,12,5.8,5.5-1.5,9-7.5,11.6-12,1.8-3.1,7.2-.8,5.2,2.6-2.9,5-6.3,10-11.4,13-5,3-11.3,3-16.2-.1-11.7-7.3-11.9-22.1-16.3-33.7-1.3-3.3-2.9-6.6-4.7-9.6-1-1.7-3.6-5.8-6.2-4.6-1.4.8-3.2.4-4.2-.9-.7-1.3-.2-3,1.1-3.7t.1,0h0Z"/>
  </g>
</svg>