<svg transform="scale(1)" version="1.1" id="z3DlPDkQVX" xmlns="http://www.w3.org/2000/svg" xmlns:xlink="http://www.w3.org/1999/xlink" x="0px" y="0px" viewBox="0 0 500 500" xml:space="preserve" class="pbimage_pbimage__wrapper__image__0LEis false"><title>Error 2</title><style type="text/css"> .st0{fill:#FFFFFF;} .st1{fill:#000005;} .st2{fill:#59BE4C;}
 .st2{fill:#59BE4C;}
 .st1{fill:#000005;}
 .st0{fill:#FFFFFF;}</style><g id="character"><path class="st0" d="M264.4,225.1c0,0,16.1-4.6,23-15.8s-1.2-26.5-1.2-26.5s18.6,7,18.7-2s-19.6-13.2-19.6-13.2
		c5.3-2.6,15.7,0.1,19.2-3.4s-2.9-9.6-13.7-11s-21.5,3.6-21.5,3.6s0-2.7,11.2-9s4.3-16.5-9.3-10.5s-21.7,15.9-26,29.1
		c-6.1,19-15.2,47.7-16.5,50.9" fill="#FFFFFF"></path><path class="st1" d="M265.2,227.3c6.3-1.9,12.2-5,17.4-9.1c4.1-3.3,7.6-7.5,9.1-12.6c1.5-4.9,1-10.1-0.2-15c-0.7-3.1-1.9-6-3.3-8.9
		l-2.4,3.2c2.3,0.9,4.7,1.5,7.1,2c3.6,0.7,8.4,1.5,11.7-0.7c3.8-2.5,3.3-7.6,0.9-10.9c-2.7-3.5-6.9-5.7-10.9-7.3
		c-2.8-1.2-5.8-2.1-8.8-2.8l1,4.2c1.9-0.7,4-1.1,6.1-1c2.5-0.1,5-0.1,7.5-0.3c3.6-0.4,8.4-2.3,7.6-6.8s-5.8-7.2-9.6-8.7
		c-5.9-2.1-12.2-2.6-18.4-1.4c-4.1,0.6-8.1,1.8-11.9,3.5l3.8,2c0,0.9,0,0.6,0,0.4c-0.2,0.9,0,0.2,0.2-0.1c0.3-0.6-0.3,0.3,0.1-0.1
		c0.2-0.2,0.3-0.3,0.5-0.5c0.6-0.6,1.2-1.2,1.8-1.7c2-1.6,4.1-3,6.4-4.3c2.5-1.5,4.9-2.9,6.5-5.4c2.3-3.2,1.5-7.7-1.7-10
		c-0.2-0.1-0.4-0.3-0.6-0.4c-4.8-3-11-1.3-15.7,0.9c-10.3,4.6-18.6,12.7-23.5,22.9c-2.4,5.1-3.9,10.5-5.6,15.9
		c-1.8,5.7-3.7,11.4-5.5,17.1c-1.7,5.5-3.5,10.9-5.3,16.4c-0.6,1.9-1.2,3.7-1.8,5.6c-0.2,0.6-0.4,1.2-0.6,1.9s0.1-0.4-0.1,0.2
		l-0.2,0.5c-0.5,1.2,0,2.5,1.2,3.1c1,0.5,2.8,0.5,3.2-0.8c0.9-2.3,1.6-4.7,2.4-7.1c1.4-4.3,2.8-8.5,4.1-12.8
		c3.4-10.5,6.7-21,10.1-31.5c3-9.8,9.4-18.3,18-24c4.1-2.6,9.8-5.8,14.6-5.2c0.4,0.1,0.8,0.2,1.3,0.3c0.1,0,0.8,0.3,0.3,0.1l0.5,0.2
		c0.2,0.1,0.3,0.2,0.5,0.3c-0.5-0.3,0,0,0.1,0.1c0.2,0.1,0.3,0.3,0.4,0.4c-0.4-0.4,0,0,0.1,0.1c0.3,0.6-0.2-0.5,0.1,0.1
		c0.1,0.2,0.1,0.3,0.2,0.5c-0.1-0.5,0,0.4,0,0.5c0,0.6,0.1-0.4,0,0.2c0,0.2,0,0.4-0.1,0.6c0,0.1-0.1,0.4,0,0.1
		c-0.1,0.3-0.2,0.6-0.4,0.8c-1.2,2.1-3.8,3.5-6,4.8c-2.5,1.4-4.8,3.1-7,4.9c-1.4,1.2-3.1,2.9-3.2,4.9c0,1.9,2.4,2.7,3.8,2
		c2.4-1.1,5-1.9,7.5-2.5c5.3-1.4,10.8-1.5,16.1-0.3c2.1,0.5,4.1,1.3,6,2.5c0.6,0.4,1.2,0.9,1.7,1.4c0.4,0.3,0.1,0,0.4,0.5l0.3,0.4
		c0.3,0.4,0,0.1,0.1,0.2s0.2,0.9,0.2,0.4c0,0.2,0,0.3,0,0.5c0-0.1,0-0.5,0-0.1c0,0.1,0,0.2-0.1,0.3c0.3-0.6,0,0-0.1,0.1
		s-0.3,0.4,0,0c-0.1,0.2-0.3,0.3-0.4,0.4c-0.2,0.2-0.5,0.3-0.7,0.4c-0.2,0.1-0.5,0.2-0.8,0.3c-0.9,0.2-1.8,0.4-2.7,0.4
		c-4.8,0.3-9.9-0.3-14.4,1.8c-2,1-0.8,3.8,1,4.2c2,0.5,4,1,6,1.7c1.6,0.5,3.2,1.2,4.7,2c0.9,0.4,1.8,0.9,2.6,1.4
		c0.2,0.1,0.4,0.3,0.6,0.4s0.4,0.3,0,0c0.4,0.3,0.9,0.6,1.3,1c0.3,0.3,0.7,0.6,1,0.9c0.5,0.5-0.2-0.2,0.1,0.1l0.3,0.4l0.4,0.5
		c0,0.1,0.4,0.7,0.1,0.2c0.2,0.4,0.4,0.9,0.5,1.3c-0.1-0.4,0,0.5,0,0.6c0,0.5,0,0.2-0.1,0.8c0,0.1-0.2,0.7,0,0.1
		c-0.1,0.2-0.1,0.3-0.2,0.5c0,0-0.3,0.5-0.1,0.2s-0.2,0.2-0.3,0.2s-0.5,0.4,0,0.1c-0.1,0.1-0.3,0.2-0.4,0.3l-0.5,0.2
		c0.5-0.2,0,0-0.1,0l-0.9,0.2c-0.1,0-0.7,0.1-0.2,0h-0.8c-1.7,0.1-3.3-0.1-4.9-0.5c-2.5-0.5-4.9-1.2-7.3-2.1c-0.9-0.3-1.9,0-2.5,0.8
		c-0.5,0.8-0.5,1.7,0,2.5c-0.5-1-0.2-0.3,0,0c0.2,0.4,0.4,0.9,0.6,1.3c0.6,1.5,1.2,3,1.7,4.5c1.4,4.2,1.7,8.6,1,12.9
		c-1.8,8.8-10.4,14.5-18,18c-0.8,0.4-1.6,0.7-2.4,1.1l-1.1,0.4c-0.6,0.2,0.5-0.2-0.1,0l-0.4,0.2c-0.6,0.2-1.2,0.4-1.8,0.6
		c-3.1,0.9-1.1,5.2,1.6,4.4L265.2,227.3z" fill="#000005"></path><path class="st0" d="M282.5,196.6c0,0-2.1-8.7-12.3-13.5c0,0,12.8-9.6,5-13.9s-19.1,4-26.4,15.2" fill="#FFFFFF"></path><path class="st1" d="M284.9,195.9c-1.5-6.1-7-11.1-12.4-13.6l-0.1,0.6c1.5-1.2,3-2.5,4.2-3.9c1.7-1.9,4-4.7,3.4-7.6
		c-0.8-3.4-5.4-4.5-8.3-4.4c-4.8,0.3-9.4,2-13.3,4.9c-4.8,3.5-8.9,8-12.1,13c-0.5,0.7,1.8,0.4,1.9,0.4c0.9-0.2,2.3-0.5,2.8-1.3
		c2.6-4,5.7-7.6,9.3-10.6c1.5-1.3,3.2-2.4,4.9-3.3c1.1-0.6,2.3-1,3.5-1c2.5-0.1,6.1,1.3,6.4,4.1c0.3,2.4-1.6,4.7-3.1,6.4
		c-1.3,1.4-2.7,2.7-4.2,3.8c-0.2,0.1-0.4,0.5-0.1,0.6c5.4,2.5,10.7,7.3,12.2,13.3C280.3,198.3,285.2,197.1,284.9,195.9L284.9,195.9z
		" fill="#000005"></path><path class="st0" d="M325.6,313c0,0-126.6-2.5-125.7-43.3s33.1-70.5,33.1-70.5l39.1,25.5l-5.1,21.2l51.8,2.6" fill="#FFFFFF"></path><path class="st1" d="M323.9,311.7c-2.1,0-4.2-0.1-6.3-0.2c-5.5-0.2-10.9-0.6-16.3-1c-7.6-0.6-15.1-1.4-22.7-2.4
		c-8.5-1.1-16.9-2.5-25.3-4.2c-8-1.6-15.9-3.8-23.7-6.5c-1.8-0.6-3.6-1.3-5.3-2.1l-1.3-0.5c-0.1,0-0.7-0.3-0.3-0.1l-0.7-0.3
		c-0.8-0.4-1.7-0.8-2.5-1.2l-1.2-0.6l-0.2-0.1l-0.6-0.3c-0.8-0.4-1.5-0.8-2.2-1.3c-0.2-0.1-0.4-0.3-0.1,0l-0.6-0.4l-1.1-0.7l-1-0.7
		c-0.4-0.3,0.3,0.2-0.1-0.1l-0.6-0.4c-2.2-1.6-4.2-3.5-5.9-5.7c-1.6-2.1-2.8-4.5-3.5-7c-1.1-3.9-0.6-8.1-0.2-12.1
		c0.7-6.6,2.2-13,4.4-19.2c3.7-10.5,9-20.5,15.6-29.5c3.6-5.1,7.7-9.9,12.1-14.3c0.2-0.2,0.4-0.4,0.7-0.6l-3-1.1l13.1,8.6l21.1,13.8
		l4.8,3.1l-1.3-1.4l-4.5,18.6l-0.6,2.7c-0.2,1.1,3.1,2.5,3.9,2.6l17.6,0.9l27.9,1.4l6.4,0.3c1,0-0.1-0.9-0.4-1.2
		c-0.9-0.8-1.9-1.3-3.1-1.5l-17.6-0.9l-27.8-1.4l-6.4-0.3l3.9,2.6l4.5-18.5l0.6-2.7c0.1-0.5-1-1.2-1.3-1.4l-13.2-8.6l-21.1-13.8
		l-4.8-3.1c-0.4-0.3-2.4-1.6-3-1.1c-3.3,3.1-6.3,6.5-9.1,10.1c-6.7,8.3-12.2,17.4-16.5,27.1c-2.6,5.9-4.5,12.1-5.8,18.4
		c-0.7,3.4-1.2,6.8-1.5,10.2c-0.2,2.3-0.3,4.7-0.1,7c0.5,5.7,3.8,10.6,7.9,14.5c5.4,5.1,12.2,8.8,19.1,11.8
		c7.7,3.2,15.6,5.8,23.7,7.7c8.6,2.1,17.2,3.7,26,5c8,1.2,16.1,2.2,24.2,2.9c6.2,0.6,12.5,1,18.8,1.4c3.1,0.2,6.2,0.3,9.3,0.4h0.4
		c1,0-0.1-0.9-0.4-1.1C326.1,312.4,325,311.9,323.9,311.7L323.9,311.7z" fill="#000005"></path><path class="st0" d="M469.8,374.5c0,0-63.2-121.9-121.2-119.9s-26.1,122.6-26.1,122.6L469.8,374.5z" fill="#FFFFFF"></path><path class="st1" d="M471.6,374.4c-2.1-4.1-4.4-8-6.6-12c-5.7-9.9-11.8-19.6-18.1-29.1c-8-12.1-16.8-23.7-26.2-34.8
		c-9.6-11.2-20.1-21.9-32.1-30.6c-10.1-7.4-21.8-13.8-34.4-15.1c-10.5-1.2-21.2,1.2-28.7,9c-7.2,7.4-10.5,18-12.2,27.9
		c-2,11.8-1.9,23.9-1.1,35.7c0.8,10.9,2.3,21.8,4.3,32.6c1.1,6,2.3,11.9,3.8,17.8c0.1,0.3,0.1,0.6,0.2,0.8c0.4,1.4,1.7,2.3,3.1,2.4
		l14.7-0.3l35.3-0.6l42.4-0.8l36.9-0.6l12.1-0.2c1.9,0,3.8,0,5.8-0.1h0.2C472,376.5,472,375.2,471.6,374.4c-0.6-1.1-1.6-1.8-2.9-1.9
		l-14.7,0.3l-35.3,0.6l-42.4,0.8l-36.9,0.6l-12.1,0.2c-1.9,0-3.9,0-5.8,0.1h-0.2l3.1,2.4c-1.1-4-2-8.1-2.8-12.2
		c-2-9.8-3.5-19-4.6-29c-1.4-11.7-1.7-23.5-0.9-35.3c0.8-10.2,2.9-21.3,8.3-30c2.4-3.9,5.5-7.3,9.3-9.8c4.2-2.6,8.9-4.2,13.8-4.5
		c11.7-1,23,3.5,32.6,9.4c11.7,7.2,21.9,16.7,31.3,26.8c9.7,10.7,18.8,22.1,27,34c7,10,13.3,19.7,19.6,30.3c3.2,5.5,6.4,11,9.4,16.6
		c0.1,0.2,0.3,0.5,0.4,0.8c0.5,1.1,1.6,1.8,2.9,1.9C472,376.4,472,375.2,471.6,374.4z" fill="#000005"></path><path class="st0" d="M309.8,172.1c0,0-10.2,15.8-23.5,17.2s-39.6,0.4-40.6,13.9s17.4,15.7,28.4,12c0,0,1.9,35.2,23.7,41.8
		s30.6-0.5,34,13.5c0,0,28.8,20.8,27.7-6.3c-0.2-4.2,2.6-57.1-31.2-69.1C328.2,195.1,309.1,189.4,309.8,172.1z" fill="#FFFFFF"></path><path class="st1" d="M308.1,170.4c-3.4,5.2-7.8,9.6-13,13c-1.9,1.3-4.1,2.3-6.3,3.1c-2,0.6-4.1,0.9-6.1,1
		c-4.1,0.4-8.2,0.5-12.3,0.9c-4.3,0.3-8.6,0.9-12.8,1.9c-3.4,0.8-7.1,2-9.9,4.3c-6.5,5.3-4.4,14.9,1.4,19.8
		c3.4,2.9,7.9,4.2,12.3,4.6c4.6,0.5,9.3,0,13.7-1.5l-2.9-3.1c0.4,5.7,1.4,11.3,3.1,16.8c2.9,9.8,8.1,19.7,17,25.3
		c5.4,3.4,12.2,4.5,18.4,5.4c4.7,0.6,9.6,0.5,14.1,1.8c0.7,0.2,1.4,0.5,2,0.8l0.2,0.1c0.3,0.1-0.3-0.2,0,0l0.5,0.3
		c0.2,0.1,0.3,0.3,0,0c0.2,0.2,0.4,0.4,0.5,0.5s-0.1-0.2-0.1-0.2l0.2,0.3l0.3,0.5c-0.4-0.6,0.1,0.1,0.1,0.3s0.2,0.5,0.4,0.7
		c-0.2-0.4,0,0.1,0.1,0.2c0.1,0.3,0.2,0.6,0.3,0.9c0.2,0.5,0.3,1,0.4,1.5c0.7,2.6,3.5,3.9,5.6,5.1c3,1.8,6.1,3.3,9.4,4.4
		c3.1,1,6.8,1.8,10,0.6c6.9-2.5,6.2-11.1,6.2-17.1c0-7.1-0.4-14.2-1.5-21.3c-1.5-9.7-4.2-19.5-9.1-28.1
		c-5.2-9.1-13.1-16.8-23.1-20.2l-0.7-0.2c-0.2-0.1-0.6-0.2-0.3-0.1l-0.9-0.3c-1.5-0.7-3-1.4-4.4-2.3c-1.7-1-3.2-2.2-4.6-3.6
		c-1.5-1.5-2.8-3.2-3.6-5.1c-1-2.5-1.5-5.1-1.4-7.8c-0.1-1.2-0.7-2.3-1.6-3c-0.6-0.4-1.9-0.9-1.9,0.3c-0.4,12.6,9.2,22.4,20.5,26.3
		c5,1.8,9.6,4.7,13.4,8.5c1,1,2,2.1,2.8,3.3c0.5,0.6,0.9,1.2,1.4,1.9c0.2,0.3,0.4,0.6,0.6,1l0.3,0.4c0.1,0.1,0.1,0.2,0.2,0.3
		c1.6,2.7,3,5.4,4.1,8.3c2.2,5.7,3.8,11.6,4.7,17.6c0.5,2.7,0.8,5.5,1,8.3c0.1,1.3,0.2,2.6,0.3,3.8c0.1,1.1,0.1,2.2,0.2,3.1
		c0.1,2.9,0.1,5.8,0.1,8.7c0,4.4,0.1,10.4-4.5,12.8c-1.8,0.8-3.7,1-5.6,0.7c-1.1-0.2-2.2-0.4-3.3-0.7c-1-0.3-2-0.7-3-1.1
		c-2-0.8-3.9-1.8-5.7-2.9c-0.7-0.4-1.5-0.9-2.2-1.3c-0.5-0.3,0.3,0.2,0,0l-0.4-0.2l-0.6-0.4l-0.5-0.4l1.6,2.6
		c-0.8-3.3-2-6.5-4.5-8.9c-1.9-1.8-4.3-3-6.9-3.4c-3.1-0.6-6.4-0.7-9.6-1.1c-4.5-0.5-9.1-1.3-13.5-2.5c-3.5-0.9-6.8-2.5-9.6-4.8
		c-0.5-0.4-1-0.9-1.4-1.3l-0.9-0.9l-0.3-0.4l-0.3-0.4c0.1,0.1,0.1,0.1,0,0c-0.5-0.6-1-1.3-1.5-1.9c-0.5-0.8-0.9-1.3-1.2-1.8
		c-3.1-5.4-5.3-11.2-6.5-17.2c-0.8-3.5-1.3-7-1.6-10.6c0-1-1.6-3.5-2.9-3.1c-6.7,2.2-15.5,2.7-21.9-1.1c-0.2-0.1-0.5-0.3-0.8-0.5
		l-0.6-0.4c0,0-0.3-0.3-0.1-0.1c-0.3-0.3-0.6-0.5-0.8-0.9c0.4,0.5-0.6-1-0.3-0.4c-0.8-1.3-1.1-2.8-1.1-4.3c0-3,1.5-5.8,4-7.4
		c2.9-1.9,6.3-3.2,9.7-3.8c4.1-0.8,8.2-1.4,12.3-1.6c3.9-0.3,7.8-0.5,11.7-0.8c4.2-0.3,8.3-1.5,12-3.7c5.8-3.6,10.8-8.4,14.5-14.2
		C312.4,172.5,309.2,168.7,308.1,170.4z" fill="#000005"></path><path class="st1" d="M367.6,234.7c0,0,17.9,6.3,21.7-3.4s-8.2-8.2-8.2-8.2s15.2-19.1-3.2-24.3c0,0,16.7-14.1,5.6-29.4
		s-36.1-8-36.1-8s2.4-22-16.8-20.8s-15.6,14.9-15.6,14.9s-12.3,0.6-13.2,8.2s8,11.3,8,11.3s1.7,22,18.5,20.1l13.8,28.5
		c0,0-6.4,9.5-1.1,20.2S367.3,248.8,367.6,234.7z" fill="#000005"></path><path class="st1" d="M366,236.4c5.3,1.9,11.6,2.9,17.2,1.5c4.2-0.9,7.5-4,8.7-8.1c1-3.4-0.1-6.5-3.4-7.9c-2.2-0.8-4.6-1.1-7-0.7
		l1.3,2.4c1.8-2.3,3.3-4.8,4.5-7.5c1.8-4.2,3.1-9.5,0.5-13.6c-1.9-2.9-5.1-4.6-8.4-5.5l-0.2,2.8c7.5-6.3,12.8-16.8,9.3-26.5
		c-2.5-6.4-7.6-11.3-14.1-13.6c-5.5-1.8-11.4-2.5-17.2-1.9c-3.4,0.2-6.7,0.8-9.9,1.7l2.4,1.4c0.7-6.4-0.6-13.9-5.5-18.4
		c-4.6-4.4-11.7-4.5-17.6-3.3c-5.3,1.1-10.9,3.7-13.2,9c-1.1,2.5-1.4,5.3-0.9,7.9l2.8-2.6c-4.3,0.2-8.5,1.6-12,4.1
		c-2.6,1.8-4.1,4.8-4.1,7.9c0.2,3.1,1.6,6,4,7.9c1.4,1.3,3.1,2.3,4.8,3.1l-0.8-1c0.6,7.1,3.7,15.6,10.2,19.3
		c3.1,1.7,6.7,2.3,10.2,1.9l-1.7-0.7l12.1,25l1.7,3.5l0.1-1.3c-1.8,2.8-2.9,6-3.3,9.4c-0.6,5.1,0.4,11.5,4.3,15.2
		c6.1,5.7,16.6,3.2,22.5-1.5c3.9-3,6.3-7.6,6.5-12.5c0-1.2-1.7-1.2-2.5-1c-1.2,0.3-2,1.2-2.2,2.4c-0.1,3.2-1.5,6.2-3.8,8.4
		c-2.1,1.9-4.6,3.1-7.3,3.6c-2.7,0.6-5.5,0.1-7.9-1.3c-3.5-2.2-4.8-6.8-5-10.7c-0.2-3.7,0.6-7.3,2.3-10.5c0.4-0.8,1-1.4,0.7-2.4
		c-0.1-0.3-0.3-0.7-0.5-1l-7-14.5l-6.3-13c-0.3-0.6-1.1-0.7-1.7-0.7c-4.8,0.5-9.4-1.7-12.1-5.7c-2.2-3.3-3.6-6.9-4.2-10.8
		c-0.2-0.9-0.3-1.7-0.4-2.6c-0.1-0.5-0.4-0.8-0.8-1c-1.1-0.4-2.1-1-3-1.8c-1.9-1.3-3.3-3.2-4-5.4c-0.4-1.3-0.3-2.6,0-3.9
		c0.2-0.4,0.4-0.9,0.6-1.2c-0.1,0.2,0.2-0.3,0.3-0.4l0.2-0.3c0.5-0.5-0.2,0.1,0.1-0.1s0.4-0.4,0.6-0.5c0,0,0.3-0.2,0.1-0.1
		s0.2-0.1,0.2-0.1c0.5-0.3,1.1-0.6,1.6-0.8c-0.4,0.2,0.2-0.1,0.4-0.1l0.8-0.3c0.5-0.1,1-0.3,1.5-0.4l0.4-0.1c-0.2,0-0.2,0,0,0
		s0.5-0.1,0.8-0.1s0.8-0.1,1.2-0.2s0.8-0.1,1.2-0.1c1-0.1,3.1-1.3,2.8-2.6c-0.1-0.5-0.2-1-0.2-1.6c0-0.5,0-1.1,0-1.6
		c0-0.1,0-0.3,0-0.4c0,0.4,0-0.1,0-0.2c0.1-0.4,0.1-0.7,0.2-1.1c0.3-1.4,1-2.7,2-3.8c0.1-0.1,0.7-0.6,0.3-0.3
		c0.2-0.2,0.4-0.3,0.6-0.5s0.4-0.3,0.6-0.4s0.4-0.3,0,0c0.1-0.1,0.3-0.2,0.4-0.2c1.1-0.6,2.2-1.1,3.5-1.4c4.9-1.3,11-1.5,15,1.9
		c2.9,2.4,4.4,6.1,5,9.7c0.3,1.7,0.4,3.3,0.4,5c0,0.5,0,1.1,0,1.6c0,0.2-0.1,1.1,0,0.2c-0.2,1.5,1.2,1.8,2.4,1.4l0.5-0.1l0.6-0.1
		c0.2,0,1.2-0.3,0.4-0.1c1.7-0.4,3.4-0.6,5.1-0.9c4.8-0.7,9.7-0.5,14.5,0.6c5.9,1.3,10.9,5,14,10.1c3,5.2,3.1,11.7,0.2,17
		c-1.1,2.2-2.5,4.3-4.2,6.1c-0.5,0.6-1.1,1.2-1.7,1.8s0.2-0.2-0.1,0.1l-0.2,0.2c-0.7,0.6-1.8,2.3-0.2,2.8c2.5,0.7,5.1,1.8,6.7,4
		c1.2,1.6,1.7,3.6,1.6,5.6c-0.2,3.7-1.9,7.2-4,10.4c-0.4,0.6-0.8,1.1-1.2,1.7c-0.2,0.2,0.4-0.5,0.1-0.1l-0.1,0.2
		c0,0.1-0.1,0.1-0.1,0.2c-1,1.3-0.4,2.7,1.3,2.5h0.4h0.4c0.6-0.1-0.4,0,0.2,0c0.4,0,0.9,0,1.3,0.1c0.3,0,0.5,0,0.8,0.1l0.4,0.1h0.2
		c1,0.2,1.9,0.6,2.6,1.3c0.3,0.4,0.5,0.8,0.7,1.3c0.1,0.6,0.1,1.1,0,1.7c-0.1,0.8-0.3,1.5-0.6,2.2c-0.2,0.7-0.7,1.3-1.2,1.7
		c-0.3,0.3,0.4-0.3-0.1,0.1l-0.4,0.3c-0.6,0.4,0.5-0.2-0.2,0.1l-0.4,0.2l-0.4,0.2c0.5-0.2-0.2,0.1-0.2,0.1c-0.4,0.1-0.7,0.2-1.1,0.3
		c0.3-0.1-0.6,0.1-0.8,0.1c-0.4,0.1-0.8,0.1-1.2,0.1c-0.7,0.1-1.4,0.1-2.1,0c-1.5-0.1-3-0.3-4.5-0.5c-1.8-0.3-3.5-0.8-5.2-1.4
		c-1.2-0.3-2.5,0.1-3.3,1.1C365.2,234.7,364.9,236,366,236.4z" fill="#000005"></path><path class="st0" d="M320.4,203.8c0,0,8.5-19.5,18.9-15.6s11.8,37.6-7.2,35" fill="#FFFFFF"></path><path class="st1" d="M322.8,204.6c0.1-0.3,0.3-0.6,0.4-0.9c0.4-0.8,0.7-1.5,1-2c1.2-2.3,2.7-4.5,4.3-6.5c1.6-2.1,3.6-3.8,5.9-5.1
		c0.5-0.2,1.1-0.4,1.6-0.6c0.4-0.1,0.9-0.1,1.3-0.1c0.1,0,1,0.2,0.5,0c0.3,0.1,0.7,0.2,1,0.3c-0.1,0-0.4-0.2,0,0l0.6,0.3
		c-0.6-0.4,0,0,0.1,0.1l0.5,0.5c0.4,0.4-0.2-0.3,0.2,0.2c0.1,0.2,0.3,0.4,0.5,0.6c0.3,0.4,0.6,0.8,0.8,1.2c0.3,0.4,0-0.1,0.2,0.3
		c0.1,0.2,0.2,0.5,0.4,0.8c1,2,1.6,4.2,1.9,6.4c0.9,4.8,0.4,9.8-1.3,14.4c-0.8,2.2-2.3,4-4.1,5.4c-1.9,1.3-4.3,1.8-6.6,1.4
		c-1-0.1-2.4,0.4-2.3,1.6s1.5,2,2.6,2.1c5.7,0.7,11.1-1.5,14-6.6c2.7-4.8,3.4-10.7,2.8-16.1c-0.5-4.9-2.1-10.4-5.9-13.9
		c-2.3-2-5.2-2.9-8.2-2.6c-3.3,0.3-6.1,2.2-8.4,4.4c-3.6,3.7-6.5,8.1-8.5,12.9C317.1,205.2,321.8,206.8,322.8,204.6L322.8,204.6z" fill="#000005"></path><path class="st1" d="M301.8,194.5c0,0-2.7,0.7-1.8,3.3s4.1,1.4,4-1c0.1-1.1-0.7-2.2-1.9-2.3C302,194.5,301.9,194.5,301.8,194.5z" fill="#000005"></path><path class="st1" d="M293.9,226.9l0.6,0.2l0.3,0.1c0.2,0.1,0,0-0.1,0c0.4,0.2,0.8,0.3,1.1,0.5s0.7,0.4,1,0.6l0.5,0.4l0.2,0.1
		c0.3,0.2-0.2-0.2,0.1,0.1c1.3,1,2.3,2.2,3.1,3.6c0.2,0.3,1,0.4,1.3,0.5c0.6,0.1,1.3,0,1.9-0.2c0.7-0.2,2-0.8,1.4-1.8
		c-1.9-3.1-4.9-5.3-8.4-6.3c-0.6-0.1-1.2-0.1-1.8,0c-0.6,0.1-1.2,0.3-1.7,0.7c-0.3,0.2-0.7,0.6-0.6,1
		C293.2,226.6,293.5,226.9,293.9,226.9L293.9,226.9z" fill="#000005"></path><path class="st0" d="M329.9,238.9c0,0-12.6-11-14.1-24.1s12.4-23.4,12.4-23.4s-19.8-1.5-16.1-9.7s23.4-3.6,23.4-3.6
		c-3.7-4.7-14.2-6.6-16-11.2s6.7-7.5,17-4.1s17.9,12.4,17.9,12.4s1.1-2.4-6.3-12.9s3.1-16.8,12.9-5.6s15,19.1,9.4,35.9
		c0,0-15.8,39.9-14,45.9" fill="#FFFFFF"></path><path class="st1" d="M331.3,237.6c-4.9-4.2-8.8-9.5-11.4-15.4c-1.9-4.5-2.7-9.2-1.3-13.9c1.3-3.8,3.4-7.3,6.1-10.2
		c1.5-1.8,3.3-3.4,5.1-4.9c1.6-1.2-0.5-3.9-1.9-4c-2-0.2-4-0.5-6-0.9c-1.6-0.3-3.1-0.7-4.6-1.3c-0.4-0.1-0.8-0.3-1.2-0.5
		c-0.2-0.1-0.4-0.2-0.5-0.3c-0.6-0.3,0.4,0.3-0.1-0.1l-0.8-0.5l-0.4-0.3c0.6,0.5,0,0-0.1-0.2s-0.3-0.6,0,0c-0.1-0.1-0.2-0.3-0.3-0.4
		c-0.2-0.5,0.3,0.4,0,0c-0.1-0.1-0.1-0.6,0,0c0-0.2,0-0.9,0-0.4c0-0.3,0.1-0.6,0.2-0.9c0.6-1.4,1.6-2.4,3-3
		c3.3-1.5,7.5-1.5,10.9-1.2c2.6,0.2,5.2,0.6,7.7,1.1c0.8,0.2,1.6-0.2,1.9-1c0.2-0.9-0.1-1.8-0.7-2.4c-2.8-3.4-7.2-5.1-11-7
		c-0.8-0.4-1.6-0.8-2.3-1.3c-0.4-0.2-0.8-0.5-1.1-0.8c0,0-0.4-0.3-0.1-0.1c-0.2-0.2-0.3-0.3-0.5-0.5c-0.5-0.6,0.2,0.4-0.1-0.2
		c-0.1-0.1-0.2-0.2-0.2-0.4c0.1,0.2,0-0.2,0-0.2c0-0.6,0,0.3,0-0.1c0-0.1,0.1-0.5,0-0.1c0-0.1,0.1-0.2,0.2-0.3
		c0.2-0.4,0.1-0.2,0.3-0.4c2.7-2.7,8.3-2,11.8-1.3c5,1.2,9.6,3.5,13.5,6.8c2.2,1.7,4.1,3.5,5.9,5.6c0.7,0.9,2.8,1.6,3.4,0.1
		c0.8-1.8-0.3-4.3-1.1-6c-1.3-2.7-2.8-5.3-4.5-7.8c-1.5-2.2-3.3-4.6-3-7.2c0.2-1.5,1.5-2.7,3.1-2.7c2.4-0.2,4.9,1.3,6.7,2.9
		c2.4,2.3,4.5,4.7,6.4,7.4c1.6,2.1,3,4.3,4.2,6.6c3.6,7.6,2.1,16-0.9,23.6c-2.8,7.2-5.5,14.5-7.9,21.8c-1.4,4.2-2.8,8.4-3.9,12.7
		c-0.8,2.9-1.7,6-1.6,9c0,0.5,0.1,1.1,0.3,1.6c0.7,2.5,4.9,2.8,4.1-0.4c-0.1-0.2,0,0.6,0.1,0.2c0-0.1,0-0.2,0-0.3c0-0.1,0-0.8,0-0.5
		s0-0.4,0-0.6c0-0.3,0.1-0.6,0.1-1c0.2-1.6,0.6-3.2,1-4.7c1-4.2,2.4-8.3,3.7-12.4c2.5-7.6,5.3-15.2,8.2-22.7
		c3.3-8.5,5-17.8,1.1-26.4c-2.5-5.7-6.6-10.8-10.8-15.3c-3.6-3.8-10.7-8.7-15.9-4.8c-1.8,1.6-2.7,4-2.3,6.3c0.4,3.6,2.6,6.4,4.5,9.3
		c0.9,1.4,1.7,2.7,2.5,4.1c0.5,0.8,0.9,1.7,1.2,2.5c0.1,0.3,0.2,0.7,0.4,1l0.1,0.4c0.2,0.5,0-0.3,0,0s0,0.4,0.1,0.6
		c0.1,0.5,0-0.1,0-0.1c0,0.4,0,0,0.1-0.2l3.4,0.2c-1.9-2.2-4.1-4.3-6.4-6.1c-4.5-3.7-9.7-6.4-15.3-7.9c-4.6-1.1-11.1-1.8-15.1,1.4
		s-0.8,8,2.4,10.3c2.2,1.4,4.6,2.7,7,3.8c2.2,1.1,4.4,2.3,5.8,3.9l1.1-3.5c-2.4-0.5-4.9-0.9-7.4-1.1c-4.4-0.4-9.2-0.5-13.3,1.3
		c-3.8,1.7-6.4,5.8-4.4,9.9c1.9,3.6,6.2,5.2,9.9,6.2c2.7,0.8,5.6,1.3,8.4,1.5l-1.9-4c-5.3,3.9-9.3,9.3-11.7,15.4
		c-3.6,10.4,1.5,20.8,7.9,28.8c1.8,2.3,3.7,4.4,5.9,6.3c0.8,0.7,2.1,1.4,3.1,0.6S332.1,238.3,331.3,237.6L331.3,237.6z" fill="#000005"></path><path class="st2" d="M332.8,333.4c0,0,2.9,26.8-36.3,45.9h-29.6l7.6-31.6c0,0,23-6.7,31.6-35.4L332.8,333.4z" fill="#59BE4C"></path><path class="st2" d="M329.4,333.7c0.2,3.4-0.2,6.8-1.3,10c-2.5,8.5-7.9,16-14.3,21.9c-5.9,5.3-12.6,9.7-19.8,13.1l3.2-0.6h-29.7
		l2.6,0.9l6.7-27.6l1-3.9l-1.6,1.1c3.3-1.1,6.5-2.6,9.4-4.5c6.5-4,12.1-9.5,16.3-15.9c3.3-5,5.8-10.5,7.4-16.2l-6.6,0.9l23.5,18.4
		l3.3,2.6c1.1,0.9,2.9,0.6,4.2,0.4c0.3-0.1,3.2-0.8,2.2-1.6l-23.5-18.4l-3.3-2.6c-1-0.8-2.6-0.6-3.8-0.5c-0.9,0.1-2.5,0.3-2.8,1.4
		c-2.7,9.1-7.6,17.4-14.3,24.1c-2.3,2.3-4.9,4.3-7.6,6.1c-0.5,0.4-1.1,0.7-1.7,1l-0.8,0.5c-0.1,0.1-1,0.6-0.5,0.3
		c-0.9,0.5-1.8,0.9-2.8,1.4c-0.7,0.3-1.4,0.6-2.1,0.9c-0.5,0.2,0.8-0.2,0.3-0.1l-0.2,0.1c-0.1,0-0.1,0-0.2,0.1
		c-0.6,0.2-1.4,0.4-1.6,1.1l-6.7,27.6l-1,3.9c-0.2,0.8,2.3,0.9,2.6,0.9h25.8c2.7,0,5.4,0.2,7.9-1c15.6-7.8,30.9-19.9,35.4-37.5
		c0.8-2.9,1.2-5.9,1-8.9C336,331.5,329.2,332.1,329.4,333.7z" fill="#59BE4C"></path><path class="st0" d="M409.2,359.5c0,0-101.7-27.4-114.1-60s17-83.4,17-83.4l54.8,15.6L355.7,276l27.3,5.2" fill="#FFFFFF"></path><path class="st1" d="M409.8,357.4c-7.5-2-15-4.4-22.5-6.8c-15.8-5.1-31.4-11.2-46.5-18.1c-7.6-3.5-14.9-7.4-22-11.9
		c-3.2-2-6.3-4.2-9.3-6.6l-1-0.9l-0.5-0.4c-0.6-0.5,0.4,0.4-0.1-0.1s-1.3-1.1-1.9-1.7c-1.2-1.1-2.3-2.3-3.4-3.5
		c-0.5-0.6-1-1.2-1.5-1.8c-0.2-0.3-0.5-0.6-0.7-0.9l0,0.1l-0.4-0.6c-0.8-1.1-1.5-2.4-2.1-3.6l-0.4-0.9c0-0.1-0.2-0.6,0,0l-0.2-0.6
		c-0.4-1.1-0.8-2.2-1.1-3.4c-0.6-2.3-1.1-4.6-1.4-7c-1.2-10.1,0.3-20.3,2.8-30c2.4-9.1,5.5-17.9,9.3-26.4c0.4-0.9,0.8-1.8,1.2-2.6
		s0.8-1.7,1-2.1c0.7-1.4,1.3-2.8,2-4.1c0.9-1.7,1.8-3.4,2.7-5.1l0.4-0.7l-2.7,0.7l18.5,5.3l29.5,8.4l6.8,1.9l-1.7-3l-3.7,14.9
		l-6,23.9l-1.4,5.5c-0.3,1.5,0.7,2.8,2.1,3.1c0.1,0,0.1,0,0.2,0l23.8,4.5l3.4,0.6c1.1,0.2,2.1-0.5,2.4-1.6c0-0.1,0-0.3,0-0.4
		c-0.1-1.3-1.1-2.3-2.4-2.5l-23.8-4.5l-3.4-0.6l2.3,3.1l3.7-15l6-23.9l1.4-5.5c0.3-1.3-0.5-2.6-1.7-3l-18.5-5.3l-29.5-8.4l-6.8-1.9
		c-1-0.4-2.1-0.1-2.7,0.7c-1.9,3.3-3.6,6.8-5.3,10.3c-3.9,8.1-7.2,16.5-9.9,25.1c-3,9.9-5.2,20.2-5.2,30.6c0,8.4,1.3,17.6,6,24.8
		c3.9,5.9,9.4,10.7,15.1,14.8c6.9,4.9,14.1,9.2,21.7,12.9c15.5,7.7,31.6,14.3,48,19.7c9.1,3.1,18.3,6.1,27.6,8.6l0.4,0.1
		c1.1,0.3,2.5,0.1,2.9-1.2C411.8,359.1,411.1,357.8,409.8,357.4L409.8,357.4z" fill="#000005"></path><path class="st2" d="M361,115.6c-0.8,7.2,0.3,14.5,3,21.2c0.6,1,1.5,1.7,2.5,2.1c0.6,0.4,2.5,1.4,3.2,0.9
		c14.5-8.9,30.2-15.7,46.6-20.2l-5.7-3.4c-3.8,12-9.4,23.3-16.6,33.6c-0.4,0.5,1.2,1.6,1.4,1.7c1,0.7,2.1,1.3,3.4,1.6l35.3,5.9
		l-4.8-3.3l-22.4,20c-1.4,1.2-3.7,2.7-2.4,4.9c0.7,0.9,1.6,1.8,2.5,2.5l2.6,2.3l11.5,10c1.2,1.1,2.6,1.9,4.2,2.3
		c1.1,0.2,1.6-0.3,0.6-1.2l-10.8-9.4l-2.6-2.3c-0.7-0.6-2.1-1.4-2.4-2.3s0.7-1.8,1.2-2.3c0.9-0.8,1.7-1.5,2.6-2.3l21.3-19
		c0.9-0.8-4.2-3.2-4.8-3.3l-35.3-5.9l4.8,3.3c7.2-10.3,12.8-21.6,16.6-33.6c0.3-0.9-1.6-1.9-2.1-2.2c-0.9-0.5-2.5-1.5-3.6-1.2
		c-16.4,4.6-32.1,11.4-46.6,20.2l5.7,3.1c-2.7-6.5-3.7-13.6-3-20.7c0.1-1.1-1.8-2-2.5-2.4C364.2,116.2,361.1,114.8,361,115.6
		L361,115.6z" fill="#59BE4C"></path></g><g id="error"><path class="st1" d="M109.4,78.2h94.3c9,0,16.3,7.3,16.3,16.3v51.5c0,9-7.3,16.3-16.3,16.3h-94.3c-9,0-16.3-7.3-16.3-16.3V94.5
		C93.1,85.5,100.4,78.2,109.4,78.2z"></path><path class="st1" d="M203.9,160.4h-94c-3.2,0-6.3-1-8.8-3c-3.4-2.8-5.4-7.1-5.4-11.5c0-1.6,0-3.1,0-4.7V98.4c0-1.3,0-2.6,0-3.9
		c0-5.1,2.6-9.9,6.9-12.6c3.6-2.2,7.4-2,11.4-2h82.8c2.9-0.1,5.8-0.1,8.6,0.1c5.1,0.7,9.4,4.3,11.2,9.1c0.7,2.2,1,4.6,0.9,6.9v41.7
		c0,5.1,0.6,10.7-1.8,15.3C213.4,157.5,208.9,160.3,203.9,160.4c-1,0-2.5,0.4-2.6,1.7s1.4,1.9,2.4,1.9c6.1,0.1,11.9-2.8,15.5-7.7
		c2.2-3.2,3.4-6.9,3.4-10.8v-49c0.1-2.4-0.2-4.8-0.8-7.1c-1.8-5.7-6.3-10.2-11.9-12c-2.3-0.7-4.6-1.1-7-1H110
		c-3.4-0.1-6.7,0.7-9.8,2.2c-5.2,2.7-8.7,7.8-9.5,13.6c-0.1,1.7-0.2,3.3-0.1,5v33.2c0,5,0,10.1,0,15.1c0.1,10.3,8.6,18.2,18.8,18.3
		c3.1,0,6.2,0,9.3,0h85c1,0,2.5-0.4,2.6-1.6S204.8,160.4,203.9,160.4z"></path><path class="st1" d="M183.6,155.9c0,0,20.5,30.8,22.4,25.6s-0.6-35.2-0.6-35.2L183.6,155.9z"></path><path class="st1" d="M181.3,156.7c2,3.1,4.1,6.1,6.3,9.1c3.4,5,7.2,9.7,11.3,14.2c1.3,1.4,2.9,3,4.8,3.5c1.4,0.4,2.9,0,4-0.9
		c0.6-0.6,1-1.4,1.1-2.3c0.4-2.7,0.5-5.4,0.4-8.1c0-3.6-0.1-7.1-0.3-10.7c-0.3-5.2-0.6-10.5-1-15.7c-0.1-1.3-2.6-1.1-3.4-0.8
		l-19.1,8.4l-2.7,1.2C181.9,154.9,180.7,155.7,181.3,156.7c0.6,1,2.4,0.8,3.2,0.4l19.1-8.4l2.7-1.2l-3.3-0.8c0.3,4,0.6,8,0.8,12
		c0.5,6.3,0.7,12.7,0.4,19c0,1-0.2,2-0.4,3c-0.1,0.3-0.2,0.6-0.2,0.9c0-0.2,0.1-0.3,0.3-0.4c0.6-0.4,1.2-0.6,1.8-0.6
		c-0.1,0,0.7,0.1,0.4,0s0.5,0.1,0.3,0.1c-0.1,0-0.2-0.1-0.3-0.1c0.3,0.3,0.2,0.1,0-0.1s-0.4-0.2-0.5-0.4c-0.7-0.5-1.3-1.1-1.9-1.7
		c-3.9-4.2-7.5-8.7-10.8-13.4c-2.4-3.3-4.7-6.6-6.9-10C184.9,153.5,180.1,154.9,181.3,156.7z"></path><path class="st0" d="M132.2,106.4l8.4,5.6c1.1,0.5,2.5,0.4,3.4-0.4c0.8-0.6,1.3-1.6,0.3-2.3l-8.4-5.6c-1.1-0.5-2.4-0.4-3.4,0.4
		C131.8,104.7,131.2,105.7,132.2,106.4L132.2,106.4z"></path><path class="st0" d="M135.1,112c0-0.1,0.1-0.1,0.1-0.2l-0.3,0.5c1.4-2,3.1-3.7,4.9-5.3l-0.5,0.4c0.7-0.6,1.4-1.1,2.2-1.7
		c0.5-0.3,0.9-0.8,1-1.4c0.1-0.6-0.1-1.2-0.5-1.7c-0.9-1-2.3-1.3-3.5-0.6c-1.6,1.1-3.1,2.4-4.5,3.8c-1.3,1.3-2.5,2.7-3.5,4.2
		c-0.3,0.5-0.3,1.2,0,1.7c0.3,0.6,0.7,1,1.3,1.2c0.6,0.3,1.3,0.3,1.9,0.1l0.6-0.3C134.7,112.6,135,112.4,135.1,112L135.1,112z"></path><path class="st0" d="M163.5,105c2.4,2.2,5,4.1,7.8,5.8c0.5,0.3,1.1,0.5,1.7,0.5c0.6,0.1,1.2,0,1.8-0.2c0.3-0.2,0.8-0.4,0.8-0.9
		c0-0.4-0.3-0.8-0.6-1c-1.3-0.8-2.6-1.7-3.9-2.6c-0.6-0.4-1.2-0.9-1.7-1.3l-0.2-0.2c-0.2-0.1,0,0,0.1,0.1c-0.1-0.1-0.3-0.2-0.4-0.3
		c-0.3-0.2-0.6-0.5-0.9-0.8c-0.9-0.8-2.2-1.1-3.4-0.8c-0.4,0.1-1,0.3-1.2,0.7C163.2,104.3,163.2,104.7,163.5,105L163.5,105z"></path><path class="st0" d="M167.7,110.5c2.2-2.4,4.6-4.6,7.3-6.4c0.2-0.1,0.4-0.2,0.1-0.4s-1,0-1.2,0.1c-0.6,0.1-1.3,0.3-1.9,0.5
		c-0.5,0.1-0.9,0.3-1.4,0.6c-2.9,1.9-5.5,4.2-7.8,6.7c-0.2,0.2,0.2,0.2,0.3,0.2c0.5,0,1-0.1,1.5-0.2c0.6-0.1,1.2-0.3,1.8-0.6
		C167,111,167.4,110.8,167.7,110.5L167.7,110.5z"></path><path class="st0" d="M138.3,135.4l0.1-4.8l-0.4,0.1h34.5c1.7-0.1,3.3-0.1,5,0l-2.9-0.7l0.3,0.1l-1.1-0.5c0.8,0.6,0.7,2.8,0.8,3.8
		l0.5,4.2c0.1,0.5,2,0.9,2.3,1c0.2,0,2.5,0.5,2.5,0.3c-0.3-2.2-0.5-4.4-0.8-6.6c-0.1-0.8-0.1-1.4-0.9-1.8c-1.1-0.6-2.3-0.9-3.6-1.1
		c-2.2-0.2-4.3-0.3-6.5-0.2h-6.7H134c-0.1,0-0.3,0-0.4,0.1l-0.1,4.7C133.5,135,138.3,135.6,138.3,135.4L138.3,135.4z"></path></g><g id="device"><path class="st1" d="M468.6,374.7c-3,0-6,0-8.9,0.1l-21.6,0.2l-31.2,0.3l-37.8,0.4l-41.1,0.4l-41.5,0.4l-38.8,0.4l-33.1,0.3
		l-24.2,0.2l-12.3,0.1h-0.8c-1.2,0-2.3,0.5-3.2,1.4c-0.4,0.4-1.3,1.6-0.1,1.6c3,0,6,0,8.9-0.1l21.6-0.2l31.2-0.3l37.8-0.4l41.1-0.4
		l41.5-0.4l38.8-0.4l33-0.3l24.2-0.2l12.3-0.1h0.8c1.2-0.1,2.3-0.6,3.1-1.4C468.9,375.9,469.8,374.7,468.6,374.7L468.6,374.7z"></path><path class="st0" d="M198.4,389.3c0,0-24.1,27.5-22,27.9s213.7,0,214.6-2.2s-20.2-24.1-21.5-25.7S198.4,389.3,198.4,389.3z"></path><path class="st2" d="M197.2,388.4c-5.2,5.9-10.3,11.9-15.2,18c-1.5,1.8-2.9,3.6-4.3,5.5c-1,1.2-1.8,2.5-2.5,3.8
		c-0.5,1.1-0.3,2.6,1.2,2.9c0.3,0,0.7,0.1,1,0c3.4,0.1,6.8,0.1,10.3,0.1c6.8,0,13.5,0,20.3,0c9.2,0,18.3,0,27.5,0l31.8-0.1
		c11.1-0.1,22.1-0.1,33.2-0.2c10.6-0.1,21.2-0.2,31.8-0.3c9.2-0.1,18.4-0.2,27.5-0.4c6.8-0.1,13.6-0.3,20.4-0.5
		c3.5,0,6.9-0.2,10.4-0.6c0.3,0,0.7-0.1,1-0.2c1.2-0.6,0.9-2.1,0.4-3c-0.9-1.6-2-3.1-3.2-4.5c-1.6-2-3.4-4-5.1-6
		c-3.4-3.9-7-7.7-10.5-11.6c-1.1-1.2-2.3-3.2-4-3.5c-1.4-0.2-2.9-0.3-4.3-0.3c-2.5-0.1-4.9-0.1-7.4-0.2c-7.7-0.1-15.4-0.1-23-0.2
		c-10.1,0-20.2,0-30.2,0c-11,0-22,0.1-33,0.1c-10.4,0.1-20.9,0.1-31.3,0.2l-25.2,0.2l-14.6,0.1h-1.9c-1.8,0-1.2,2.9,0.5,2.9l7.6-0.1
		l20.1-0.2l28.2-0.2l32.2-0.2c10.6-0.1,21.2-0.1,31.8-0.1c9.1,0,18.2,0,27.2,0.1c6.1,0,12.2,0.1,18.4,0.3l2.8,0.1c-0.4,0,0,0,0.2,0
		h0.5l0.8,0.1c0.2,0,0.4,0.1,0.6,0.1s0.2,0.1,0,0c-0.1,0-0.6-0.6-0.5-0.4c0.1,0.2,0.2,0.3,0.4,0.4c0.4,0.5,0.9,1,1.3,1.4
		c3.4,3.6,6.7,7.3,10,11c3.3,3.4,6.2,7,8.9,10.9c0.2,0.4,0,0,0.1,0.2s0.1,0.2,0.2,0.4c0.1,0.1,0.1,0.2,0.1,0.3c0.1,0.3,0-0.1,0,0
		c0.1-0.4,0.3-0.8,0.6-1.1c-0.4,0.2,0.3,0,0,0l-0.5,0.1c-1.3,0.2-2.7,0.2-4,0.3c-5.3,0.3-10.6,0.4-15.9,0.5
		c-8,0.2-16.1,0.3-24.1,0.4c-9.9,0.1-19.7,0.2-29.6,0.3c-10.7,0.1-21.5,0.2-32.2,0.2l-32.5,0.2l-29.6,0.1c-8.1,0-16.2,0-24.3,0
		c-5.4,0-10.8,0-16.1,0c-1.4,0-2.8,0-4.1,0c-0.3,0-0.7,0-1,0c0.5,0,1,0.3,1.2,0.8c0,0.1,0.2,0.8,0.1,0.8c0,0,0-0.2,0.1-0.2
		s0.1-0.2,0.1-0.3s-0.1,0.2,0.1-0.1c2.1-3.3,4.5-6.5,7.1-9.4c3.2-4,6.6-7.9,9.9-11.8c1.6-1.8,3.2-3.7,4.8-5.5
		C200.6,389,198.4,387.1,197.2,388.4z"></path><path class="st2" d="M179,420.5l-2.6-3.2l214.6-2.2c-0.6,2.6-2.5,4.6-5,5.4C381.7,421.6,184.7,422.8,179,420.5z"></path><path class="st2" d="M180.2,419.8l-2.6-3.2l-0.9,1.9l5.8-0.1l15.6-0.1l23-0.2l28.2-0.3l30.9-0.3l31.1-0.3l29-0.3l24.6-0.2l17.6-0.2
		c2.8,0,5.6,0.1,8.4-0.1h0.4l-1.6-1.6c-0.1,0.5-0.3,1.1-0.6,1.5c-0.6,1.1-1.6,2.1-2.7,2.6c-0.3,0.1-0.7,0.3-1,0.3c0,0,0.4,0-0.1,0
		c-1.1,0.1-2.2,0.1-3.3,0.2c-4.6,0.2-9.2,0.3-13.8,0.3c-7.1,0.1-14.2,0.2-21.2,0.3c-8.9,0.1-17.7,0.2-26.6,0.2
		c-9.8,0.1-19.6,0.1-29.5,0.2c-10.1,0-20.1,0.1-30.2,0.1c-9.5,0-19,0-28.4-0.1c-8.2,0-16.4-0.1-24.6-0.2c-6.1-0.1-12.1-0.2-18.2-0.4
		c-2-0.1-4-0.1-6-0.3c-0.7,0-1.4-0.1-2.1-0.1l-0.8-0.1l0,0l-0.3,0c-0.3,0-1.1-0.3-0.4,0c-1.7-0.7-2.8,1.5-1.1,2.2
		c0.9,0.3,1.9,0.5,2.9,0.5c1.6,0.1,3.2,0.2,4.8,0.3c5.5,0.2,10.9,0.3,16.4,0.4c7.8,0.1,15.7,0.2,23.5,0.2c9.3,0.1,18.7,0.1,28.1,0.1
		c10.1,0,20.2,0,30.3,0s20.1,0,30.1-0.1c9.2-0.1,18.4-0.1,27.6-0.2c7.6-0.1,15.2-0.2,22.7-0.3c5.1-0.1,10.3-0.2,15.4-0.3
		c3.2-0.1,6.6,0.2,9.2-2c1.4-1.2,2.4-2.8,2.7-4.6c0.2-0.9-0.9-1.6-1.6-1.6l-5.8,0.1l-15.6,0.1l-23,0.2l-28.2,0.3l-30.9,0.3
		l-31.1,0.3l-29,0.3l-24.6,0.2l-17.6,0.2c-2.8,0-5.6,0-8.4,0.1h-0.4c-0.6,0-1.2,0.5-1.2,1.1c0,0.3,0.1,0.6,0.3,0.8l2.6,3.2
		C179,422.4,181.4,421.3,180.2,419.8z"></path><path class="st2" d="M215.4,396.2h3.7l10-0.1l15-0.1l18.1-0.1l20-0.1l20-0.1l18.8-0.1l15.8-0.1l11.4-0.1c1.8,0,3.6,0,5.4,0h0.3
		c0.5,0,0.3-0.5,0.1-0.7c-0.4-0.4-0.9-0.6-1.5-0.7h-3.7l-10,0.1l-15,0.1l-18.1,0.1l-20,0.1l-20,0.1l-18.8,0.1l-15.8,0.1l-11.4,0.1
		c-1.8,0-3.6,0-5.4,0H214c-0.6,0-0.3,0.5-0.1,0.7C214.3,396,214.8,396.2,215.4,396.2L215.4,396.2z"></path><path class="st2" d="M215.4,396.5c-0.6,0-1.2-0.3-1.6-0.7c-0.2-0.2-0.4-0.5-0.3-0.8c0-0.1,0.2-0.3,0.5-0.3h0.2c1.2,0,2.4,0,3.6,0
		h1.8l133-0.8l0,0c0.6,0,1.2,0.3,1.6,0.7c0.2,0.2,0.3,0.5,0.3,0.8c-0.1,0.2-0.3,0.3-0.5,0.3h-0.2c-1.2,0-2.4,0-3.6,0h-1.8
		L215.4,396.5L215.4,396.5z M214,395.1c-0.1,0-0.1,0-0.1,0c0,0.1,0.1,0.2,0.2,0.3c0.3,0.3,0.8,0.6,1.3,0.6l0,0l133-0.8h1.8
		c1.2,0,2.4,0,3.6,0h0.2c0.1,0,0.1,0,0.1,0c0-0.1-0.1-0.2-0.2-0.3c-0.3-0.3-0.8-0.6-1.3-0.6l0,0l-133,0.8h-1.8c-1.2,0-2.4,0-3.6,0
		H214z"></path><path class="st2" d="M210.3,402.7h4l10.6,0l15.9-0.1l19.2-0.1l21.2-0.1l21.2-0.1l20-0.1l16.8-0.1l12.1-0.1c1.9,0,3.8,0,5.7,0h0.2
		c0.6,0,1.1-0.2,1.6-0.6c0.3-0.3,0.2-0.4-0.2-0.4h-4l-10.7,0.1l-15.9,0.1l-19.2,0.1l-21.2,0.1l-21.2,0.1l-19.9,0.1l-16.7,0.1
		l-12.1,0.1c-1.9,0-3.8,0-5.7,0h-0.2c-0.6,0-1.1,0.2-1.6,0.6C209.8,402.5,209.9,402.7,210.3,402.7L210.3,402.7z"></path><path class="st2" d="M210.2,402.9c-0.1,0-0.5,0-0.6-0.3s0-0.4,0.3-0.6c0.5-0.4,1.1-0.6,1.7-0.6h0.2c1.3,0,2.6,0,3.8,0h1.9l141-0.8
		c0.1,0,0.5,0,0.6,0.3s0,0.4-0.3,0.6c-0.5,0.4-1.1,0.6-1.7,0.6H357c-1.3,0-2.6,0-3.8,0h-1.9L210.2,402.9L210.2,402.9z M210.2,402.5
		c0,0,0.1,0,0.1,0l141-0.8h1.9c1.3,0,2.5,0,3.8,0h0.2c0.5,0,1-0.2,1.4-0.5l0,0h-0.1l-141,0.8h-1.9c-1.2,0-2.5,0-3.8,0h-0.2
		C211.1,402,210.6,402.2,210.2,402.5L210.2,402.5z"></path><path class="st2" d="M205.6,409.5h4.2l11.4-0.1l16.9-0.1l20.5-0.1l22.6-0.1l22.7-0.1l21.3-0.1l17.9-0.1l12.9-0.1c2,0,4.1,0,6.1,0
		h0.3c0.6,0,1.1-0.2,1.5-0.5c0.3-0.4-0.2-0.5-0.6-0.5H359l-11.4,0.1l-16.9,0.1l-20.5,0.1l-22.6,0.1l-22.7,0.1l-21.3,0.1l-17.9,0.1
		l-12.9,0.1c-2,0-4.1,0-6.1,0h-0.3c-0.6,0-1.1,0.2-1.5,0.6C204.7,409.4,205.2,409.5,205.6,409.5L205.6,409.5z"></path><path class="st2" d="M205.6,409.7c-0.3,0-0.7-0.1-0.9-0.4c-0.1-0.2-0.1-0.4,0.1-0.5c0.5-0.4,1.1-0.7,1.7-0.6h0.3h4h2.1l150.4-0.8
		l0,0c0.3,0,0.7,0.1,0.9,0.4c0.1,0.2,0.1,0.4-0.1,0.5c-0.5,0.4-1.1,0.7-1.7,0.6h-0.3c-1.4,0-2.7,0-4.1,0l-32.8,0.2L205.6,409.7
		L205.6,409.7z M363.3,407.9L363.3,407.9l-150.4,0.8h-2.1c-1.3,0-2.7,0-4,0h-0.3c-0.5,0-1,0.1-1.3,0.5c0,0,0,0,0,0.1
		c0.1,0.1,0.3,0.1,0.5,0.1l0,0l152.3-0.7c1.4,0,2.7,0,4.1,0h0.3c0.5,0,1-0.1,1.3-0.4c0,0,0-0.1,0-0.1
		C363.6,407.9,363.4,407.9,363.3,407.9z"></path><path class="st2" d="M260.2,390.6l-3.5,7.5l-5.5,11.9l-1.3,2.7c-0.3,0.7,1.3,2.1,1.7,1.1l3.4-7.5l5.5-11.9l1.3-2.7
		C262.2,391.1,260.6,389.7,260.2,390.6L260.2,390.6z"></path><path class="st2" d="M251.2,414.4c-0.2,0-0.3,0-0.5-0.1c-0.7-0.3-1.2-1.1-1-1.7l10.2-22.1c0.1-0.3,0.3-0.4,0.6-0.5
		c0.5,0,1,0.3,1.3,0.8c0.2,0.3,0.3,0.7,0.2,1L251.9,414C251.8,414.3,251.5,414.4,251.2,414.4z M260.7,390.5L260.7,390.5
		c-0.1,0-0.2,0.1-0.2,0.2l-10.2,22.1c-0.1,0.3,0.3,0.9,0.8,1.1s0.5,0,0.5-0.1l10.2-22.1c0-0.2,0-0.4-0.2-0.5
		C261.4,390.8,261,390.6,260.7,390.5z"></path><path class="st2" d="M283.4,391.1v21.8c0,0.9,2.3,0.4,2.3-0.3v-21.8C285.7,389.9,283.4,390.3,283.4,391.1z"></path><path class="st2" d="M284.1,413.6c-0.2,0-0.4,0-0.6-0.1c-0.2-0.1-0.3-0.3-0.3-0.6v-21.8c0-0.6,1-1,1.8-1c0.2,0,0.4,0,0.6,0.1
		c0.2,0.1,0.3,0.3,0.3,0.6v21.8C285.9,413.2,284.9,413.6,284.1,413.6z M284.9,390.5c-0.6,0-1.3,0.3-1.3,0.6v21.8
		c0,0.1,0,0.1,0.1,0.2c0.1,0.1,0.3,0.1,0.4,0.1c0.6,0,1.3-0.3,1.3-0.6v-21.8c0-0.1,0-0.1-0.1-0.2C285.2,390.5,285,390.5,284.9,390.5
		L284.9,390.5z"></path><path class="st2" d="M306.6,391.1l3.3,7.3l5.3,11.6l1.2,2.7c0.1,0.2,2.3-0.6,2.1-0.9l-3.3-7.3l-5.2-11.5l-1.2-2.7
		C308.7,389.9,306.5,390.7,306.6,391.1L306.6,391.1z"></path><path class="st2" d="M316.5,412.8L316.5,412.8c-0.1,0-0.2-0.1-0.3-0.2l-9.8-21.5c-0.2-0.4,0.4-0.6,0.8-0.9s1.5-0.6,1.7-0.3
		l9.8,21.5c0.1,0.1,0.1,0.2,0,0.4C318.2,412.4,317.4,412.8,316.5,412.8z M306.9,391l9.8,21.3c0.6-0.1,1.2-0.4,1.7-0.7l-9.8-21.3
		C308,390.5,307.4,390.7,306.9,391z"></path><path class="st2" d="M225.9,391.8l-5.2,7l-8.3,11.1l-1.9,2.5c-0.4,0.6,1.9,1,2.3,0.4l5.2-7l8.3-11.1l1.9-2.5
		C228.6,391.7,226.3,391.3,225.9,391.8L225.9,391.8z"></path><path class="st2" d="M212,413.4c-0.5,0-1-0.1-1.4-0.4c-0.2-0.1-0.3-0.4-0.2-0.7c0,0,0,0,0,0l15.3-20.6c0.4-0.5,1.9-0.4,2.5,0
		c0.2,0.1,0.3,0.4,0.2,0.7c0,0,0,0,0,0L213,413.1C212.7,413.3,212.4,413.4,212,413.4z M226.1,392l-15.3,20.6c0,0.1,0.3,0.2,0.9,0.3
		c0.3,0.1,0.7,0,1-0.1l15.4-20.7c0-0.1-0.3-0.2-0.9-0.3C226.8,391.8,226.5,391.8,226.1,392L226.1,392z"></path><path class="st2" d="M336,392.5c-0.3-0.2-0.1,0,0.1,0.1s0.3,0.3,0.4,0.5c0.4,0.5,0.8,1,1.2,1.5c1.3,1.6,2.5,3.2,3.7,4.8
		c2.6,3.4,5.2,6.8,7.8,10.2c0.6,0.8,1.2,1.6,1.8,2.4c0.4,0.4,1,0.6,1.5,0.3c0.4-0.1,1.1-0.7,0.7-1.1c-1.6-2.2-3.3-4.4-4.9-6.6
		c-2.7-3.6-5.4-7.2-8.2-10.7c-0.5-0.6-1-1.2-1.5-1.8c-0.3-0.4-0.6-0.7-1-0.9C336.5,390.5,334.8,391.8,336,392.5L336,392.5z"></path><path class="st2" d="M351.9,412.6c-0.4,0-0.9-0.2-1.1-0.5l-1.8-2.4c-2.2-3-4.9-6.5-7.8-10.2c-1.2-1.5-2.4-3.1-3.7-4.7
		c-0.4-0.5-0.8-1-1.2-1.5c-0.1-0.1-0.3-0.3-0.4-0.5l-0.1-0.1l-0.2-0.1l0,0c-0.1-0.1-0.2-0.3-0.2-0.5c0-0.4,0.3-0.8,0.7-1
		c0.5-0.3,1.1-0.3,1.6-0.1c0.4,0.2,0.7,0.5,0.9,0.9l0.1,0.1c0.5,0.6,1,1.2,1.5,1.8c2.7,3.4,5.4,6.9,7.9,10.3l0.3,0.4
		c1.7,2.2,3.3,4.4,4.9,6.6c0.1,0.2,0.2,0.4,0.1,0.6c-0.2,0.4-0.5,0.7-1,0.9C352.3,412.5,352.1,412.6,351.9,412.6z M336.1,392.3
		c0,0,0.1,0.1,0.1,0.1c0.2,0.2,0.3,0.3,0.4,0.5c0.4,0.5,0.9,1,1.3,1.5c1.3,1.6,2.5,3.2,3.7,4.8c2.8,3.7,5.5,7.2,7.8,10.2
		c0.6,0.8,1.2,1.6,1.8,2.4c0.3,0.4,0.8,0.5,1.2,0.3c0.3-0.1,0.5-0.3,0.7-0.6c0-0.1,0-0.1,0-0.2c-1.6-2.2-3.3-4.4-4.9-6.6l-0.3-0.4
		c-2.6-3.4-5.2-6.9-7.9-10.3c-0.5-0.6-1-1.2-1.5-1.8l-0.1-0.1c-0.2-0.3-0.5-0.6-0.8-0.8c-0.4-0.2-0.8-0.1-1.1,0.1
		c-0.2,0.1-0.4,0.3-0.5,0.6C335.9,392,335.9,392.2,336.1,392.3L336.1,392.3z"></path><path class="st2" d="M32.7,209c0,0,171.5-2.8,175.5,1.3s11.5,125.3,0,128.6s-174-0.5-177-5.1S32.7,209,32.7,209z"></path><path class="st2" d="M33.5,211.3h0.8h1h0.9l9-0.1c10.3-0.2,20.6-0.3,30.8-0.4c13.5-0.1,27-0.2,40.5-0.3c13.8-0.1,27.6-0.1,41.4,0
		c11.1,0.1,22.3,0.2,33.4,0.6c3.6,0.1,7.3,0.3,10.9,0.6c1.2,0.1,2.4,0.2,3.6,0.4l1.2,0.2c0.6,0.1-0.6-0.2-0.1,0
		c0.1,0.1,0.3,0.1,0.4,0.1c0.5,0.1-0.3-0.2-0.3-0.1h0.1c-0.3-0.2-0.6-0.5-0.8-0.8c0.1,0.1,0.1,0.2,0.2,0.3c-0.5-0.9-0.1-0.3-0.1-0.1
		c0.1,0.4,0.3,0.9,0.4,1.3c0.1,0.2,0.2,1.2,0.1,0.3c0.1,0.3,0.1,0.7,0.2,1c0.7,3.9,1.1,7.8,1.6,11.7c1.3,12.4,2.1,24.9,2.6,37.4
		c0.6,13.9,1,27.9,0.6,41.8c-0.1,5.6-0.4,11-1,16.8c-0.3,4-1,7.9-2.1,11.8c-0.1,0.2,0.2-0.5,0,0.1c-0.1,0.1-0.1,0.3-0.2,0.5
		c-0.1,0.3-0.2,0.6-0.4,0.9c-0.1,0.2-0.2,0.5-0.4,0.7c-0.1,0.1-0.1,0.2-0.2,0.3c-0.2,0.4,0.4-0.4,0.1-0.1c-0.2,0.1-0.3,0.3-0.4,0.4
		c-0.3,0.4,0.5-0.2-0.1,0s0.5-0.1,0.1,0c-0.2,0-0.3,0.1-0.5,0.1c-2.4,0.4-4.7,0.6-7.1,0.6c-1.9,0.1-3.8,0.2-5.6,0.2l-3.3,0.1H189
		h-0.9h-0.4c-0.4,0,0.4,0-0.2,0c-5.6,0.1-11.1,0.1-16.6,0.1c-13.6,0-27.2-0.2-40.8-0.5c-14.4-0.3-28.8-0.7-43.1-1.2
		c-12-0.5-23.9-1-35.9-1.8c-4.1-0.3-8.2-0.6-12.2-1.1c-1.4-0.2-2.8-0.3-4.2-0.6c-0.5-0.1-1-0.2-1.5-0.3c-0.7-0.1,0.3,0.1-0.1,0
		l-0.5-0.1l-0.4-0.1c-0.6-0.1,0.6,0.3,0.2,0.1s0.6,0.6,0.3,0.3c0.6,0.6,0.5,0.7,0.3,0.4c0,0,0.2,0.7,0.2,0.4c0-0.1-0.1-0.3-0.1-0.4
		c-0.2-0.4,0.1,0.5,0.1,0.3c0-0.1,0-0.2-0.1-0.3c-0.1-0.5-0.1-1-0.2-1.5c-0.3-3.5-0.4-7.1-0.4-10.7c-0.2-12.1,0-24.3,0.3-36.5
		c0.3-13.9,0.6-27.8,1.1-41.6c0.3-9.7,0.6-19.3,1-29l0.2-4.2c0.1-2.7-4.4-3.7-4.5-0.5c-0.2,5.6-0.4,11.3-0.6,16.9
		c-0.4,12.8-0.8,25.6-1.1,38.4c-0.4,13.8-0.7,27.6-0.8,41.5c0,5.4,0,10.7,0.1,16.1c0,3.3,0.2,6.6,0.5,9.9c0.3,2.3,1,4.1,3.3,4.9
		c2.4,0.7,4.9,1.1,7.4,1.3c9.7,1.1,19.4,1.6,29.1,2c13.8,0.7,27.5,1.2,41.3,1.6c14.5,0.4,29.1,0.7,43.6,0.9
		c12.1,0.1,24.2,0.2,36.4,0c4.1-0.1,8.2-0.1,12.3-0.4c2.3,0,4.5-0.3,6.7-0.7c2.8-0.6,3.9-3.4,4.7-5.9c1.1-3.9,1.8-8,2.1-12.1
		c1.3-12.8,1.2-25.7,1-38.5c-0.2-14-0.9-28-1.9-42.1c-0.7-9.5-1.2-19.2-3-28.5c-0.4-2.3-0.8-5.2-3.3-6.2c-1.9-0.6-3.9-0.9-5.9-1
		c-8.6-0.8-17.3-0.8-26-1c-12.9-0.2-25.9-0.3-38.8-0.3c-14.1,0-28.3,0.1-42.4,0.2c-12.3,0.1-24.7,0.2-37,0.4
		c-7.7,0.1-15.4,0.2-23.1,0.3l-3.1,0.1c-1.3,0-1.7,1.6-1.4,2.6C31,210.5,32.2,211.4,33.5,211.3z"></path><path class="st2" d="M102.5,310.4c0,0-20.2,96.9-16.1,101s92.3-15.5,93.1-17.4s-7.8-4.5-7.8-4.5s-43-1.5-43.8-3s-3.1-72.6-5.6-74.5
		S102.5,310.4,102.5,310.4z"></path><path class="st2" d="M100.4,309.2c-1.7,8.3-3.4,16.5-5,24.8c-3.1,15.7-6.1,31.4-8.6,47.1c-1,6.4-2,12.8-2.7,19.2
		c-0.2,2.1-0.4,4.2-0.4,6.4c-0.1,1.2,0.1,2.4,0.5,3.6c1.8,3.9,7.3,3.3,10.7,3.1c6.2-0.5,12.5-1.5,18.7-2.6c15.7-2.7,31.3-6,46.8-9.6
		c5.5-1.3,11.1-2.6,16.6-4.1c1.3-0.3,2.6-0.7,3.9-1.2c2.8-1.3-2-4.5-3.2-5.2c-1.7-0.9-3.5-1.7-5.4-2.3c-0.7-0.3-1.4-0.5-2.2-0.6
		c-1.8-0.1-3.7-0.1-5.5-0.2c-7.6-0.3-15.2-0.6-22.7-1.1c-3.4-0.2-6.9-0.4-10.3-0.8l-1.9-0.2l-0.4,0h-0.1l-0.7-0.1
		c-0.3-0.1-0.7-0.2-1-0.2s0.5,0.2,0.1,0c1,0.4,1.8,1.1,2.4,2c0.1,0.2,0,0.3,0-0.1s-0.1-0.5-0.1-0.7c-0.1-0.8-0.1-1.6-0.2-2.4
		c-0.2-2.5-0.3-5.1-0.4-7.6c-0.8-15.4-1.5-30.9-2.6-46.3c-0.4-5.1-0.6-10.4-1.7-15.5c-0.6-2.5-2.2-3.9-4.8-4.7
		c-3.7-1.1-7.8-1-11.6-1.1c-2.5-0.1-5.1-0.1-7.6,0c-1.1,0-0.4,1.2,0,1.6c0.8,0.9,1.8,1.5,3,1.6c2.6-0.1,5.2,0,7.9,0
		c2.1,0,4.2,0.1,6.3,0.3c0.8,0.1,1.7,0.2,2.5,0.3c0.3,0,0.6,0.1,0.9,0.2s0.3,0.1,0.5,0.1c0.4,0.1-0.3-0.2,0.2,0.1s-0.7-0.4-0.6-0.4
		c-0.4-0.3-0.8-0.7-1.1-1.1c0.2,0.3-0.2-0.5-0.1-0.1s0.2,0.4,0.2,0.6s0.2,0.6,0,0.2c0,0.2,0.1,0.3,0.1,0.5c0.1,0.4,0.1,0.8,0.2,1.2
		c0.4,2.4,0.6,4.8,0.8,7.2c1.4,15,2,30.1,2.7,45.2c0.3,5.5,0.5,11,0.9,16.5c0.1,1.2,0,2.7,0.9,3.7c1.7,1.9,4.2,2.1,6.5,2.4
		c6.9,0.8,13.9,1.1,20.8,1.4c6.1,0.3,12.2,0.6,18.3,0.8c0.4,0,0.7,0,1.1,0c-0.1,0-1-0.2-0.5-0.1l0.8,0.3c0.9,0.3,1.7,0.6,2.6,1
		c0.5,0.2,0.8,0.4,1,0.5l0.6,0.3c0.3,0.1,0.4,0.5,0.1,0.1c0.3,0.4-0.2-0.2-0.2-0.3s-0.3-0.5-0.1-0.2c-0.1-0.2,0.1,0,0,0s0.2-0.1,0,0
		l-0.5,0.2c-3.7,1.3-7.5,2.3-11.3,3.1c-14.6,3.6-29.3,6.7-44.1,9.6c-7.1,1.4-14.2,2.6-21.4,3.7c-4.4,0.6-8.9,1.4-13.4,1.1l-0.5,0
		c0.6,0.1,0.1,0,0,0c-0.1,0-0.2-0.1-0.3-0.1c0,0,0.6,0.2,0.4,0.1s-0.4-0.2,0.3,0.2c0.3,0.2,1.7,1,1.7,1.5c-0.1-0.2-0.1-0.3-0.2-0.5
		c0.2,0.5,0-0.3-0.1-0.5s0-0.6-0.1-0.9c0-0.8,0-1.6,0-2.4c0.3-5.4,0.9-10.7,1.8-16c2.2-15.3,5.1-30.5,8-45.7
		c2.1-11,4.3-21.9,6.5-32.8c0.1-0.5,0.2-1.1,0.3-1.7C104.9,310.2,100.7,307.7,100.4,309.2z"></path><path class="st0" d="M99.1,329.6v-8c0-1.3-0.1-2.7,0-4c0-0.6,0-0.7,0.6-0.9c0.6-0.1,1.2-0.2,1.8-0.3c5-0.6,10-0.8,15-0.7
		c2.5-0.1,4.9,0,7.3,0.2c1,0.1,2,0.3,3,0.6l0.6,0.2c-0.7-1.6-1.1-2-1.1-1.3c-0.1,0.7-0.1,1.3,0,2v15.8c0.1,1.2,0.8,2.3,1.9,2.9
		c0.8,0.4,2.1,0.4,2.1-0.8V321c0-2,0.4-4.5-0.8-6.2c-1.3-2-3.9-2.5-6.1-2.9c-4.4-0.7-9.1-0.5-13.5-0.4c-2.3,0-4.7,0.1-7,0.3
		c-1.1,0.1-2.3,0.2-3.4,0.4c-1,0.1-2,0.2-3,0.5c-2.3,0.9-1.6,4.5-1.6,6.5v8.2c0.1,1.2,0.8,2.3,1.9,2.9
		C97.8,330.8,99.1,330.8,99.1,329.6L99.1,329.6z"></path><path class="st0" d="M130.3,387.2c0.3,0.9,0.6,1.8,0.8,2.7c0.3,1.1,0.4,1.6,0.6,2.5c0.3,1.9,0.5,3.8,0.6,5.7c0.1,1.3,1,2.3,2.2,2.8
		c0.7,0.3,1.5-0.1,1.8-0.8c0.1-0.2,0.1-0.5,0.1-0.7c-0.1-4.1-0.9-8.2-2.1-12.1c-0.4-1-1.4-2.3-2.6-2.3S130,386.2,130.3,387.2
		L130.3,387.2z"></path></g></svg>