<svg transform="scale(1)" version="1.1" id="YyafjQjBtR" xmlns="http://www.w3.org/2000/svg" xmlns:xlink="http://www.w3.org/1999/xlink" x="0px" y="0px" viewBox="0 0 500 500" xml:space="preserve" class="pbimage_pbimage__wrapper__image__0LEis false"><title>Log In 1</title><style type="text/css"> .st0{fill:#FFFFFF;} .st1{fill:#59BE4C;} .st2{fill:none;} .st3{opacity:0.6;} .st4{fill:#000005;} .st5{opacity:0.81;}
 .st4{fill:#000005;}
 .st1{fill:#59BE4C;}
 .st0{fill:#FFFFFF;}</style><g id="device"><path class="st0" d="M92.1,64.1l160.5-0.6c9,0,16.2,7.2,16.3,16.2l1.2,340c0,9-7.2,16.2-16.2,16.3l-160.5,0.6
		c-9,0-16.2-7.2-16.3-16.2l-1.2-340C75.9,71.4,83.1,64.1,92.1,64.1z" fill="#FFFFFF"></path><path class="st1" d="M93.8,438.1h11.1L133,438l36.8-0.1l37.8-0.1l30.7-0.1c5.2,0,10.3,0,15.5,0c10.1-0.1,18.8-7.5,18.8-17.9
		c0-2.7,0-5.4,0-8.1l-0.1-17.7l-0.1-25.5l-0.1-31.5l-0.1-35.7l-0.1-37.9l-0.1-38.7l-0.1-37.5l-0.1-34.5l-0.1-29.6l-0.1-23.2l0-14.9
		c0-2.9,0.2-6-0.5-8.8c-2-8.6-10.2-14-18.8-14.1c-1.1,0-2.1,0-3.2,0L228.1,62l-33.6,0.1l-38.4,0.1L121,62.4l-23.7,0.1h-5.2
		c-5.4-0.1-10.7,2.2-14.3,6.2c-2.9,3.2-4.4,7.4-4.4,11.8c0,1,0,1.9,0,2.9v13.4l0.1,22l0.1,28.7l0.1,33.9l0.1,37.1l0.1,38.6l0.1,38.3
		l0.1,36l0.1,32.3l0.1,26.6l0.1,19.1v9.9c0,1.6,0.1,3.2,0.4,4.7C76.8,432.5,85.1,438,93.8,438.1c0.9,0,2.2-0.6,2-1.7
		s-1.9-1.5-2.9-1.5c-7.6-0.1-13.2-6.9-13.3-14.2c0-0.6,0-1.2,0-1.8v-11.3l-0.1-20l-0.1-27.2L79.2,328l-0.1-36.1L79,254l-0.1-38.2
		l-0.1-36.4l-0.1-33.1L78.5,118l-0.1-21.3v-13c0-0.9,0-1.8,0-2.7c-0.1-4.5,1.8-8.9,5.2-11.9c4.7-4.1,10.4-3.4,16.2-3.4l24.8-0.1
		l35.3-0.1l37.8-0.1l32.7-0.1l19.9-0.1c1.2,0,2.4-0.1,3.6,0c7.2,0.6,12.3,7.2,12.4,14.2c0,2.1,0,4.3,0,6.4l0,16l0.1,24l0.1,30
		l0.1,34.6l0.1,37.1l0.2,38.2l0.1,37.6l0.1,34.9l0.1,30.9l0.1,24.8l0.1,17.3c0,2.6,0,5.2,0,7.8c0.1,4.9-2.1,9.5-5.9,12.5
		c-2.7,2-6.1,3-9.5,2.8l-17.1,0l-31.1,0.1l-37.7,0.1l-36.1,0.1l-27.1,0.1H92.8c-0.9,0-2.2,0.6-2,1.7S92.8,438.1,93.8,438.1z" fill="#59BE4C"></path><path class="st0" d="M107.7,64.1l160.5-0.6c9,0,16.2,7.2,16.3,16.2l1.2,340c0,9-7.2,16.2-16.2,16.3L109,436.5
		c-9,0-16.2-7.2-16.3-16.2l-1.2-340C91.5,71.4,98.8,64.1,107.7,64.1z" fill="#FFFFFF"></path><path class="st1" d="M110.9,437.9h11.1l28.1-0.1l36.8-0.1l37.8-0.1l30.7-0.1c5.2,0,10.3,0,15.5-0.1c9.2,0.1,16.8-7.2,16.9-16.5
		c0-0.2,0-0.4,0-0.5c0-2.8,0-5.6,0-8.5l-0.1-18l-0.1-25.7l-0.1-31.6l-0.1-35.8l-0.2-37.9l-0.1-38.7l-0.1-37.4l-0.1-34.4l-0.1-29.5
		l-0.1-23l0-14.6c0-3.4,0.2-6.8-1-10c-2.8-7.7-11.3-13.2-19.3-13.3c-1.1,0-2.1,0-3.2,0l-20.8,0.1l-33.6,0.1l-38.4,0.1l-35.1,0.1
		l-23.7,0.1h-5.2C101,62.5,96,65,92.8,69.1c-3.1,4.1-3.3,8.7-3.3,13.5v13.6l0.1,22.2l0.1,28.9l0.1,34l0.2,37.2l0.1,38.6l0.1,38.2
		l0.1,35.9l0.1,32.1l0.1,26.4l0.1,18.9v9.6c0,2.1,0.3,4.1,0.9,6.1C94.3,432.2,102.8,437.8,110.9,437.9c0.8,0-1-1.5-1-1.6
		c-0.8-0.7-1.7-1.2-2.8-1.3c-4.5-0.1-8-1.8-10.3-5.8c-1.3-2.4-2-5-2-7.8c0-0.6,0-1.3,0-1.9v-11.6l-0.1-20.2l-0.1-27.4l-0.1-32.5
		l-0.1-36.2l-0.1-37.9l-0.1-38.1L94,179.3l-0.1-33l-0.1-28.1l-0.1-21.1V84.4c0-0.9,0-1.7,0-2.6c0-5.1,2.3-9.9,6.3-13
		c5-3.8,11-3.3,16.9-3.3l24.8-0.1l35.4-0.1l37.8-0.1l32.7-0.1l19.9-0.1c1.3,0,2.6-0.1,4,0c4.2,0.3,8,2.9,9.5,6.9
		c0.9,2.1,1.4,4.4,1.4,6.7c0,2.2,0,4.5,0,6.7l0,16.2l0.1,24.2l0.1,30.2l0.1,34.7l0.1,37.2L283,266l0.1,37.5l0.1,34.8l0.1,30.7
		l0.1,24.6l0.1,17c0,2.5,0,5,0,7.5c0,5.4-2.7,10.5-7.1,13.5c-3,1.9-6.5,2.8-10.1,2.7l-17.1,0.1l-31.1,0.1l-37.7,0.1l-36.1,0.1
		l-27.1,0.1H107c-0.7,0,1,1.5,1,1.6C108.8,437.3,109.8,437.8,110.9,437.9z" fill="#59BE4C"></path><rect class="st1" x="107.9" y="104.7" transform="matrix(1 -3.490651e-03 3.490651e-03 1 -0.8345 0.6641)" width="163.8" height="269.5" fill="#59BE4C"></rect><path class="st1" d="M108.7,376.2l16.3,0l39.2-0.1l47.4-0.2l40.7-0.1c6.6,0,13.3,0.1,19.9-0.1h0.3c1.2,0,2.1-0.6,2.1-1.8v-7.2
		l-0.1-19.7l-0.1-29l-0.1-35.5l-0.1-38.7l-0.1-39.1l-0.1-36.4l-0.1-30.8l-0.1-22.2c0-3.5,0.1-7,0-10.5c0-0.2,0-0.3,0-0.4
		c0-1.2-1.9-1.8-2.8-1.8l-16.3,0.1l-39.2,0.1l-47.4,0.2l-40.7,0.1c-6.6,0-13.3-0.1-19.9,0.1h-0.3c-1.2,0-2.2,0.6-2.2,1.8v7.2
		l0.1,19.6l0.1,29l0.1,35.5l0.1,38.7l0.1,39.1l0.1,36.4l0.1,30.8l0.1,22.2c0,3.5-0.1,7,0,10.5c0,0.1,0,0.3,0,0.5
		c0,2.3,4.9,2.6,4.9,0v-7.2l-0.1-19.6l-0.1-29l-0.1-35.5l-0.1-38.7l-0.1-39.1l-0.1-36.4l-0.2-30.8l-0.1-22.2c0-3.5,0.2-7,0-10.5
		c0-0.2,0-0.3,0-0.4l-2.2,1.8l16.3-0.1l39.2-0.1l47.4-0.2l40.7-0.1h13.5c2.1,0,4.3,0.1,6.4,0h0.3l-2.8-1.8v7.2l0.1,19.7l0.1,29
		l0.1,35.5l0.1,38.7l0.1,39.1l0.1,36.4l0.1,30.8l0.1,22.2c0,3.5-0.1,7,0,10.5c0,0.1,0,0.3,0,0.5l2.1-1.8l-16.3,0.1l-39.2,0.1
		l-47.4,0.2l-40.7,0.1c-6.6,0-13.3-0.1-19.9,0.1H108c-1,0-2.3,0.6-2.2,1.8S107.6,376.3,108.7,376.2z" fill="#59BE4C"></path><ellipse class="st0" transform="matrix(0.3113 -0.9503 0.9503 0.3113 -253.3928 459.8448)" cx="190.6" cy="404.8" rx="12.4" ry="12.4" fill="#FFFFFF"></ellipse><path class="st1" d="M175.9,405.1c0,5.9,3.7,11.3,9.3,13.3c6.1,2,12.8,0.1,16.8-4.9c5.1-5.9,4.4-14.8-1.5-19.9
		c-3.4-2.9-7.9-4-12.2-3.1C181.2,391.9,176.1,397.9,175.9,405.1c0,2.9,4.7,1.9,4.7-0.6c-0.1-4.2,2.4-7.9,6.2-9.5
		c4.1-1.4,8.6-0.1,11.3,3.3c2.8,3.4,3.2,8.1,1.1,11.9c-2.1,3.6-6.2,5.4-10.2,4.5c-4.9-1.1-8.4-5.3-8.5-10.3
		C180.5,401.5,175.8,402.6,175.9,405.1z" fill="#59BE4C"></path><circle class="st0" cx="212.9" cy="85.3" r="3.9" fill="#FFFFFF"></circle><path class="st1" d="M214.7,84.8V85v-0.3c0,0.1,0,0.2-0.1,0.4c0,0.2-0.1,0.4-0.2,0.7l0.2-0.5c-0.2,0.4-0.4,0.8-0.7,1.1l0.3-0.4
		c-0.3,0.3-0.6,0.6-1,0.8l0.4-0.2c-0.4,0.2-0.8,0.4-1.3,0.4l0.5,0c-0.3,0-0.7,0-1,0c-0.3,0,0.2,0,0.2,0c-0.1,0-0.1,0-0.2,0l-0.4-0.1
		c-0.3-0.1,0.5,0.2,0.2,0.1l-0.2-0.1l-0.2-0.1c-0.4-0.2,0.4,0.3,0.2,0.2s-0.2-0.2-0.4-0.3s0.2,0.2,0.3,0.2s-0.1-0.2-0.2-0.2
		s-0.1-0.1-0.1-0.2s0.3,0.5,0.2,0.3s-0.1-0.3-0.2-0.4c-0.2-0.3,0.2,0.5,0.1,0.2c0-0.1-0.1-0.1-0.1-0.2c0-0.1,0-0.1-0.1-0.2
		c-0.1-0.4,0,0.1,0,0.2c0-0.2,0-0.3,0-0.5c0-0.1,0-0.1,0-0.2c0-0.2-0.1,0.5,0,0.2c0.1-0.3,0.1-0.7,0.2-1l-0.2,0.5
		c0.2-0.4,0.4-0.8,0.7-1.1l-0.3,0.4c0.3-0.3,0.6-0.6,1-0.8l-0.4,0.2c0.4-0.2,0.8-0.4,1.3-0.5l-0.5,0.1c0.3,0,0.5,0,0.8,0h0.2
		c0.2,0,0.1,0-0.2,0c0.1,0,0.3,0,0.4,0.1l0.3,0.1c-0.7-0.2-0.3-0.1-0.1,0l0.3,0.2c-0.7-0.3-0.3-0.2-0.1-0.1s0.4,0.4,0.1,0.1
		s0,0,0,0.1c0.4,0.5-0.3-0.5-0.1-0.1c0.1,0.1,0.1,0.2,0.1,0.3c0.3,0.5-0.1-0.5,0-0.1l0.1,0.3c0.1,0.6,0-0.4,0,0c0,0.1,0,0.3,0,0.4
		c0.1,1.3,1.1,2.3,2.3,2.6c0.5,0.1,1.1,0.1,1.5-0.3c0.4-0.4,0.6-0.9,0.6-1.4c-0.1-2.8-1.9-5.3-4.4-6.3c-1.2-0.5-2.5-0.6-3.7-0.2
		c-1.1,0.3-2.1,1-2.9,1.9c-1.5,2-1.6,4.6-0.3,6.8c1.3,2.4,4,3.8,6.7,3.5c1.3-0.2,2.5-0.9,3.3-2c0.8-1,1.2-2.3,1.2-3.6
		c-0.1-1.3-1-2.4-2.2-2.8c-0.9-0.2-1.7,0.3-2,1.1C214.7,84.4,214.7,84.6,214.7,84.8z" fill="#59BE4C"></path><line class="st2" x1="169.3" y1="85.3" x2="192.1" y2="85.6"></line><path class="st1" d="M169.7,87l19.9,0.3h2.9c1,0,2.3-0.7,2-1.8s-1.8-1.6-2.9-1.6l-19.9-0.2h-2.9c-1,0-2.3,0.7-2,1.8
		S168.7,87,169.7,87L169.7,87z" fill="#59BE4C"></path><g class="st3"><path class="st0" d="M152.3,117.7h75.5c3.7,0,6.7,3,6.7,6.7v0c0,3.7-3,6.7-6.7,6.7h-75.5c-3.7,0-6.7-3-6.7-6.7v0
			C145.6,120.7,148.6,117.7,152.3,117.7z"></path><path class="st0" d="M226.8,130.2h-72.1c-1.1,0.1-2.2,0.1-3.3,0c-1.2-0.2-2.1-1.6-2.6-2.6c-1.2-2.5-0.6-5.5,1.4-7.4
			c1.5-1.3,3-1.5,4.8-1.5h73.6c0.2,0,0.4,0,0.6,0c1.1,0.3,2,1.6,2.4,2.6c0.6,1.2,0.8,2.7,0.5,4C231.5,127.6,229.3,130.1,226.8,130.2
			c-0.6,0-1.8,0.1-1.1,0.9s2.4,1,3.3,1c3-0.1,5.8-1.2,7.2-3.9c1.3-2.5,1-5.5-0.8-7.7c-2.2-2.8-6-3.7-9.4-3.7h-62.4
			c-4.1,0-8.1,0-12.2,0c-1.6-0.1-3.2,0.3-4.6,1c-2.4,1.4-3.8,4-3.6,6.8c0.5,5.1,5.8,7.4,10.4,7.5c4.1,0,8.2,0,12.3,0h63
			c0.6,0,1.8-0.1,1.1-0.9S227.7,130.2,226.8,130.2z"></path><path class="st0" d="M115.9,120.5h7.5c1.2,0,2.3-0.3,3.3-0.8c0.3-0.1,0.8-0.3,1-0.6s-0.2-0.3-0.4-0.3h-7.5c-1.2,0-2.3,0.3-3.3,0.8
			c-0.3,0.1-0.8,0.3-1,0.6S115.7,120.5,115.9,120.5z"></path><path class="st0" d="M118.2,127h7.5c0.5,0,0.9-0.2,1.3-0.5c0.2-0.3,0.2-0.7,0-1c-0.8-0.9-2-1.4-3.2-1.3h-7.5
			c-0.5,0-0.9,0.2-1.3,0.5c-0.2,0.3-0.2,0.7,0,1C115.8,126.6,117,127.1,118.2,127z"></path><path class="st1" d="M117.9,131.7h3.2"></path><path class="st0" d="M118.6,132.2h3.2c0.5,0,1,0,1.5-0.1c0.2-0.1,0.5-0.2,0.3-0.4l-0.2-0.1c-0.3-0.1-0.6-0.2-0.9-0.2
			c-0.6-0.1-1.3-0.2-1.9-0.2h-3.2c-0.5,0-1,0-1.5,0.1c-0.2,0-0.5,0.2-0.3,0.4l0.2,0.1c0.3,0.1,0.6,0.2,0.9,0.2
			C117.3,132.2,117.9,132.2,118.6,132.2z"></path><path class="st1" d="M249,123.9v4.9c0,0.2,0,0.5,0.2,0.6c0.2,0.1,0.4,0.2,0.7,0.1l7.7-0.6c0.2,0,0.4,0,0.6-0.2
			c0.1-0.2,0.2-0.4,0.2-0.6c0-1.2-0.2-2.4-0.8-3.5l3.5-0.3l-8.6-6.2c-0.1-0.1-0.3-0.2-0.5-0.2c-0.2,0-0.4,0.2-0.5,0.3l-6.6,7h2.6"></path><path class="st0" d="M246.7,122.9v3c-0.1,0.8-0.1,1.7,0.1,2.5c0.3,0.4,0.7,0.7,1.2,0.9c0.9,0.5,1.8,0.9,2.8,1.1
			c1,0.1,2.1,0.1,3.1-0.1l3-0.2c1,0,2,0,3-0.1c0.9-0.2,0.7-1.2,0.6-1.9c-0.1-0.9-0.4-1.8-0.8-2.6l-0.1,0.2l3.5-0.3
			c0.5-0.1-0.4-0.7-0.4-0.7l-4.9-3.6c-2-1.4-3.9-3.2-6.4-3.9c-0.5-0.2-1.1-0.3-1.7-0.3c-0.4,0.1-0.7,0.4-0.9,0.7
			c-0.7,0.7-1.4,1.5-2.1,2.2l-4.3,4.5c-0.2,0.3,1.5,1.1,1.5,1.1c0.8,0.5,1.8,0.7,2.7,0.8h2.6c1,0-0.3-0.8-0.6-1
			c-1-0.6-2.1-1-3.2-1.1h-2.6l4.2,2l3.5-3.7l1.8-1.9c0.5-0.5,1.1-1.5,1.7-1.6l-1.2-0.2l0.3,0.1l-2.8-1.2c1.5,1,2.9,2.1,4.4,3.2
			l4.4,3.2l-0.4-0.7l-3.4,0.3c-0.1,0-0.2,0.1-0.1,0.3c0.5,0.9,0.7,1.8,0.8,2.8c0,0.3,0.1,0.9-0.2,1.1s-1.2,0.1-1.5,0.2l-3.2,0.2
			l-1.6,0.1c-0.5,0.1-1,0.1-1.6,0.1l2.8,1.1l-0.2-0.1l0.9,0.7c-0.4-0.6-0.1-1.9-0.1-2.6v-2.8c0-0.7-1.6-1.2-2.1-1.4
			C249.1,123.3,246.7,122.5,246.7,122.9L246.7,122.9z"></path><path class="st1" d="M222.5,119.5c-1.2-0.1-2.4,0.5-3,1.6c-0.4,0.9-0.6,1.9-0.4,2.8c0,0.4,0.1,0.9,0.3,1.3c0.4,1,1.2,1.7,2.2,2.1
			c0.4,0.1,0.7,0.2,1.1,0.3c0.4,0.1,0.9,0.2,1.3,0.2c1.7,0.2,3.4-0.3,4.7-1.4c1.3-1.2,1.7-3.1,1-4.8c-0.5-1.1-1.3-2.1-2.4-2.7
			c-0.8-0.5-1.7-0.8-2.6-0.9c-0.6-0.2-1.2-0.1-1.7,0.1c-0.5,0.3-0.9,0.8-0.9,1.3c-0.1,0.6,0.1,1.2,0.4,1.7c0.4,0.6,0.9,1,1.5,1.2
			c0.5,0.1,1.1,0.3,1.6,0.5l-0.6-0.2c0.3,0.1,0.5,0.3,0.7,0.4l-0.5-0.4c0.2,0.1,0.3,0.3,0.5,0.5l-0.4-0.5c0.1,0.1,0.2,0.3,0.3,0.5
			l-0.3-0.6c0.1,0.2,0.2,0.4,0.2,0.5l-0.1-0.6c0,0.2,0,0.3,0,0.5v-0.6c0,0.2,0,0.3-0.1,0.5l0.2-0.5c-0.1,0.2-0.2,0.4-0.3,0.6
			l0.3-0.5c-0.2,0.3-0.4,0.5-0.6,0.7l0.5-0.3c-0.3,0.2-0.6,0.4-0.9,0.5l0.5-0.2c-0.3,0.1-0.7,0.2-1.1,0.2h0.6c-0.7,0-1.4,0-2.1-0.2
			l0.6,0.1c-0.3,0-0.5-0.1-0.8-0.2l0.6,0.2c-0.1,0-0.1-0.1-0.2-0.1l0.5,0.4c-0.1,0-0.1-0.1-0.1-0.1l0.4,0.5l-0.1-0.1l0.3,0.6
			c0-0.1-0.1-0.2-0.1-0.3l0.1,0.6c-0.1-0.4-0.1-0.8-0.1-1.2v0.6c0-0.2,0-0.4,0.1-0.7l-0.2,0.5c0-0.1,0.1-0.2,0.2-0.4l-0.3,0.5
			c0.1-0.1,0.2-0.3,0.3-0.3l-0.4,0.3c0.1-0.1,0.2-0.1,0.3-0.2l-0.5,0.2c0.1,0,0.2,0,0.3,0h-0.6h0.2c0.6,0,1.2-0.2,1.6-0.6
			c0.4-0.4,0.6-1,0.5-1.6c-0.1-0.6-0.4-1.2-0.9-1.7C223.7,119.8,223.1,119.6,222.5,119.5L222.5,119.5z"></path><path class="st1" d="M220.7,129.8l2.3-2.4c0.2-0.2,0.3-0.5,0.4-0.8c0.1-0.3,0.1-0.6,0-0.9c0-0.3-0.2-0.6-0.4-0.8
			c-0.2-0.3-0.4-0.5-0.6-0.7l-0.6-0.3c-0.4-0.2-0.8-0.2-1.3-0.2l-0.6,0.1c-0.4,0.1-0.7,0.3-1,0.7l-2.3,2.4c-0.2,0.2-0.3,0.5-0.4,0.8
			c-0.1,0.3-0.1,0.6,0,0.9c0.1,0.3,0.2,0.6,0.4,0.8c0.2,0.3,0.4,0.5,0.6,0.7l0.6,0.3c0.4,0.2,0.8,0.2,1.3,0.2l0.6-0.1
			C220,130.3,220.4,130.1,220.7,129.8L220.7,129.8z"></path></g></g><g id="character"><path class="st0" d="M381.6,254.2c0,0,9,8,17.3,12.2c9,4.7,12.8,3.4,14.3,2.3c3.1-2.4-7.1-7.5-7.1-7.5s6.4,2.2,10.1,2.3
		c4.7,0.1,5.9-5.2-4.2-8.2c-11-3.2-32.5-2.5-32.5-2.5L381.6,254.2z"></path><path class="st4" d="M380.7,255.9c2.3,2,4.8,3.9,7.3,5.8c4.6,3.4,9.5,6.7,14.9,8.7c3.1,1.2,7.1,2.4,10.4,1.1
		c1.2-0.4,2.2-1.3,2.6-2.4c0.4-1.7-0.6-3.4-1.7-4.6c-2.2-2.2-4.8-4-7.6-5.3l-0.7,4c1.8,0.6,3.5,1.1,5.3,1.6c2.4,0.6,5.1,1.3,7.5,0.8
		c1.6-0.3,2.9-1.5,3.2-3.1c0.4-2-0.8-3.9-2.1-5.2c-4-3.9-10.2-4.9-15.5-5.6c-5.3-0.6-10.7-1-16-1c-3.1-0.1-6.2-0.1-9.4,0
		c-2.2,0.1-1.4,3.1-0.1,3.9L380.7,255.9c0.8,0.6,2.2,0.9,2.8-0.2s-0.2-2.6-1.1-3.2l-2-1.4l-0.1,3.9c6.5-0.2,13.1-0.1,19.6,0.4
		c4.6,0.2,9.1,1,13.4,2.3c1.1,0.4,2.2,0.9,3.1,1.5c0.1,0.1,1,0.8,0.7,0.5c0.2,0.2,0.3,0.3,0.4,0.5c-0.4-0.5,0,0,0,0.1
		c0.2,0.6-0.2-0.5,0,0c0.1,0.4,0-0.1,0-0.1c-0.2,0.3,0.4,0.2,0,0c0,0-0.1,0.7,0,0c0,0.1-0.1,0.2-0.1,0.3l0,0l-0.3,0.3
		c-0.4,0.3,0.3-0.1-0.1,0.1c-0.7,0.3-1.4,0.4-2.2,0.3c-1.2-0.1-2.4-0.4-3.6-0.7c-1.2-0.3-2.4-0.6-3.5-1c-0.4-0.1-0.8-0.2-1.2-0.4
		s-1.2-0.4-0.1,0c-1-0.4-2.2-0.3-2.5,1c-0.1,1.3,0.6,2.5,1.8,3c0.6,0.3,1.2,0.6,1.8,1c0.1,0.1,0.8,0.4,0.4,0.2
		c0.3,0.2,0.6,0.4,1,0.6c0.6,0.4,1.2,0.8,1.8,1.3c0.1,0.1,0.8,0.8,0.4,0.3c0.2,0.2,0.4,0.4,0.5,0.6c0.4,0.4,0-0.3,0,0
		c0,0.5,0-0.1,0-0.1c0,0.1,0.1,0.2,0.1,0.3c0-0.1,0-0.8-0.1-0.5c0-0.2,0.2-0.3,0-0.1s-0.3,0.2-0.4,0.3c0.5-0.3,0.1,0-0.1,0
		s-0.4,0.2-0.7,0.3s-0.8,0.2-0.3,0.1c-0.3,0-0.5,0.1-0.8,0.1c-0.6,0-1.1,0-1.7,0c-2-0.3-3.9-0.9-5.6-1.7c-4.4-2-8.6-4.6-12.5-7.6
		c-2.4-1.8-4.8-3.7-7.1-5.7c-0.8-0.7-2.3-0.8-2.8,0.2S379.9,255.1,380.7,255.9z"></path><path class="st0" d="M381.9,259.2c2.1,3.8,14.4,20.4,19.2,16.7c5.1-4-4.1-10.5-5.2-11.6s-2.2-4,1.4-4.4c6-0.6,24,3.1,26.5-2.7
		c1.8-4.3-6.1-5.5-14.9-6.8s-18.5-1.9-18.5-1.9s-53.7-51.2-72.2-58.4c-28.4-11.2-18.2,24.3,7.5,39.6
		C329.8,232.1,381.9,259.2,381.9,259.2z"></path><path class="st4" d="M379.8,260.6c1.6,2.8,3.5,5.3,5.6,7.8c2.5,3.1,5.3,6.2,8.7,8.4c1.2,0.9,2.7,1.4,4.2,1.5c2.1,0,4-1,5.3-2.7
		c3-3.6,0-7.5-2.8-10.1c-0.6-0.6-1.2-1.1-1.8-1.6l-0.6-0.5l-0.3-0.3c-0.4-0.3,0.2,0.2-0.1-0.1c-0.2-0.3-0.4-0.5-0.5-0.8
		c-0.1-0.3-0.1-0.8-0.3-1c0.1,0.1-0.9-0.3,0-0.2c0,0-0.8,1-0.9,0.8c0.3,0,0.6,0,0.9-0.1c3.9-0.2,7.8,0.4,11.7,0.6
		c4.1,0.2,8.6,0.4,12.5-1.3c3-1.2,7.1-5.4,3.7-8.4c-2-1.7-5-2.3-7.5-2.8c-3.6-0.7-7.2-1.2-10.8-1.7c-5.1-0.6-10.2-1.1-15.4-1.4
		l0.9,0.2c-2.6-2.5-5.3-4.9-7.9-7.4c-6.2-5.7-12.5-11.4-18.9-17c-7.5-6.6-15-13-22.8-19.1c-6.2-4.9-12.5-9.8-19.5-13.5
		c-6.4-3.4-16.3-6.4-22-0.1c-5.1,5.7-1.1,15.1,2.1,20.7c5,8.7,12.2,16,21,21c5.1,2.9,10.3,5.5,15.5,8.3c7.9,4.2,15.8,8.3,23.7,12.4
		l15.7,8.2l0.8,0.4c1.6,0.9,5.5-2.3,3.7-3.2l-19.9-10.4c-10.2-5.3-20.4-10.7-30.5-16.1c-3.2-1.6-6.3-3.4-9.3-5.4
		c-6.1-4.3-11.3-9.8-15.4-16.1c-2.8-4.5-5.6-10-5.3-15.5c0-0.4,0.1-0.8,0.2-1.1c0-0.2,0.1-0.5,0.2-0.7s0.3-0.8,0.1-0.4
		c0.1-0.2,0.2-0.4,0.3-0.6c0.1-0.1,0.5-0.7,0.1-0.2l0.4-0.4c0.4-0.5-0.3,0.2,0.2-0.2c0.1,0,0.4-0.4,0.1-0.1s0.1-0.1,0.1-0.1
		s1.1-0.4,0.1,0c0.2-0.1,0.4-0.2,0.6-0.3s-0.6,0.1,0,0l0.4-0.1c0.1,0,0.9-0.1,0.4-0.1c0.3,0,0.6-0.1,0.9-0.1c0.6,0,1.1,0,1.7,0
		c5,0.5,9.7,2.7,14,5.4c4.8,3,9.4,6.3,13.9,9.8c10.8,8.3,21.1,17.2,31.2,26.3c6.6,5.9,13.2,11.9,19.7,18c0.6,0.6,0.9,1,1.8,1.1
		s1.1,0.1,2.2,0.1c2.1,0.1,4.1,0.3,6.2,0.5c5.4,0.5,10.8,1.2,16.1,2.2c2,0.3,4,0.8,5.8,1.6c1,0.4,2.2,1.2,2.1,2.3
		c0,0.2-0.1,0.4-0.2,0.6c-0.2,0.4,0,0,0,0c-0.1,0.1-0.1,0.2-0.2,0.3c0.5-0.3,0.1-0.2,0,0s0.5-0.2,0,0c-0.1,0-0.5,0.3,0.1,0
		c-0.2,0.1-0.4,0.2-0.5,0.2l-0.4,0.1c0.4-0.1,0,0,0,0c-0.3,0.1-0.7,0.2-1,0.2c-0.7,0.1-1.3,0.2-2,0.3c-3.5,0.2-7,0.1-10.4-0.2
		c-2.9-0.3-5.8-0.5-8.7-0.3c-2.2,0.2-5,1.3-5.7,3.7c-0.3,1.3,0,2.7,0.9,3.7c1.6,1.9,3.8,3.2,5.3,5.2c0.9,1,1.4,2.2,1.4,3.5
		c0,0.2-0.1,0.4-0.2,0.5c-0.2,0.5,0,0.1,0,0.1s-0.4,0.1,0,0c-0.3,0.1,0.3-0.1,0.4-0.1c-0.4,0.1,0.1,0,0.1,0c-0.1,0-0.3,0-0.4,0
		c0.4,0-0.3-0.1-0.4-0.1l-0.5-0.1c-0.6-0.2-1.1-0.5-1.7-0.9c-1.2-0.8-2.4-1.7-3.5-2.8c-2.3-2.2-4.5-4.7-6.4-7.2
		c-1.5-1.8-2.8-3.7-3.9-5.7C383.1,256.3,378.9,258.9,379.8,260.6z"></path><path class="st0" d="M303.5,180.2c-3.5-7.6-5.5-15.7-6-24.1l-0.7,0.3l0,0c-7.9-2-14.4-7.3-18-14.6l-1.3-2.8
		c-0.4,1.2-0.6,2.2-0.9,3.2c-0.5-1.2-0.6-2.5-0.4-3.8c1.9-4.9,9.5-9.8,21.5-9.9c11.5-0.1,22.5,0.6,29.3,22.7
		c1,3.2,10.2,18.5,10.1,22.9c3.8,11.3-3.8,18.8-15.2,17.6c-6-0.6-12.1-2.1-15.5-6.4l0,0C305.8,184.6,303.5,180.2,303.5,180.2z"></path><path class="st4" d="M305.1,181c0.3,0.6,0,0-0.1-0.2c-0.2-0.4-0.4-0.9-0.6-1.3c-0.7-1.7-1.4-3.4-1.9-5.1c-1.8-5.4-2.9-11-3.2-16.7
		c0-0.8-0.9-1.6-1.4-2s-1.5-1.5-2.1-1.2c-0.9,0.3-1.3,0.1-2.2-0.2c-1.2-0.4-2.3-0.8-3.4-1.4c-2-1-3.8-2.3-5.4-3.8
		c-2.5-2.5-4-5.6-5.6-8.7c-0.5-0.9-1.2-1.7-2.1-2.3c-0.3-0.2-1.4-1.1-1.6-0.4c-0.3,1.1-0.6,2.1-0.9,3.2l3.7,2.7
		c-0.5-1.2-0.5-2.4-0.2-3.6c0.4-0.8,0.8-1.6,1.4-2.2c1.4-1.6,3-2.9,4.9-3.9c5-2.7,10.7-3.4,16.3-3.4c3.3-0.1,6.7,0.2,9.9,1
		c1.5,0.4,3,1,4.4,1.8c1.3,0.7,2.4,1.7,3.3,2.8c3.5,4.1,5.2,9.3,6.9,14.3c1.1,3.2,3,6.1,4.5,9.1c2,3.6,3.7,7.3,5.1,11.2
		c0.2,0.6,0.3,1.1,0.4,1.7c0.1,1.1,0.6,2.2,0.8,3.3c0.4,2.2,0.3,4.5-0.4,6.7c-1.6,4.7-6.2,7.3-11,7.8c-3.2,0.3-6.4,0-9.5-0.8
		c-2.5-0.6-5.7-1.3-7.4-3.4l0.5,1.3V187c0.6-1.1-3.3-4.1-3.7-3.4l0,0l3.2,2.1c0.4,0.5-0.1-0.1-0.1-0.2l-0.3-0.6
		c-0.3-0.6-0.7-1.2-1-1.8S305.4,181.7,305.1,181c-0.7-1-1.6-1.9-2.6-2.4c-0.8-0.4-1.1-0.1-0.7,0.8c1,1.9,2,3.8,3.2,5.6
		c0.2,0.3,2.7,2.9,3.2,2.1V187c0.6-1.1-3.3-4.1-3.7-3.4l0,0c-0.2,0.4,0.3,1,0.5,1.3c4.4,5.4,10.6,7.6,17.3,8.4
		c5,0.6,10.5,0,14.2-3.6s4-8.8,2.7-13.4c-0.5-1.6-0.7-3.3-1.3-4.9c-0.8-2.1-1.8-4.1-2.8-6.2c-1.9-3.9-4.1-7.6-5.9-11.5
		c-1-2.3-1.6-4.7-2.6-7c-1.1-2.7-2.5-5.3-4.1-7.8c-2.7-4.2-6.5-7.6-11-9.8c-3.5-1.5-7.3-2.4-11.1-2.4c-6.2-0.3-12.4,0.1-18.1,2.6
		c-2.4,1-4.6,2.6-6.4,4.6c-0.7,0.8-1.2,1.7-1.6,2.6c-0.6,1.4-0.1,3,0.3,4.5c0.2,0.7,3.4,3.9,3.7,2.7s0.6-2.2,0.9-3.2l-3.7-2.7
		c0.8,1.6,1.5,3.2,2.4,4.8c3.3,5.6,8.1,10.1,13.8,13.1c1.3,0.7,2.7,1.3,4.1,1.8c1.1,0.4,2,0.8,3.1,0.4l-3.5-3.3
		c0.4,8.6,2.5,17,6.3,24.8c0.6,1,1.5,1.9,2.6,2.4C305.2,182.2,305.5,181.9,305.1,181z"></path><path class="st0" d="M305.8,184.6c1.2,2,4.2,5.5,1.2,5.3c0,0-12.3,1.4-13.6-0.6c-1.2-1.7-1.5-4.2-8.5-6.4
		c-13.7-4.3-12.2-17.1-12.2-17.1c-1.7,0.1-3.5-0.1-5.1-0.8c-2.8-0.9-5.9-5.6,1.9-8.2c2.3-0.6,4-2.3,4.7-4.5c0.9-3,1.2-5.7,2.3-10.2
		c0.2-1,0.5-2,0.9-3.2l1.4,2.8c3.6,7.3,10.1,12.6,18,14.6l0,0l0.7-0.3c0.5,8.3,2.5,16.5,6,24.1L305.8,184.6z"></path><path class="st4" d="M303.4,184.1c0.4,0.7,3.6,4.5,2,5c-1.1,0.2-2.1,0.3-3.2,0.3c-1.9,0.2-3.9,0.2-5.8,0.2c-0.5,0-1,0-1.4-0.1
		c0.3,0-0.4,0-0.4,0c-0.5-0.1,0.3,0.2-0.2,0l0.3,0.1c-0.4-0.1-0.2,0,0.6,0.2c0,0,0.5,0.2,0.4,0.3l-0.4-0.7c-0.7-1.4-1.7-2.6-3-3.6
		c-2.5-1.8-5.4-2.4-8.1-3.6c-3.9-1.6-6.9-4.8-8.2-8.8c-0.8-2.1-1.1-4.4-0.9-6.6c0.1-1.1-3.7-1.7-4.4-1.6c-0.8,0-1.5-0.1-2.3-0.3
		c0.4,0.1,0.5,0.3,0.1,0l-0.4-0.3c-0.3-0.3-0.5-0.6-0.7-0.9c-1.5-2.5,1.1-4.5,3.2-5.4c1.5-0.5,2.9-1.1,4.1-2.1
		c1.2-1.3,2-2.9,2.3-4.6c1-3.9,1.6-7.9,2.8-11.8l-4.8-1.2c2.1,4.4,4.5,8.4,8.2,11.6c2.4,2,5,3.7,7.9,4.9c1.5,0.7,3.1,1.2,4.7,1.7
		c1.2,0.5,2.6,0.6,3.9,0.2l-4.8-1.6c0.4,7.2,1.9,14.3,4.6,21C300.8,179.1,302,181.6,303.4,184.1c0.4,0.8,2.1,1.1,2.8,1.3
		c0.2,0.1,2.2,0.4,1.9-0.2c-1.4-2.4-2.6-4.9-3.7-7.4c-2.7-6.6-4.3-13.7-4.6-20.8c0-0.6-1.5-1-1.9-1.2c-0.9-0.4-1.8-0.5-2.8-0.3
		c-0.1,0.1-0.9,0.3-0.4,0.2l2.2,0.3c-4.5-1.2-8.5-3.8-11.5-7.3c-2.3-2.7-4.1-5.8-5.6-9c-0.3-0.7-4.5-2.1-4.8-1.2
		c-1.1,3.6-1.8,7.2-2.6,10.9c-0.2,1.6-0.8,3.1-1.6,4.5c-0.9,1.1-2,1.9-3.4,2.3c-2,0.8-5.3,2.1-5.3,4.7c0,1.8,1.5,3.2,3,4.1
		c2,1,4.1,1.6,6.2,1.8c1.1,0.2,2.2,0.2,3.3,0.1l-4.4-1.6c-0.8,7.1,3.8,13.6,10,16.6c2.7,1.3,6,1.7,8.3,3.7c1.2,1,1.6,2.4,2.5,3.5
		c1.5,1.7,4.8,2,6.9,2.2c2.3,0.2,4.6,0.2,6.9,0c1-0.1,2-0.1,3-0.2c0.6-0.1,1.1-0.1,1.5-0.1c3.1-0.4-0.5-4.5-1.2-5.7
		c-0.5-0.8-2-1.1-2.9-1.2C305.1,183.8,303.1,183.5,303.4,184.1z"></path><path class="st4" d="M351.1,416.8l-8.3,0.6c0,0-22.4,6.9-20,11.5s14.8,6.3,31,5.2s22-6.5,15.7-18L351.1,416.8z"></path><path class="st4" d="M352,415.5l-7.8,0.6c-1.7,0.2-3.3,0.7-4.8,1.3c-3.1,1.1-6.2,2.2-9.2,3.6c-2.9,1.3-6,2.7-8.2,4.9
		c-0.8,0.7-1.4,1.6-1.7,2.7c0,1.1,0.6,2.1,1.5,2.7c2.6,2.4,6.7,3.1,10.1,3.6c5.6,0.8,11.3,1,16.9,0.7c5.4-0.2,10.8-0.6,15.9-2.2
		c3.6-1.2,7.7-3.2,9.2-7s-0.2-7.9-2-11.1c-0.3-0.5-1-0.5-1.5-0.5L352,415.5c-1.2,0-2.4,0.6-3.1,1.5c-0.5,1,0.6,1.1,1.3,1.1l18.4-0.7
		l-1.5-0.5c1.5,2.7,3,6,2.3,9.2c-0.2,1.1-0.7,2-1.4,2.9c-0.3,0.4-0.8,0.7-1.2,1l-0.5,0.3c-0.4,0.2,0.5-0.2-0.2,0.1l-0.4,0.2
		c0,0-0.7,0.3-0.3,0.1c-3.7,1.6-8.2,1.9-12.4,2.1c-5.3,0.4-10.6,0.3-15.9-0.2c-3.3-0.4-7-0.9-9.9-2.6c-0.9-0.5-1.7-1.2-2.2-2.2
		c-0.1-0.4-0.1-0.3,0-0.8s0,0,0.1-0.2s0.5-0.7,0.3-0.4c0.1-0.2,0.3-0.3,0.4-0.4c0.1-0.1,0.7-0.6,0.4-0.3c0.5-0.4,1.1-0.8,1.6-1.1
		c0.4-0.2,0.7-0.4,1.4-0.8s1.4-0.7,2.1-1s1.3-0.6,2-0.9l0.7-0.3l1.1-0.5c1.3-0.5,2.7-1,4-1.5c1-0.4,2-0.7,3.1-1
		c0.2-0.1,0.5-0.1,0.7-0.2c0.5-0.2-1.9,0.3-0.8,0.2c2.6-0.1,5.3-0.4,7.9-0.6c1-0.1,2.6-0.6,3.1-1.5S352.8,415.4,352,415.5z"></path><path class="st0" d="M348.1,395.3c0,0,5.7,14,4.7,16.4s-20.8,7.4-19,9.1s4.7,4.1,20,2.4c14.5-1.6,14.5-3,15.4-6s0.9-21.2,0.9-21.2
		L348.1,395.3z"></path><path class="st4" d="M346.3,394c1.1,2.8,2.2,5.7,3.1,8.6c0.7,1.9,1.2,3.8,1.6,5.7c0.2,1.2,0.2,1.7-0.7,2.3
		c-1.3,0.8-2.7,1.4-4.1,1.9c-2,0.8-3.9,1.5-5.9,2.2c-1.8,0.6-3.6,1.3-5.3,2c-0.9,0.4-2.4,0.8-2.9,1.7c-0.8,1.3,1.4,3,2.2,3.7
		c0.9,0.8,1.9,1.5,3,2c3.8,1.7,8.2,1.5,12.2,1.3c3.7-0.2,7.4-0.6,11-1.1c2.2-0.3,4.4-0.7,6.6-1.4c1.9-0.5,3.5-2,3.9-3.9
		c0.9-3.1,0.7-6.7,0.8-9.9c0.1-3.7,0.2-7.3,0.2-11v-0.7c0-1.3-2.1-3.4-3.4-3.4l-19.2-0.6l-2.8-0.1c-0.9,0,0.4,1.8,0.5,1.9
		c0.6,0.7,1.6,1.8,2.6,1.8l19.2,0.6l2.8,0.1l-3.4-3.4c0.1,6.5,0,13-0.6,19.5c-0.2,1.7-0.5,3.4-1.8,4.4c-1.1,0.7-2.4,1.2-3.7,1.4
		c-2.6,0.6-5.3,1-8,1.3c-5.3,0.6-11.2,1.5-16.5,0.4c-0.6-0.1-1.2-0.3-1.8-0.5c-0.2-0.1-0.3-0.1-0.5-0.2c-0.2-0.1-0.5-0.2-0.7-0.4
		c0.6,0.3,0-0.1-0.2-0.1c0.7,0.4,0.2,0.2,0,0c-0.4-0.4,0.5,0.5,0,0c-0.6-0.7,0.7,1.9,1.1,1.7c0.1,0-0.1,0.1,0,0
		c5.3-3.7,12.2-4.3,17.8-7.5c1-0.4,1.6-1.4,1.4-2.4c-0.2-2-0.7-3.9-1.4-5.8c-1-3.3-2.2-6.5-3.5-9.7c-0.5-1.1-1.2-2-2.2-2.6
		C347.4,393.7,345.9,393,346.3,394z"></path><path class="st0" d="M354.6,244.6c0,0,43,139,21.3,160.6c-10.7,10.7-51.1,16.7-53.5-20.9c-1.6-25.1-6.3-96.5-6.3-96.5L354.6,244.6z
		"></path><path class="st4" d="M352.3,245.5c1.3,4.1,2.5,8.2,3.6,12.3c2.9,10.1,5.7,20.2,8.2,30.4c3.3,13.1,6.4,26.3,9,39.6
		c2.7,13,4.7,26.2,5.9,39.5c0.5,5.5,0.7,11,0.6,16.5c0,4.5-0.6,8.9-1.6,13.3c-0.1,0.5-0.3,0.9-0.4,1.4s0.1-0.2-0.1,0.3
		c-0.1,0.2-0.1,0.4-0.2,0.6c-0.3,0.8-0.6,1.6-1,2.3c-0.2,0.3-0.4,0.7-0.5,1s0.3-0.5,0.1-0.1c0,0.1-0.1,0.1-0.1,0.2s-0.2,0.4-0.4,0.6
		s-0.4,0.5-0.6,0.8s-0.6,0.6,0,0l-0.5,0.5c-0.3,0.3-0.7,0.6-1,0.9l-0.6,0.5c0.6-0.5-0.1,0.1-0.3,0.2c-0.9,0.6-1.8,1.2-2.8,1.6
		c-0.7,0.3,0.3-0.1-0.4,0.2l-0.8,0.4c-0.6,0.2-1.1,0.5-1.7,0.7s-1.1,0.4-1.7,0.6l-0.8,0.3l-0.6,0.2h-0.2c-10.4,2.7-22.6,2-30.8-6.1
		c-5-5-7.1-12-7.8-18.9c-0.6-6.1-0.8-12.2-1.2-18.2c-1-15.4-2-30.7-3-46.1c-0.7-10.7-1.4-21.3-2.1-32c0-0.5-0.1-1.1-0.1-1.6
		l-0.5,1.4l13-14.7l20.7-23.3l4.8-5.4c0.6-0.5,0.6-1.5,0.1-2.1c-0.1-0.2-0.3-0.3-0.5-0.4c-1.2-0.4-2.5,0.4-3.2,1.3L330,269.7
		l-13.1,14.8c-0.8,0.9-1.8,1.9-2.5,2.9s-0.5,2.1-0.4,3.2c1,14.3,1.9,28.7,2.8,43c1.1,17.2,2.2,34.5,3.4,51.7
		c0.6,8.7,3.5,17.5,10.3,23.2c5.5,4.7,13,6.7,20.1,6.8c6.8,0.1,13.6-1.3,19.7-4.2c4.7-2.3,8.7-5.4,10.8-10.3c2.1-4.7,2.8-10,3.1-15
		c0.3-6.9,0.2-13.8-0.5-20.7c-1.4-16.5-4.5-32.8-8-49c-3.3-15.4-7.1-30.6-11.2-45.7c-2.3-8.5-4.7-17-7.3-25.4l-0.4-1.2
		C356.2,241.4,351.7,243.5,352.3,245.5z"></path><path class="st4" d="M178.9,332.9l-5.2-6.5c0,0-18.3-14.6-20.7-10.1s3.1,15.8,13.2,28.6s17.7,14.5,23.7,2.9L178.9,332.9z"></path><path class="st4" d="M181.1,332.2l-4.6-5.8c-0.9-1-1.8-1.8-2.9-2.6c-4.6-3.5-9.6-7.3-15.1-9.2c-2.4-0.8-6.1-1.6-7.7,1
		s-0.5,6.1,0.3,8.6c1.8,4.6,4.1,8.9,6.9,12.9c3.2,5.1,7,9.9,11.2,14.1c3.5,3.3,7.8,6.3,12.9,5.7s8.1-4.6,10.2-8.8
		c0.2-0.4,0.1-0.9-0.2-1.2L181.1,332.2c-1.1-1.5-6-0.8-4.4,1.3l10.9,14.8l-0.2-1.2c-0.9,1.8-2,3.5-3.4,4.9c-0.5,0.5-1,0.9-1.6,1.3
		c-0.1,0.1-0.8,0.4-0.7,0.4l-0.4,0.1c0,0-0.7,0.2-0.3,0.1c-0.2,0-1,0.1-0.5,0.1h-0.5c-0.8,0,0.3,0.1-0.2,0c-0.7-0.1-1.4-0.4-2-0.7
		c-1.6-0.9-3.1-2-4.4-3.2c-3.9-3.9-7.3-8.1-10.3-12.7c-2.7-3.7-4.9-7.7-6.8-11.9c-0.9-2.3-2.1-5.5-1.4-7.9c0,0,0.2-0.4,0.2-0.6
		c0-0.1,0.1-0.2,0.1-0.2c-0.3,0.6-0.1,0.1-0.1,0.1s0.2-0.1,0.1-0.1s-0.4,0.3-0.1,0.1c0,0-0.7,0.2-0.4,0.1c-0.3,0-0.4-0.1,0.1,0
		s-0.6-0.2,0.1,0l0.6,0.2c0.6,0.2-0.1-0.1,0.4,0.1c4.8,1.9,9.1,5.1,13.3,8.2c0.7,0.5,1.3,1,2,1.5c0.1,0,0.2,0.2,0.3,0.3
		c-0.4-0.1-0.4-0.5-0.2-0.2c0.1,0.2,0.2,0.3,0.4,0.5l4.7,5.9c0.9,0.9,2.2,1.2,3.4,0.8C181,334,181.9,333.1,181.1,332.2z"></path><path class="st0" d="M195,318.3c0,0-8.4,12.6-10.9,13.1s-19.6-12.2-18.4-10c0.9,1.6,0.3,7.2,9.6,18.1c9.5,11.1,10.6,9.5,13.5,8.5
		s18-11.2,18-11.2L195,318.3z"></path><path class="st4" d="M193.4,316.3c-1.7,2.5-3.4,5-5.3,7.4c-1.2,1.6-2.5,3.1-3.9,4.5l-0.4,0.4c0,0-0.4,0.3-0.2,0.2s-0.4,0.2-0.5,0.3
		c0.1,0,0.5-0.1,0.2-0.1s0.4,0.1,0.2,0c-0.1,0-0.2,0-0.3-0.1c-0.4-0.1,0.1,0,0,0c-3.3-1.3-6.3-3.4-9.3-5.3c-1.6-1-3.1-2-4.7-3
		c-1-0.7-2.1-1.3-3.2-1.7c-2.2-0.7-2.8,1.7-2,3.4c0.1,0.2-0.2-0.7-0.1-0.1c0,0.2,0.1,0.4,0.2,0.6c0.1,0.5,0.2,1,0.4,1.6
		c1.3,4.6,3.5,8.9,6.4,12.6c2.1,2.9,4.5,5.7,7,8.2c1.6,1.8,3.4,3.3,5.3,4.7c2.2,1.4,4,1.2,6.3,0.4c3.1-1.1,5.9-3.2,8.6-4.9
		c3.1-2,6.1-4,9.2-6l0.6-0.4c0.9-0.7,1.2-2.1,0.5-3.1l-10.3-16.2l-1.5-2.4c-0.6-0.9-1.6-2-2.8-1.4s-1.1,2.2-0.5,3.1l10.3,16.2
		l1.5,2.4l0.5-3.1c-2.6,1.8-5.2,3.5-7.9,5.2c-2,1.3-4,2.6-6,3.8c-1.3,0.8-2.6,1.6-4.1,2.2l-1.3,0.5c0.6-0.2,0,0-0.2,0
		c-0.2,0-0.4,0-0.6,0c0,0,0.4,0.1,0.1,0c-0.1,0-0.2,0-0.3-0.1c-0.1,0-0.5-0.2-0.2,0s-0.1-0.1-0.2-0.1l-0.4-0.2
		c-0.1-0.1-0.6-0.4-0.1-0.1c-0.4-0.3-0.8-0.5-1.1-0.8c-2.3-2-4.5-4.3-6.4-6.7c-2.3-2.6-4.4-5.5-6.1-8.5c-0.3-0.6-0.6-1.2-0.9-1.9
		c-0.1-0.3-0.3-0.6-0.4-0.9c-0.1-0.1-0.1-0.3-0.2-0.4c-0.3-0.9-0.6-1.7-0.8-2.6c-0.1-0.6-0.3-1.3-0.4-1.9c-0.1-0.2-0.1-0.4-0.2-0.6
		c-0.1-0.3-0.2-0.5-0.3-0.8c-0.3-0.5,0.2,1.1,0.2,1l-0.2,1.1c-0.2,0.6-0.9,1-1.5,0.8h0.1c-0.6-0.1-0.4-0.1-0.1,0s0.8,0.4,1.2,0.7
		c1.2,0.7,2.3,1.4,3.5,2.2c2.8,1.8,5.6,3.6,8.5,5.3c1.7,1,4.4,2.8,6.4,1.9c1.1-0.7,2.1-1.5,2.9-2.5c1.2-1.3,2.3-2.7,3.4-4.1
		c1.6-2.2,3.2-4.4,4.7-6.7c0.7-1,0.6-2.4-0.2-3.3C195.7,316.2,194.1,315.3,193.4,316.3z"></path><path class="st0" d="M310.2,245.6c0,0-107.4,37.2-116.8,61.5s0.2,54,34.4,42.7c117.7-38.8,129.4-97.2,129.4-97.2L310.2,245.6z"></path><path class="st4" d="M311.9,244.2c-5.8,2-11.6,4.1-17.3,6.3c-13,4.9-26,10.2-38.7,15.8c-13.8,6.1-27.5,12.6-40.4,20.5
		c-5.5,3.3-10.7,7-15.6,11.1c-3.3,2.9-6.7,6.2-8.4,10.2c-5.2,12.5-5.9,31.3,5.6,40.7c6.2,5,14.5,5.6,22.1,4.2
		c5.9-1.1,11.5-3.3,17.1-5.3c5.9-2.1,11.7-4.4,17.5-6.8c18.9-7.6,37-17.3,53.8-28.8c11.8-8,22.6-17.4,32.2-28
		c5.9-6.5,11-13.8,15.1-21.6c1.9-3.4,3.4-7.1,4.4-10.9c0-0.2,0.1-0.3,0.1-0.5s0-0.2-0.1-0.2l-15.9-2.4L318,245l-5.9-0.9
		c-0.8-0.1-2.1,1.1-2.7,1.5c-0.2,0.1-1.6,1.4-1.1,1.4l36,5.4l8.4,1.3c0.7,0.2,1.5,0.3,2.2,0.3c0.5,0,0.3,0.2,0.3-0.1
		c-0.1,1-0.4,2.1-0.9,3c-2.4,6.5-5.6,12.7-9.6,18.3c-3.3,4.8-6.9,9.3-10.9,13.5c-5,5.4-10.5,10.4-16.2,15
		c-7.3,5.8-14.9,11.1-22.9,15.8c-10,5.9-20.4,11.2-31.1,15.9c-6.3,2.8-12.6,5.3-19.1,7.7c-3.4,1.3-6.8,2.5-10.2,3.6
		c-3.3,1.2-6.6,2.2-9.9,3.1c-8.7,2-18.4,1.3-24.9-5.4c-5.7-5.8-7.6-14.3-7.4-22.2c0.1-4.6,0.9-9.1,2.3-13.5c0.7-2.5,1.9-4.9,3.4-7
		c0.7-0.9,1.4-1.8,2.3-2.5l0.7-0.7c0.1-0.1,0.8-0.7,0.5-0.5c0.6-0.5,1.1-1,1.7-1.5l0.5-0.5l0.9-0.7c0.6-0.5,1.2-1,1.9-1.4
		s-0.4,0.3,0.1-0.1c0.2-0.1,0.3-0.2,0.5-0.4l1-0.7l2.3-1.6c-0.5,0.3,0.1-0.1,0.2-0.1l0.6-0.4l0.9-0.6c0.8-0.5,1.7-1.1,2.5-1.6
		c1.7-1.1,3-1.8,4.8-2.9c3.5-2,7.1-3.9,10.7-5.8c15.3-7.8,31-14.6,47-21c10-4,20-7.8,30.1-11.4l1.5-0.5c1.1-0.4,2.1-1.1,2.9-1.8
		C311.7,245,312.9,243.9,311.9,244.2z"></path><path class="st4" d="M364,250.7c0,0-42.5-68.5-61.3-68.3s-21.7,54.2-16.6,68.2C291.3,264.7,330,279,364,250.7z"></path><path class="st4" d="M366.4,250.4c-1.9-3.1-3.9-6.1-5.9-9.2c-4.7-7.1-9.6-14.1-14.6-21c-5.7-7.8-11.8-15.4-18.3-22.6
		c-5.1-5.6-10.8-11.5-17.7-14.8c-2.8-1.5-6.1-2.2-9.3-1.8c-3.5,0.6-6.7,2.5-8.8,5.4c-2.4,3.2-4.3,6.7-5.4,10.5
		c-1.5,4.6-2.7,9.2-3.4,14c-1.6,9.4-2,19-1.3,28.6c0.2,3.5,0.8,7,1.7,10.4c1.1,3.1,3,5.9,5.6,8c7.7,6.6,18.3,9.6,28.3,10.3
		c13.7,0.8,27.4-2.6,39.1-9.8c3.4-2.1,6.6-4.4,9.7-6.9c0.9-0.7,0-1.6-0.8-1.9c-1.1-0.5-2.4-0.3-3.4,0.4
		c-10.6,8.8-23.5,14.7-37.4,15.6c-9.6,0.6-19.8-1.3-27.9-6.4c-2.9-1.7-5.4-4.1-7.2-7c-1.3-2.6-2-5.4-2.3-8.3
		c-1.1-8.8-1.1-17.6,0-26.4c0.9-8.7,2.5-18,6.7-25.8c0.8-1.5,1.7-2.9,2.7-4.2c0.5-0.6,1.1-1.2,1.7-1.7c0.3-0.2,0.6-0.5,0.9-0.7
		c0.1-0.1,0.4-0.3,0.3-0.2l0.4-0.2c0.3-0.2,0.6-0.3,0.9-0.5s0.4-0.2,0.1,0c0.2-0.1,0.4-0.1,0.5-0.2s1.2-0.2,0.5-0.1l1.1-0.1
		c-0.7,0.1,0,0,0.3,0s0.6,0.1,0.1,0s0.1,0,0.2,0l0.8,0.2c0.4,0.1-0.5-0.2-0.1,0l0.5,0.2c0.6,0.2,1.2,0.4,1.8,0.7
		c-0.5-0.2,0.4,0.2,0.5,0.3c0.3,0.2,0.7,0.4,1,0.6c1.4,0.8,2.7,1.7,4,2.7c1.2,0.9,2.8,2.3,4.1,3.4c1.5,1.4,2.9,2.8,4.4,4.2
		c6.4,6.7,12.4,13.8,17.9,21.2c5.2,6.8,10.1,13.8,14.9,20.9c2.7,4,5.3,8,7.9,12.1c0.1,0.2,0.2,0.4,0.4,0.6c0.7,0.9,1.9,1.3,3,1.1
		C365.2,252,367,251.4,366.4,250.4z"></path><path class="st0" d="M270,217.7c0,0-34-28.8-37.8-31.7c0,0-4.8-19.3-9.7-17.1s-2.1,12-2.1,12s-19.3-11.8-22.2-9
		s10.7,15.1,10.7,15.1s-17.5-9.8-18.1-4.8s12.7,11.8,12.7,11.8s-11.1-3.7-11,0.2s30.7,14.1,30.7,14.1s25.9,39.7,44,41.1
		s52.4-30.2,52.4-30.2s-11.8-21.4-25.1-20.5C293.3,198.9,270,217.7,270,217.7z"></path><path class="st4" d="M271.8,217.9c-3.9-3.3-7.8-6.7-11.8-10c-6.7-5.7-13.4-11.3-20.1-17c-2.1-1.7-4.1-3.5-6.2-5.1l0.8,1
		c-1.1-4.6-2.7-9.1-4.8-13.4c-1.5-2.8-3.6-5.1-6.7-5.9s-5.1,1.9-5.5,4.7c-0.3,2.6-0.1,5.3,0.7,7.8l3.2,0.4
		c-5.6-3.6-11.6-6.7-17.9-9.1c-1.6-0.6-7.2-2.7-7.9,0.1c-0.3,1.3,0.6,2.8,1.2,3.9c1.1,1.7,2.3,3.3,3.7,4.7c2.1,2.3,4.3,4.6,6.6,6.7
		l2.8-0.2c-4.9-2.7-10.2-5.5-15.7-6.7c-1.9-0.4-5.8-1-5.6,2c0.1,1.6,1.2,3,2.2,4.1c1.3,1.4,2.8,2.7,4.3,3.8c2.6,1.9,5.3,3.5,8.1,5
		l0.1-1.8c-3.2-1.1-7-2.2-10.4-1.8c-1.3,0.2-2.9,0.9-2.5,2.5c0.3,1.2,1.6,2.1,2.6,2.7c3.4,2.2,7,4.1,10.7,5.5
		c4.2,1.8,8.4,3.4,12.7,5c2.4,0.9,4.8,1.7,7.2,2.5l-2.4-1.6c3.1,4.7,6.5,9.2,10,13.7c6.5,8.2,13.6,16.3,22,22.5
		c3.9,2.8,8.2,5.4,12.9,6.4c4.2,0.8,8.5,0.5,12.4-1c9.9-3.2,18.9-9.5,27.2-15.6c5.5-4.1,10.8-8.4,15.8-12.9l0.4-0.4
		c0.1-0.2,0-0.4-0.1-0.5c-1.7-3-3.7-5.9-5.9-8.6c-4.2-5.2-9.2-9.9-15.4-12.4c-1.6-0.6-3.2-1.1-4.9-1.3c-1.1-0.3-2.2-0.3-3.2,0
		c-1.1,0.6-2.2,1.3-3.1,2.2c-4.1,3.1-8.2,6.3-12.3,9.5c-3,2.3-5.9,4.7-8.9,7.1c-1,0.8,3.2,3.3,4.1,2.5c6.2-5,12.4-9.9,18.7-14.7
		c1.5-1.1,2.9-2.2,4.4-3.3c0.4-0.3,0.8-0.5,1.1-0.7l0.2-0.1c-0.3,0.1-0.1,0,0.3,0c0.6,0,1.3,0,1.9,0.1c1.1,0.2,2.1,0.5,3.1,1.1
		c1.1,0.6,2.1,1.2,3,2c2.2,1.8,4.2,3.7,6,5.9c2.5,3,4.8,6.2,6.7,9.5l-0.1-0.5l-0.4,0.4l-1.5,1.3c-1.8,1.5-3.5,3.1-5.3,4.5
		c-5.4,4.5-11,8.7-16.8,12.6c-6,4-12.4,7.8-19.4,10c-2.6,0.9-5.5,1.4-8.3,1.2c-2.3-0.2-4.5-1-6.4-2.3c-2.8-1.7-5.4-3.6-7.8-5.8
		c-2.8-2.5-5.5-5.2-8.1-8c-4.6-5-8.8-10.3-12.8-15.7c-1.3-1.8-2.6-3.6-3.9-5.5c-0.5-0.8-1-1.5-1.5-2.2c-1.1-1.3-3.3-1.8-4.9-2.3
		c-2.5-0.9-5-1.8-7.6-2.7c-1.6-0.6-3.1-1.2-4.6-1.8l-2.1-0.9l-1.2-0.5l-0.5-0.2l-0.5-0.2c0.2,0.1,0.2,0.1,0,0
		c-1.4-0.6-2.8-1.2-4.2-1.9c-0.6-0.3-1.3-0.6-1.9-0.9s0.1,0.1-0.4-0.2l-0.9-0.5l-0.7-0.4c-0.4-0.2,0.1,0,0.1,0.1
		c-0.1-0.1-0.2-0.2-0.4-0.2l-0.5-0.4c0.2,0.2,0.1,0.1-0.2-0.2c-0.1-0.1,0.1,0.3-0.1-0.1c-0.1-0.2-0.1-0.2,0-0.1
		c-0.1-0.3,0-0.7,0.2-1c0.6-0.8,2.1-0.7,3-0.6c1.4,0.1,2.7,0.4,4.1,0.8l1.5,0.4c0.2,0.1,0.9,0.3,0,0l0.2,0.1c0.5,0.1,1.8,0.7,2-0.1
		s-1.5-1.5-1.9-1.7s-0.2-0.1,0.1,0.1c-0.4-0.3-0.9-0.5-1.3-0.7c-1.1-0.6-2.5-1.5-3.3-2.1c-2.2-1.5-5.3-3.5-6.1-6.2
		c-0.3-0.7-0.2-1.5,0.4-2.1c0.7-0.3,1.5-0.3,2.2-0.1c0.3,0.1,1.2,0.3,1.7,0.5c-0.4-0.1,0.4,0.1,0.5,0.2c0.4,0.1,0.9,0.3,1.3,0.5
		l1,0.4l0.6,0.2c-0.1,0-0.4-0.2,0,0c0.7,0.3,1.4,0.6,2.1,1c1.3,0.6,2.6,1.2,3.8,1.9c0.2,0.1,0.4,0.2,0.6,0.3s-0.6-0.3,0,0l0.4,0.2
		c0.8,0.6,1.7,0.9,2.7,0.9c0.7-0.1,0.6-0.7,0.1-1.1c-1.7-1.5-3.4-3.2-5-4.9c-1.3-1.3-2.5-2.7-3.6-4.2c-0.9-1.1-1.6-2.3-2.1-3.7
		c-0.1-0.4-0.1-0.8,0.1-1.2c0.2-0.2,0.4-0.4,0.7-0.5c0.4-0.1,0.8-0.1,1.2,0c0.5,0.1-0.3-0.1,0.1,0l0.4,0.1l0.6,0.1
		c0.1,0,0.3,0.1,0.4,0.1c0.8,0.3,1.6,0.6,2.3,0.9c0.1,0,0.2,0.1,0.3,0.1l0.4,0.2c0.5,0.2,1.1,0.5,1.6,0.7c0.9,0.4,1.7,0.8,2.5,1.2
		l1.1,0.6l0.7,0.4l0.4,0.2h0.1c2.2,1.2,4.3,2.4,6.5,3.7c0.2,0.1,3.6,1.6,3.2,0.4c-0.7-2.5-0.9-5.1-0.6-7.6c0.3-1.5,1-3.2,2.6-3.9
		c0.3-0.1,0.4,0,0.2-0.1c-0.5-0.2-1.1-0.4-1.6-0.7c0,0,0.3,0.3,0.1,0.1s0.1,0.1,0.2,0.2c0.2,0.2,0.4,0.4,0.5,0.6
		c1.8,2.8,3.2,5.8,4.1,9c0.4,1.3,0.9,2.7,1.2,4c0.1,0.6,0.3,1.2,0.5,1.8c0.3,0.8,1.3,1.3,1.9,1.8s1.5,1.2,2.3,1.9
		c2.3,1.9,4.6,3.9,6.9,5.8c5.5,4.7,11.1,9.3,16.6,14l10.5,8.9c0.9,0.8,2,1.4,3.2,1.6C272.1,219.1,272.6,218.6,271.8,217.9z"></path><path class="st4" d="M279.9,153.9c-0.5,0.8-0.3,1.8,0.5,2.3c0.1,0,0.1,0.1,0.2,0.1c1.6,0.8,2.6-1.3,1.4-2.4c-0.5-0.6-1.4-0.7-2-0.2
		C280,153.8,279.9,153.8,279.9,153.9z"></path><path class="st4" d="M280.6,149.3c0.3,0,0,0-0.1,0l-0.5-0.1H280l-0.4-0.2c-0.5-0.2-0.9-0.5-1.4-0.8c-0.9-0.7-1.6-1.7-2-2.8
		c-0.9-2.5,0.1-5.8,1.8-7.8c0.3-0.3,0.6-0.6,0.5-1.1c-0.2-0.4-0.5-0.6-1-0.7c-1.2-0.2-2.5,0.2-3.4,1c-2.3,2.6-4,6.7-2.7,10.1
		c1.3,3,4.1,5.1,7.4,5.2c1.2,0.1,2.4-0.4,3.2-1.4C282.6,149.8,281.4,149.5,280.6,149.3L280.6,149.3z"></path><path class="st4" d="M269.9,148.8c-0.8-3.5,0.2-7.2,2.7-9.7c1.1-1.1,2.4-2,3.9-2.6c0.3-0.1,0.6-0.2,0.9-0.3l0.3-0.1l0,0l0.5-0.2
		c0.7-0.2-0.5,0.1,0.2,0l0.6-0.2c-0.4,0.1,0.1,0,0.2,0l0.6-0.1c0.6-0.1,1.3-0.3,1.9-0.5c0.1,0,1-0.3,1-0.5c0.2-0.6-1.6-0.2-1.8-0.1
		c-4.3,0.8-9,2-12.4,4.9c-3.1,2.6-4.4,6.7-3.6,10.7C265.1,150.6,270,149.5,269.9,148.8L269.9,148.8z"></path><path class="st0" d="M295.2,162.2c0,0,0.3-8.4,6.4-5.6s0.5,12.2-4.6,14.1"></path><path class="st4" d="M297.5,163c0-0.2,0-0.5,0.1-0.8s0.1-0.5,0.1-0.8s0.1-0.3,0.1-0.4c0.1-0.6-0.1,0.4,0-0.1s0.2-0.7,0.4-1
		c0.1-0.2,0.1-0.3,0.2-0.5l0.1-0.2c0.2-0.3-0.3,0.4-0.1,0.1s0.2-0.3,0.3-0.4s0.5-0.5,0.2-0.3s0.1-0.1,0.3-0.1l0.2-0.1
		c0.3-0.2-0.4,0.1-0.1,0c0.1,0,0.8-0.1,0.4-0.1s0.3,0,0.4,0.1c0.5,0-0.1,0.1-0.1,0l0.4,0.1l0.4,0.1l0.3,0.1l-0.3-0.1
		c0.1,0,0.9,0.6,0.5,0.3s0.2,0.2,0.3,0.3s-0.4-0.6-0.1-0.1c0.1,0.1,0.1,0.2,0.2,0.3c0.2,0.2-0.2-0.6-0.1-0.1c0,0.1,0.1,0.2,0.1,0.4
		c0.2,0.4-0.1-0.5,0-0.1l0.1,0.3c0,0.1,0,0.2,0,0.3c0.1,0.4,0-0.4,0-0.1c-0.1,0.5-0.1,1.1-0.2,1.6c0,0.3,0.1-0.5,0,0l-0.1,0.4
		c-0.1,0.2-0.2,0.5-0.3,0.7c-0.2,0.6-0.5,1.1-0.8,1.6l-0.2,0.4c0.2-0.4,0,0-0.1,0.1c-0.2,0.3-0.4,0.5-0.6,0.8
		c-0.4,0.5-0.9,1-1.4,1.4c-0.2,0.2-0.5,0.4-0.7,0.6s0,0,0,0l-0.5,0.3c-0.5,0.3-1,0.6-1.5,0.8c-1.2,0.4-1,2.1-0.4,3
		c0.7,1.1,2,1.5,3.2,1.1c2.5-1.1,4.7-3,6.1-5.4c1.4-2.2,2.5-5,1.8-7.6c-0.9-3.3-3.7-5.6-7.1-5.9c-2.4-0.1-4.5,1.3-5.3,3.5
		c-0.6,1.3-0.9,2.7-1,4.1c0,1.3,0.8,2.5,2,2.9c1,0.3,2.4-0.1,2.5-1.4L297.5,163z"></path><path class="st4" d="M283.1,170.9c1.2,0.1,2.5-0.1,3.6-0.6c0.7-0.3,1.3-0.8,1.7-1.4c0.4-0.5,0.6-1.1,0.6-1.8c0-0.8-0.1-1.5-0.4-2.2
		c-0.1-0.4-0.9-0.6-1.2-0.6c-0.6-0.1-1.3-0.1-1.9,0c-0.5,0.1-1,0.3-1.5,0.6l-0.2,0.3c-0.1,0.2-0.1,0.4,0,0.6c0,0.1,0.1,0.2,0.1,0.4
		l-0.1-0.3c0.2,0.6,0.3,1.3,0.1,1.9l0.1-0.3c-0.1,0.4-0.3,0.8-0.6,1.2l0.2-0.3c-0.2,0.2-0.4,0.4-0.6,0.6l0.4-0.3
		c-0.2,0.1-0.3,0.2-0.5,0.3l0.5-0.2c-0.1,0-0.2,0.1-0.2,0.1c-0.4,0.1,0.7-0.1,0.3-0.1s0.8-0.1,0.4,0h-0.1c-0.3,0,0.8,0,0.5,0
		c-0.6,0-1.3,0-1.9,0.2c-0.3,0.1-1,0.4-1.1,0.8C280.9,170.6,282.5,170.9,283.1,170.9L283.1,170.9z"></path><path class="st4" d="M293,145.5c8.2,5.6,18.3,7.6,28,5.4c0.7-0.1,1.1-0.7,1-1.4c0-0.3-0.2-0.5-0.4-0.7c-0.9-0.9-2.2-1.2-3.4-0.9
		c-7.6,1.7-15.6,0.2-22-4.2c-1-0.8-2.3-0.9-3.4-0.4C291.7,143.9,292.2,144.9,293,145.5L293,145.5z"></path><path class="st4" d="M313.5,165.6c3.4,7.5,8.7,13.9,15.4,18.7c0.4,0.4,1.1,0.4,1.5,0c0.2-0.2,0.3-0.5,0.3-0.8
		c0.1-1.3-0.5-2.4-1.5-3.2c-2.9-2.1-5.5-4.5-7.8-7.2c-1.1-1.3-2-2.6-2.9-4.1c-0.5-0.9-0.8-1.3-1.2-2.1s-0.8-1.7-1.2-2.5
		s-1.4-2.1-2.4-1.7S313.1,164.9,313.5,165.6L313.5,165.6z"></path><g class="st5"><path class="st1" d="M243.7,150.6c0,0-30.1,25.5-15,48.6s10.1,31.5,0,47.3s-15.6,43.8,15,64.7s-20.7,45-15,58
			c0,0-79.5-5.6-92.1-27s-7.2-195.3-7.2-195.3L243.7,150.6z"></path><path class="st1" d="M229.5,369.6l-0.8-0.1c-13.9-1.1-27.7-2.9-41.4-5.5c-28.6-5.4-45.8-12.7-51.1-21.7s-8.1-44.6-8.4-105.9
			c-0.2-45.6,1.1-89.2,1.1-89.6v-0.5h0.5l115.6,3.8l-1,0.8c-0.3,0.2-29.6,25.4-14.9,47.9c15.5,23.6,10,32.2,0,47.8
			c-3.5,5.4-9.1,16.6-7.7,30.1c1.3,13.2,8.9,24.6,22.6,33.9c6.1,4.1,9.3,8.6,9.9,13.7c1.1,9.3-7.3,18.5-14.6,26.7
			c-6.5,7.2-12.1,13.4-10.1,17.9L229.5,369.6z M129.9,147.4c-0.3,10.4-4.9,174.1,7.2,194.5c11.7,19.8,82.7,26,90.9,26.6
			c-1.4-5,4.2-11.1,10.6-18.2c7.2-8,15.4-17,14.4-25.9c-0.6-4.7-3.7-9-9.5-12.9c-13.9-9.5-21.6-21.1-23-34.6
			c-1.4-13.8,4.3-25.2,7.9-30.8c9.8-15.3,15.1-23.7,0-46.7c-13.7-20.9,9.1-43.8,14.2-48.4L129.9,147.4z"></path></g></g></svg>