<svg transform="scale(1)" version="1.1" id="xXSVHcIE7G" xmlns="http://www.w3.org/2000/svg" xmlns:xlink="http://www.w3.org/1999/xlink" x="0px" y="0px" viewBox="0 0 500 500" xml:space="preserve" class="pbimage_pbimage__wrapper__image__0LEis false"><title>Being OK 1</title><style type="text/css"> .st0{fill:#FFFFFF;} .st1{fill:#000005;} .st2{fill:#59BE4C;}
 .st2{fill:#59BE4C;}
 .st1{fill:#000005;}
 .st0{fill:#FFFFFF;}</style><g id="character"><path class="st0" d="M124.7,364.1c0,0-21.4,17.9-42.4,24.3S48.9,408.6,58,409.7c0,0-10.2,6.6-11.5,14.5l11.4-2.2
		c0,0,42.2-8.7,51.1-3.6s1.9,17.4-0.6,23.2s-1.8,10.2,4.9,12.6c5.9,2.1,39.5-26.5,61.8-66.8c25.6-46.1,19.5-56.3,19.5-56.3
		L124.7,364.1z" fill="#FFFFFF"></path><path class="st1" d="M123.1,362.2c-8.6,7.1-18,13.3-28,18.3c-3.9,2-7.9,3.7-12,5.2c-4.2,1.3-8.4,2.9-12.4,4.7
		C65,393,58.8,396.5,55,401.6c-1,1.3-2.2,3.2-1.5,4.9c0.8,1.7,2,3.1,3.5,4.2c0.8,0.5,1.7,0.9,2.6,0.9l-3.2-3.8
		C51.4,411,46,416.2,45,422.3c-0.1,0.6,1,1.7,1.4,2.1s1.3,1.8,1.8,1.7c4.6-0.9,9.2-1.8,13.8-2.7c8.1-1.5,16.2-2.9,24.3-3.8
		c4.6-0.6,9.3-0.9,14-0.9c3.2,0,6.8,0,9.8,1.4c0.4,0.2,0.9,0.5,1.2,0.8c0.1,0.1,0.2,0.2,0.3,0.3c0.3,0.2-0.9-1-0.9-1.1
		c0,0.2,0.3,0.7,0.4,0.9c0.4,1.2,0.6,2.4,0.6,3.6c-0.1,2.8-0.7,5.5-1.8,8c-0.9,2.3-1.9,4.5-2.9,6.7s-1.9,4.9-1.4,7.4
		c0.5,2.9,3,5.7,5.2,7.4c1.3,1,3.2,2.3,4.9,2.2c2.2-0.1,4.5-1.6,6.3-2.8c8.1-5.1,15.1-12.1,21.7-19c9.6-10.2,18.3-21.4,25.9-33.2
		c8-12.5,14.9-25.6,20.5-39.3c2.9-6.9,5.6-14.2,6.5-21.8c0.3-2.2,0.6-5-0.3-7.1c-0.1-0.2-0.1-0.3-0.2-0.5c-0.3-0.5-2.5-3.8-3.1-3.5
		l-23.6,11.1l-37.7,17.8L123.1,362.2c0,0,2.5,4.2,3.2,3.8l23.6-11.1l37.7-17.7l8.6-4.1l-3.1-3.5c0.1,0.3-0.1-0.3,0,0
		s0.2,0.5,0.2,0.8c0.2,1.2,0.3,2.4,0.3,3.6c-0.2,6.1-2.2,12.2-4.2,17.9c-4.6,12.8-10.9,25.1-17.7,36.8
		c-7.3,12.6-15.9,24.5-25.5,35.5c-7.1,8.1-14.8,16.1-23.4,22.6c-2.4,2-5.1,3.6-7.9,4.9c-0.8,0.4-1.7,0.6-2.5,0.6
		c-0.7-0.1-1.4-0.3-2-0.6c-0.7-0.3-1.3-0.7-1.9-1.1c-0.1-0.1-0.2-0.2-0.3-0.3c2.7,1.6,1.4,2,1.1,1.3c-0.1-0.3-0.2-0.5-0.3-0.8
		c-0.8-2.6,0.2-5.3,1.2-7.7s2-4.4,2.9-6.6c1.9-4.9,3-10.3-0.2-14.9c-1.6-2.2-3.6-4.5-6.2-5.6c-1.3-0.5-2.7-0.8-4.1-1
		c-4.2-0.4-8.3-0.4-12.5,0c-9.1,0.7-18.1,2-27.1,3.7c-4.8,0.9-9.5,1.8-14.3,2.8l-3.6,0.7l3.2,3.8c1.1-6.1,6.5-11.3,11.5-14.5
		c0.3-0.2-2.6-3.8-3.2-3.8c-0.7-0.1-1.4-0.3-2-0.6c2.2,0.9,2.3,3.7,2.1,2.2c0-0.3,0-0.6,0-0.9c0.6-1.8,1.6-3.4,3-4.6
		c4.5-4.7,10.4-8,16.3-10.5c3.8-1.7,7.7-2.8,11.6-4.2c3.8-1.4,7.6-3.1,11.2-4.9c6.4-3.3,12.6-7.1,18.5-11.3c3.1-2.2,6.2-4.4,9.1-6.9
		C126.6,365.7,123.4,361.9,123.1,362.2z" fill="#000005"></path><path class="st0" d="M86.9,398.4c0,0-26,10.2-31.4,13.4" fill="#FFFFFF"></path><path class="st1" d="M85.3,396.6c-8.5,3.4-17,6.8-25.3,10.4c-2,0.9-4.1,1.8-6.1,2.9s1.6,4.6,3.2,3.7c4.2-2.2,8.6-4.2,13-5.9
		c5-2.1,10.1-4.2,15.2-6.2l3.3-1.3C90.6,399.5,87.2,395.9,85.3,396.6L85.3,396.6z" fill="#000005"></path><path class="st1" d="M236.7,195.5c0,0-152.4,147-106.4,186.1s164.9,27.4,202.4,5.3c0,0,57.1-19.2,93.5-122.4
		C426.2,264.5,407.4,222.1,236.7,195.5z" fill="#000005"></path><path class="st1" d="M234.5,195c-3,2.8-5.9,5.8-8.7,8.7c-7.3,7.4-14.6,15-21.7,22.7c-9.7,10.5-19,21.2-28.1,32.1
		c-9.8,11.8-19.2,24-27.9,36.6c-7.9,11.5-15.4,23.5-21.1,36.2c-4.4,9.7-8.2,20.6-7.8,31.4c0.1,4.4,1.2,8.6,3.2,12.5
		c2.5,4.7,6.6,8,10.9,11c14.2,9.9,31.3,15.2,48.2,18.3c19.4,3.6,39.3,4.5,59.1,3.8c18.9-0.6,37.7-3,56.1-7.1
		c7.7-1.7,15.2-3.9,22.6-6.5c3.2-1.2,6.4-2.5,9.5-3.9c1.3-0.6,2.6-1.3,3.9-2c0.6-0.3,1.2-0.6,1.8-1c0.3-0.2-0.4,0.2-0.2,0.1
		c4.1-1.7,8.1-3.7,12-6c9.6-6,18.4-13.1,26.3-21.2c12.6-13,23.4-27.5,32.4-43.2c6-10.4,11.3-21.2,16-32.3c2.7-6.2,5.1-12.6,7.4-19
		c0.3-0.8,0.7-1.6,0.4-2.4c-0.7-1.9-2.5-3.7-3.8-5.1c-3.9-4.1-8.2-7.8-12.8-10.9c-8.2-5.6-16.9-10.4-25.9-14.4
		c-14.1-6.3-28.5-11.7-43.3-16.1c-21.3-6.4-42.9-11.7-64.8-15.9c-13.5-2.7-27-5-40.5-7.1c-0.9-0.1-2.6,0.1-3,1s1.2,1.4,1.8,1.5
		c28.1,4.2,55.9,9.9,83.3,16.9c18.4,4.7,36.5,10.6,54.1,17.8c10.9,4.4,21.4,9.9,31.4,16.3c3.2,2.1,6.3,4.3,9.2,6.8
		c1.1,0.9,2.2,1.9,3.2,2.9c0.5,0.4,0.9,0.9,1.4,1.3l0.5,0.6l0.5,0.5l0.4,0.4l0.5,0.5c0.3,0.3,0.6,0.7,0.8,1c0.4,0.5,0.8,1,1.2,1.6
		c0.2,0.3,0.7,1.5,1,1.7c0,0,0,0,0,0.1v-0.7c-5.9,17.1-13.3,33.7-22,49.5c-6.7,12.1-14.5,23.6-23.3,34.4
		c-6.5,7.9-13.7,15.2-21.6,21.8c-5.1,4.3-10.7,8.2-16.5,11.6c-1.8,1-3.7,2-5.6,2.9l-0.5,0.2c-0.5,0.2,0.4-0.2-0.1,0l-0.9,0.4
		l-1.3,0.5c-1.6,0.7-3.2,1.5-4.7,2.4c-4.1,2-8.3,3.8-12.6,5.2c-11.1,3.7-22.4,6.5-33.9,8.4c-13.4,2.3-26.9,3.6-40.4,4.1
		c-14,0.6-28.1,0.1-42-1.4c-13-1.3-25.7-4.1-38.1-8.3c-10.2-3.6-20.8-8.6-28.8-16.1c-4.2-4.2-6.8-9.7-7.2-15.6
		c-0.7-7.1,0.8-14.3,3-21c2.9-8.5,6.6-16.8,11.1-24.6c5.1-9,10.7-17.8,16.7-26.3c6.3-8.9,12.9-17.6,19.7-26.1
		c6.7-8.3,13.5-16.4,20.6-24.4c6.2-7,12.5-14,19-20.8c4.9-5.2,9.9-10.4,14.9-15.6c2.8-2.9,5.7-5.7,8.6-8.6l1.1-1.1
		c0.8-0.8-0.2-1.5-1-1.7C236.8,194,235.5,194.3,234.5,195z" fill="#000005"></path><path class="st0" d="M206.7,236c0,0,120.8-24.6,135.3-61.1c0,0-43.9-79.2-65-85.2c-37.8-10.7-83.6,22.7-84.5,46.8
		C190.6,186,206.7,236,206.7,236z" fill="#FFFFFF"></path><path class="st1" d="M207.3,237.9c6.6-1.3,13.2-2.9,19.7-4.6c14.9-3.7,29.7-7.9,44.2-12.9c16-5.4,32-11.6,46.6-20.1
		c6.3-3.5,12.1-7.6,17.4-12.5c2.2-2.1,4.2-4.4,6-6.9c0.8-1.2,1.6-2.5,2.2-3.8c0.6-1.1,1.4-2.4,0.7-3.6c-1.3-2.6-2.9-5.1-4.3-7.6
		c-3.3-5.7-6.7-11.3-10.1-16.9c-9-14.5-18.3-28.8-29.1-42c-4.5-5.4-9.2-10.8-14.8-15.1c-2-1.6-4.2-2.9-6.6-3.9
		c-4.8-1.6-9.9-2.5-15-2.5c-11.4-0.4-22.7,2.3-33.1,6.8c-9.8,4.2-18.8,10.2-26.5,17.7c-6.2,6-12,13.5-13.9,22.1
		c-0.4,2.2-0.7,4.5-0.7,6.8c-0.1,3.7-0.1,7.5,0,11.2c0.2,7.3,0.7,14.6,1.4,21.9c2.1,20.8,6.2,41.3,12,61.3c0.3,1.1,0.6,2.1,1,3.2
		c0.8,2.6,5.6,1.2,4.8-1.4c-1.9-5.8-3.4-11.8-4.8-17.7c-3.5-14.2-6.1-28.7-7.7-43.2c-1-8.8-1.6-17.6-1.7-26.4
		c-0.1-4.1-0.2-8.3,0.2-12.4c0.2-2.1,0.7-4.1,1.4-6.1c3.8-10.1,12.4-18.4,21.1-24.7c10.6-7.7,22.8-12.6,35.8-14.5
		c6.5-0.9,13.1-0.7,19.5,0.7c0.8,0.2,1.6,0.3,2.4,0.6c0.2,0,1.2,0.3,0.8,0.2s0.2,0.1,0.2,0.1c0.6,0.2,1.2,0.5,1.8,0.7L279,93
		l0.3,0.2l0.3,0.2c0.7,0.4,1.3,0.9,2,1.3c6.8,5,12,11.4,17.2,18c6.5,8.2,12.5,16.9,18.2,25.6c5.1,7.8,10.1,15.8,14.8,23.8
		c2.6,4.4,5.2,8.8,7.7,13.3l0.4,0.6l-0.2-1.6c-0.2,0.4-0.4,0.9-0.6,1.3c-0.1,0.2-0.2,0.4-0.3,0.6c-0.2,0.4,0.1-0.2-0.2,0.4
		c-0.5,0.9-1,1.8-1.6,2.6s-1.3,1.7-2,2.6l-0.5,0.6l-0.2,0.3c0.3-0.4,0.1-0.1,0,0c-0.4,0.5-0.9,0.9-1.3,1.4c-1.7,1.7-3.5,3.3-5.4,4.8
		c-1,0.8-2.1,1.6-3.1,2.4l-0.8,0.6l-0.2,0.1c0.3-0.2-0.3,0.2-0.3,0.2l-1.7,1.1c-5,3.2-10.2,6.1-15.5,8.7c-2.9,1.4-5.8,2.7-8.7,4
		c-2.9,1.3-5.9,2.6-8.6,3.6c-12.1,4.8-24.4,8.9-36.9,12.6c-10.2,3-20.5,5.8-30.9,8.3c-4.9,1.2-9.8,2.1-14.6,3.3h-0.2
		c-1.2,0.2-2,1.4-1.9,2.6C204.7,238,206.2,238.1,207.3,237.9z" fill="#000005"></path><path class="st1" d="M210.8,165.4c12.2-10.7,25.5-23,30.7-38.9c1.4-4.1,2.1-8.4,2-12.7c0-1.5-4.5,0.3-4.5,1.8
		c0.3,15.5-9.9,28.9-20.4,39.3c-3.5,3.5-7.2,6.8-10.9,10.1c-0.6,0.5-1.1,1.4-0.1,1.7S210.1,166,210.8,165.4L210.8,165.4z" fill="#000005"></path><path class="st1" d="M203.5,162.4c9.8-13.9,20.3-29.1,21.3-46.7c0.1-1.6-4.4-3.8-4.4-2c-1,17.3-11.5,32.3-21.1,46
		C198.3,161.1,202.5,163.7,203.5,162.4L203.5,162.4z" fill="#000005"></path><path class="st0" d="M322.9,171.9c7.7-24.3-38.8-63.7-38.8-63.7c-9.7,2.7-28.4,1.6-28.4,1.6c17.8,24.7-10.2,47.8-10.2,47.8
		c-13.6-11.4-28.1,2.2-20.1,16s22.4,8.6,22.4,8.6s10.2,38.6,14.3,43.6c0,0,31,4.8,35.5-22.9C297.6,203.1,317.6,188.4,322.9,171.9z" fill="#FFFFFF"></path><path class="st1" d="M325.3,171.6c2.2-7.1,0-14.7-3.1-21.1c-3.7-7.8-8.9-14.9-14.5-21.5c-4.8-5.7-9.9-11-15.3-16.1
		c-1.6-1.5-3.2-3-4.8-4.4c-0.4-0.3-0.8-0.7-1.1-1c-1.3-1-2.9-0.3-4.4,0c-5,1.1-10.9,1.2-16.2,1.2c-3.1,0-6.2,0-9.4-0.2
		c-1-0.1-4.2,0.9-3.2,2.4c3,4.1,4.9,8.8,5.6,13.8c0.4,4.2-0.1,8.5-1.5,12.5c-2.3,6.4-6,12.2-10.8,17.1c-1,1.1-2.1,2.1-3.2,3.1
		l4.2-0.6c-4.9-4-11.2-5.9-17.3-3.7c-5,1.7-8.7,6-9.6,11.2c-0.8,5.8,2.2,11.8,6.5,15.6c3.5,3,8,4.7,12.6,4.8c3,0.1,5.9-0.3,8.8-1.3
		l-3.4-0.4c1.3,4.8,2.6,9.6,4,14.4c2.3,7.9,4.6,15.9,7.5,23.6c0.5,1.3,1,2.6,1.6,3.8c0.5,0.9,1,2.3,2.1,2.6c1.2,0.2,2.4,0.3,3.7,0.3
		c6.4,0.4,12.7-0.7,18.6-3c4.2-1.7,7.9-4.3,10.9-7.7c3.3-4.1,5.5-8.9,6.2-14.1l-0.9,1c8.1-5.9,15.2-13.1,20.8-21.4
		C322.2,179,324,175.4,325.3,171.6c0.4-1.1-1.5-1.1-2-1.1c-1,0.1-2.4,0.6-2.7,1.7c-2.7,8.3-8.5,15.4-14.5,21.5
		c-2.3,2.3-4.8,4.5-7.3,6.6c-0.7,0.6-1.4,1.2-2.2,1.7c-0.2,0.1-0.4,0.3-0.6,0.4c0.8-0.7-0.4,0.4-0.6,0.7c-0.3,1-0.5,2-0.7,3
		c-0.2,1-0.5,1.9-0.9,2.9c-0.6,1.6-1.3,3.1-2.2,4.6c-0.8,1.4-1.8,2.6-2.9,3.8c-1,1-2,1.9-3.1,2.7c-0.6,0.4-1.1,0.7-1.7,1.1
		c-0.1,0.1-1,0.5-0.6,0.4l-1.1,0.5c-0.6,0.3-1.3,0.5-1.9,0.8c-0.2,0.1-0.9,0.3-0.4,0.1l-1.2,0.4c-0.6,0.2-1.2,0.3-1.8,0.5l-1,0.2
		c-0.1,0-0.5,0.1,0.1,0l-0.6,0.1c-1.2,0.2-2.4,0.4-3.6,0.5l-1,0.1h-0.3c-0.5,0,0.5,0-0.1,0s-1.1,0-1.6,0c-1,0-1.9,0-2.9-0.1
		c-0.6,0-1.3-0.1-1.9-0.2c0.8,0.1,0.1,0-0.2,0l0.8,0.4c-0.5-0.7-1-1.5-1.3-2.3c-0.6-1.3-1.1-2.6-1.6-3.9c-1.3-3.5-2.5-7-3.6-10.6
		c-2.3-7.2-4.3-14.5-6.3-21.8c-0.5-1.6-0.9-3.2-1.3-4.9c-0.3-1.3-2.7-0.6-3.4-0.4c1.4-0.5-0.4,0.1-0.8,0.2c-0.7,0.2,0.2,0-0.1,0
		s-0.5,0.1-0.8,0.1l-0.9,0.1h-0.5c-0.1,0-0.8,0-0.5,0h-0.9c-0.4,0-0.7,0-1.1,0c-0.8,0-1.5-0.1-2.3-0.3c-1.9-0.4-3.6-1.1-5.2-2.2
		c-4.2-2.8-7.1-7.1-8-12.1c-0.6-4,0.7-8.5,4-10.9c1.6-1.2,3.5-1.7,5.4-1.4c3,0.5,5.8,1.8,8.1,3.8c1.2,1,3.1,0.3,4.2-0.6
		c3.3-2.9,6.3-6.2,8.8-9.8c4.9-6.8,8.2-14.9,7.7-23.4c-0.5-5.8-2.6-11.3-6.1-16l-3.2,2.4c3.6,0.2,7.3,0.3,10.9,0.2
		c6.3-0.1,12.7-0.3,18.8-2l-2.6-0.3c5.3,4.6,10.4,9.6,15.2,14.8c8.5,9.1,17,19.3,21.7,31c2.2,5.5,3.5,11.6,1.8,17.4
		C319.9,173.9,324.8,173.3,325.3,171.6z" fill="#000005"></path><path class="st1" d="M232.2,193.7c2.7,10.1,5,20.3,7,30.6c0.3,1.7,5,0,4.6-1.9c-2-10.3-4.3-20.5-7-30.6
		C236.4,190.1,231.7,191.8,232.2,193.7L232.2,193.7z" fill="#000005"></path><path class="st1" d="M217.3,209.5l-3.5,17.4c-0.1,0.6,4.7,0.8,5-0.5l3.4-17.4C222.4,208.3,217.6,208.2,217.3,209.5L217.3,209.5z" fill="#000005"></path><path class="st1" d="M206.8,191.6c3.3-0.5,6.6-2.6,9.4-4.4c4-2.4,7.5-5.5,10.5-9.1c0.6-0.8,0.5-2-0.4-2.7c-0.1,0-0.1-0.1-0.2-0.1
		c-0.7-0.6-2.6-1.2-3.3-0.2c-2.8,3.4-6.1,6.3-9.8,8.6c-1.6,1-3.2,2-4.9,2.8c-0.7,0.3-1.4,0.6-2.1,0.9l-0.4,0.2
		c-0.1,0-0.6,0.2-0.2,0.1s-0.4,0.1-0.6,0.1c-0.9,0.1-1.5,0.9-1.4,1.7c0,0.2,0.1,0.4,0.2,0.6C204.2,191.1,205.5,191.7,206.8,191.6
		L206.8,191.6z" fill="#000005"></path><path class="st0" d="M288.5,140.2c0,0,8.4,2.1,21.1,1.2c23.9-1.7,28.5,5.6,22.5,11.8S294,163.6,294,163.6" fill="#FFFFFF"></path><path class="st1" d="M286.6,141.7c7.2,1.8,15,1.7,22.4,1.2c5-0.5,10.1-0.3,15.1,0.6c2.4,0.5,5.3,1.3,7,3.1c1.2,1.2,1.5,2.9,0.9,4.4
		c-0.3,0.8-0.8,1.5-1.4,2.1l-0.2,0.2c-0.3,0.4,0.4-0.3,0,0c-0.1,0.1-0.7,0.5-0.4,0.3s-0.3,0.2-0.4,0.3l-0.5,0.3
		c-0.5,0.3,0.5-0.2-0.1,0s-1.2,0.6-1.9,0.9c-0.8,0.3-0.9,0.4-1.8,0.7c-1.6,0.6-3.3,1.1-5,1.5c-3.5,1-7,1.7-10.5,2.4
		c-4.9,1-9.9,1.8-14.8,2.4c-1.2,0.2-2.3,0.9-3,1.8c-0.5,0.8-0.2,1.4,0.8,1.3c4.4-0.6,8.9-1.3,13.2-2.1c7.3-1.4,14.9-2.9,21.8-5.9
		c3.9-1.8,10.2-6,8.5-11.2c-0.7-2.2-2.9-3.5-4.9-4.3c-4-1.4-8.1-2-12.3-1.9c-6.7-0.1-13.4,0.8-20.2,0.3c-2.2-0.1-4.3-0.4-6.5-0.7
		c-0.6-0.1-1.2-0.2-1.8-0.3c-0.2,0-1-0.2-0.3-0.1c-1.1-0.1-2.2,0.2-3,1C287.1,139.9,285.5,141.5,286.6,141.7L286.6,141.7z" fill="#000005"></path><path class="st1" d="M264.5,170.4c1.5,2.1,3.4,3.9,5.6,5.3c2.3,1.3,5,2.1,7.6,1.1c1.1-0.4,0.3-1.9-0.1-2.5c-0.7-0.8-1.9-1.7-3-1.3
		c-0.2,0.1-0.4,0.1-0.6,0.2c0.2,0,0,0-0.1,0h-0.3c-0.2,0-0.5,0-0.7,0c-0.3,0,0.3,0,0,0h-0.3c-0.2,0-0.4-0.1-0.7-0.1s0.3,0.1,0,0
		c-0.1,0-0.2-0.1-0.3-0.1l-0.3-0.1c-0.1,0-0.4-0.2-0.1,0l-0.1-0.1l-0.4-0.2c-0.2-0.1-0.4-0.3-0.6-0.4c0.1,0.1,0.4,0.3,0.1,0.1
		l-0.3-0.2c-0.4-0.3-0.7-0.6-1-0.9c0.1,0.1,0.3,0.3,0.1,0.1l-0.2-0.3l-0.5-0.6c-0.3-0.4-0.6-0.8-1-1.1c-0.6-0.8-2-1.7-3-1.3
		s-0.3,1.9,0.1,2.5L264.5,170.4z" fill="#000005"></path><path class="st1" d="M272.1,141.1c0,0-2.6,2.6,0,4.9s5.6-1,3.9-3.7S272.1,141.1,272.1,141.1z" fill="#000005"></path><path class="st1" d="M293,132.7c0,0-2.6,2.6,0,4.9s5.6-1,3.9-3.7S293,132.7,293,132.7z" fill="#000005"></path><path class="st0" d="M303.4,308.5c3.4-3.7,5.9-8.2,7.2-13.1c1.1-4.2,1.8-9.4-2.3-12.1c-3.2-2.1-7.6-2.3-11.4-2.2
		c-2.7,0.1-6,0.5-8,2.5c-1.6,1.6-2.2,4.1-2.6,6.3c-1.1,5.6,0,11.3,2.8,16.2l4.8-1.4c-7.4-10.5-16.8-19.6-27.5-26.6
		c-1.2-0.9-2.6-1.3-4.1-1.3c-1.9,0-3.8,0.7-5.3,2c-1.9,1.9-3.1,4.3-3.5,6.9c-1.1,5.5,1.1,11.1,5.6,14.4c5.1,3.8,11.8,4.5,17.8,5
		l0.2-1.2c-13.1,5.7-22.9,17.1-26.8,30.8c-1.5,5.5-2.2,13.5,3.2,17.2c3.1,2.1,7.2,1.8,10.6,0.7c3.7-1.2,7.1-3.3,9.8-6.1
		c3.2-3.2,6-6.8,8.5-10.7c2.6-3.9,4.9-8.1,6.8-12.4l-4.8,1.1c-0.3,4.5-1.5,8.8-2.3,13.2c-0.7,3.8-1.2,7.8-0.2,11.6
		c1.7,6.2,6.7,11.6,13.5,10.8c4.3-0.5,8-2.8,11.3-5.4c2.9-2.3,5.4-5,7.5-8c4-5.9,5.7-13.4,2.5-20c-3.4-7.1-10.7-11.4-17.3-15.1
		c-0.8-0.5-2.3,0-3.1,0.3c-0.2,0.1-2.1,0.9-1.4,1.3c5.5,3.1,11.3,6.5,15.1,11.6c3.9,5.3,4.7,12.3,2,18.3c-1.4,3.1-3.2,5.9-5.5,8.3
		c-2.3,2.6-5,4.7-8.1,6.4c-2.3,1.1-5.1-0.4-6.9-1.9c-2.2-2-3.8-4.6-4.7-7.5c-1.2-4-0.7-8.2,0-12.1c0.8-4.4,2-8.7,2.3-13.2
		c0.1-0.8-4.4,0.3-4.8,1.1c-3,6.9-7,13.3-11.8,19.1c-2.1,2.8-4.7,5.1-7.6,7c-2.3,1.4-5.2,1.3-7.3-0.4c-4.8-3.5-4.2-10.9-2.9-15.9
		c1.6-6.1,4.5-11.8,8.4-16.8c4.4-5.6,10.1-10,16.5-12.9c0.9-0.4,1.5-1.1,0.2-1.2c-4.9-0.4-10-1.1-14.3-3.4
		c-4.4-2.3-7.2-6.6-7.6-11.5c-0.2-2.5,0.3-4.9,1.4-7.2c0.3-0.5,0.6-1.1,0.9-1.6c0.1-0.2,0.3-0.4,0.5-0.6c0.5-0.5,1.1-0.6-0.4-0.3
		s-0.7,0.2,0,0.5c0.2,0.1,0.5,0.2,0.7,0.4c0.7,0.4,1.4,0.9,2.1,1.4c10,6.8,18.8,15.4,25.8,25.3c0.7,1,5.2-0.7,4.8-1.4
		c-2.2-3.7-3.4-7.9-3.3-12.2c0-2.2,0.3-4.3,1-6.4c0.3-0.9,0.6-1.8,1.2-2.6c0.1-0.2,0.4-0.4,0.5-0.6l0.1-0.1
		c-0.7,0.2-0.8,0.2-0.4,0.2s1-0.1,1.5-0.1c3.2,0,6.7,0.2,9.4,2.1c3.6,2.5,2.8,7.3,1.9,11c-1.1,4.8-3.5,9.3-6.8,12.9
		c-0.7,0.8,0.6,0.8,1.1,0.7C301.3,309.7,302.4,309.3,303.4,308.5L303.4,308.5z" fill="#FFFFFF"></path><path class="st0" d="M400,209.3c-18.5,0.1-31.1-19.4-31.2-33.2s10-10.2,14.8-7.2s8.6,12.6,8.6,12.6c19.5-5.9,7.5-21.4-1.8-17.5
		s-15.6,3.7-18.3-2.8s2.7-14.5,13.7-18.6s22.3,3.3,22.3,3.3s-22.3-46.1-5.2-47.4s26.7,43.5,26.7,43.5s-1.1-25.5,10-26.3
		s17.7,22.8,11.1,55.3c0,0-5.1,39.5-26.9,95.4c0,0-32.2-7.5-50.5-35l11.1-19.8" fill="#FFFFFF"></path><path class="st1" d="M399.7,207.4c-12.8,0-22.8-10.2-26.9-21.8c-0.9-2.6-1.5-5.4-1.6-8.2c-0.1-2.5,0.1-5.9,1.7-7.8
		c0.5-0.6,1.2-1.1,2-1.3c0.3-0.1-0.2,0,0.3-0.1l0.6-0.1c0.1,0,0.3,0,0.4,0c-0.1,0-0.4,0,0,0c0.3,0,0.5,0,0.8,0.1l0.7,0.1
		c0.4,0.1-0.4-0.1,0,0l0.3,0.1c0.5,0.1,1,0.3,1.5,0.5l0.7,0.3c-0.5-0.2,0,0,0.2,0.1c0.5,0.2,0.9,0.4,1.3,0.7c1,0.5,1.9,1.2,2.6,2
		c1.1,1.3,2.1,2.6,3,4.1c1.1,1.9,2.1,3.8,2.9,5.8c0.7,1.3,2.2,1.9,3.6,1.5c5.7-1.8,13-6.1,11-13.2c-1.5-5.4-7.2-9.1-12.7-8.6
		c-1.6,0.2-3.2,0.7-4.6,1.4c-2,0.8-4.2,1.4-6.3,1.7c-0.7,0.1-1.5,0.1-2.2,0.1c-0.3,0-0.7-0.1-1-0.1c-0.2-0.1-1.1-0.4-0.8-0.2
		c-0.4-0.2-0.8-0.5-1.2-0.8c-0.5-0.5-0.9-1.1-1.2-1.7c-3.5-7.2,4.6-13.8,10.4-16.4c4.7-2.2,10.1-2.6,15.1-1.1c2.5,0.7,5,1.7,7.2,3.2
		c1.4,0.9,3.9,0.1,3-1.9c-2.2-4.6-4.2-9.5-6-14.3c-1.5-4.1-2.9-8.2-3.9-12.5c-0.5-2.1-0.9-4.1-1.2-6.2c-0.3-1.7-0.4-3.4-0.3-5.2
		c0-0.8,0.1-1.6,0.3-2.4c0-0.2,0.3-1,0.1-0.7c0.1-0.3,0.2-0.7,0.4-1c0.1-0.3,0.3-0.6,0.5-0.9c0.1-0.1,0.2-0.3,0.3-0.4
		c0.2-0.2-0.2,0.2,0.1-0.1s0.4-0.4,0.6-0.6c0.1-0.1,0.2-0.2,0.4-0.3c-0.4,0.2,0,0,0.2-0.1c0.3-0.1,0.6-0.3,0.9-0.4
		c0.4-0.1-0.3,0.1,0.1,0l0.6-0.1c0.2,0,0.4,0,0.6-0.1s0.7,0,0.2,0c0.4,0,0.9,0.1,1.3,0.1s-0.2-0.1,0.2,0l0.5,0.1l0.6,0.2l0.3,0.1
		c0.3,0.1-0.5-0.2-0.1,0s0.8,0.4,1.1,0.6c0.2,0.1,0.4,0.2,0.5,0.3s-0.3-0.3,0.2,0.2c3,2.4,5.5,5.4,7.3,8.8c2.3,4.1,4.2,8.3,5.9,12.7
		c2.1,5.9,3.9,11.8,5.4,17.9c0,0.1,0,0.2,0.1,0.3c0.3,1.1,1.3,1.9,2.4,2.1c0.8,0.1,2.3,0,2.3-1.2c-0.1-3.3,0-6.6,0.4-9.9
		c0.3-2.7,0.8-5.3,1.6-7.9c0.6-2.3,1.8-4.3,3.5-6c0.2-0.2,0.4-0.3,0.6-0.5c0.4-0.3,0.1-0.1,0.4-0.2s0.5-0.2,0.8-0.3l0.4-0.2
		c0.4-0.1-0.1,0,0.1,0s0.6-0.1,0.9-0.1h0.3c-0.1,0-0.5,0-0.1,0h0.6h0.3c0.5,0-0.5-0.1,0,0c0.2,0.1,0.4,0.1,0.6,0.2
		c0.7,0.2-0.3-0.2,0.2,0.1c0.2,0.1,0.4,0.2,0.6,0.3c0.6,0.3-0.2-0.2,0.2,0.1c0.2,0.2,0.4,0.3,0.6,0.5s0.6,0.6,0.2,0.2
		c0.4,0.4,0.8,0.8,1.1,1.3c0.7,0.9,1.3,1.9,1.8,3c0.6,1.2,1.1,2.5,1.5,3.8c1,3.4,1.7,6.9,2,10.5c0.8,9.5,0.4,19.1-1.4,28.4
		c-0.4,2.5-0.9,5-1.3,7.5c-1.6,10-3.8,20-6.3,29.8c-4.6,18.3-10.3,36.3-16.9,53.9c-1,2.7-2,5.3-3.1,8l2.4-0.6
		c-1.1-0.3-2.2-0.6-3.3-0.9c-1.2-0.4-2.5-0.8-3.7-1.3c-0.8-0.3-1.5-0.5-2.2-0.8l-1.2-0.5c-0.1,0-0.8-0.3-0.2-0.1l-0.8-0.4
		c-8.8-3.7-17-8.8-24.3-15.1c-5-4.4-9.4-9.4-13.1-14.9l0.4,1.9l9.7-17.3l1.4-2.5c1.2-2.1-3.2-4.4-4.4-2.4l-9.7,17.3l-1.4,2.5
		c-0.3,0.7-0.1,1.4,0.4,1.9c6.8,9.9,15.6,18.2,25.8,24.5c6.9,4.3,14.3,7.8,22,10.4c1.4,0.5,2.9,0.9,4.3,1.3c0.7,0.2,2.1,0.3,2.4-0.6
		c7.5-19.1,13.8-38.6,19.1-58.4c2.9-11,5.4-22,7.3-33.2c0.3-1.8,0.5-3.6,0.9-5.5c2.1-10,2.8-20.2,2.1-30.4c-0.5-6.7-1.7-14-5.4-19.8
		c-2.8-4.4-7.6-7.9-13-6.4s-7.5,7.8-8.5,12.7c-0.9,4.5-1.3,9.2-1.2,13.8c0,0.3,0,0.6,0,0.8l4.7,0.9c-1.3-5.7-2.9-11.3-4.9-16.8
		c-3.1-8.7-7-18.3-14.1-24.6c-3-2.7-7-4.6-11.3-4.1c-3.4,0.3-6.2,2.7-7,6c-1.1,3.6-0.6,7.7,0,11.4c0.8,4.5,2,9,3.6,13.3
		c1.4,4.1,3,8.2,4.6,12.2c0.8,2.2,1.8,4.3,2.9,6.4c0.1,0.1,0.1,0.2,0.1,0.3l3-1.8c-5.8-3.8-13.7-5.8-20.6-4.6
		c-4.9,0.9-9.6,3.1-13.4,6.4c-2.9,2.5-5.3,5.8-5.8,9.6c-0.4,3.7,0.9,7.3,3.6,9.9c2.9,2.8,7.1,3.4,11,2.7c2.4-0.4,4.7-1.1,7-2
		c0.5-0.2,0.9-0.4,1.4-0.6c0.1,0,0.9-0.3,0.6-0.2c0.2-0.1,0.5-0.1,0.8-0.1l0.5-0.1c0.5,0,0,0,0.2,0c0.3,0,0.6,0,0.9,0.1l0.5,0.1
		c0.4,0.1-0.5-0.2,0,0l0.7,0.2c0,0,0.6,0.2,0.2,0.1s0.2,0.1,0.3,0.1l0.7,0.4c0.4,0.2,0,0-0.1-0.1l0.4,0.3l0.6,0.5
		c0.5,0.4-0.1-0.1,0.3,0.3c0.2,0.3,0.4,0.5,0.6,0.8c0.1,0.1,0.3,0.4,0,0l0.3,0.5c0.1,0.3,0.3,0.5,0.4,0.8s0,0.1,0,0
		c0,0.2,0.1,0.3,0.1,0.5c0.2,0.5,0.2,1.1,0.1,1.6c0,0.5-0.1,1-0.3,1.5c-1.5,3.6-5.6,5.4-9.2,6.5l3.6,1.5c-2.1-5.1-5.2-10.9-10-13.9
		c-3.7-2.4-9.4-4.5-13.6-2.2c-5.6,3.2-4.7,12-3.4,17.3c1.8,6.9,5.3,13.2,10.3,18.4c6,6.2,14,10.4,22.8,10.5
		C403.6,211.3,402.1,207.4,399.7,207.4L399.7,207.4z" fill="#000005"></path><path class="st0" d="M398,187.4c-2.6-1.2-4.7-3.3-5.7-5.9" fill="#FFFFFF"></path><path class="st1" d="M400,186.4c-0.8-0.3-1.5-0.8-2.2-1.3l0.3,0.2c-1.3-0.9-2.3-2.2-3.1-3.6l0.1,0.3c-0.2-0.3-0.3-0.7-0.4-1
		c-0.3-0.9-1.9-0.8-2.7-0.7c-0.6,0.1-1.2,0.3-1.7,0.7c-0.2,0.2-0.7,0.6-0.6,0.9c1,2.7,3.1,4.9,5.6,6.2c0.2,0.1,0.4,0.2,0.5,0.3
		c0.5,0.2,1,0.3,1.6,0.2c0.6,0,1.3-0.2,1.9-0.5c0.4-0.2,0.9-0.5,1-0.9C400.5,186.9,400.3,186.6,400,186.4L400,186.4z" fill="#000005"></path><path class="st1" d="M432.1,152.1c0.1-0.5,0.1-1.1,0.1-1.6c0-1,0.1-1.9,0.1-2.9s0.1-1.9,0.1-2.9c0-0.5,0-1.1,0.1-1.6
		c0.1-0.5-0.1-1.1-0.5-1.4c-0.4-0.4-1-0.5-1.6-0.5c-1.3,0.1-2.3,1.1-2.6,2.3c-0.1,0.5-0.1,1.1-0.1,1.6c0,1-0.1,1.9-0.1,2.9
		s-0.1,1.9-0.1,2.9c0,0.5,0,1.1-0.1,1.6c-0.1,0.5,0.1,1.1,0.5,1.4c0.4,0.3,1,0.5,1.6,0.4C430.7,154.3,431.8,153.4,432.1,152.1
		L432.1,152.1z" fill="#000005"></path></g><g id="check-mark"><circle class="st2" cx="350.3" cy="76" r="30.3"></circle><path class="st2" d="M378.2,75.7c-0.1,12-7.4,22.7-18.6,27c-11,4.1-23.3,0.8-30.8-8.2c-7.6-9.4-8.5-22.6-2.3-33
		c6.1-10.1,18.1-15.8,29.8-13.4c11.2,2.5,19.8,11.6,21.6,23C378,72.6,378.2,74.2,378.2,75.7c0,2.2,4.9,3.1,4.9,0.5
		c-0.1-13.7-9-25.7-21.8-30.4c-12.9-4.7-27.4-0.9-36.4,9.5c-8.7,10.5-9.7,25.4-2.6,37c7.3,11.7,21,17.7,34.6,15.2
		c13-2.5,23.7-12.9,25.8-26.2c0.3-1.7,0.4-3.4,0.4-5.1C383.1,74,378.2,73.2,378.2,75.7z"></path><path class="st0" d="M337.2,77.2c3.2,1.8,6.1,3.9,8.8,6.3c0.7,0.5,1.5,0.8,2.4,0.9c0.5,0.1,1.8,0.3,2.1-0.1
		c4.9-5.9,9.5-11.9,14-18.1c0.5-0.7-1.1-1.1-1.5-1.3s-2.6-0.8-3.1-0.1c-4.5,6.2-9.1,12.2-14,18.1l4.5,0.8c-2.9-2.6-6.1-4.9-9.5-6.7
		c-1.1-0.6-2.3-0.8-3.5-0.7C336.6,76.2,336.4,76.7,337.2,77.2L337.2,77.2z"></path></g></svg>